<svg xmlns="http://www.w3.org/2000/svg" viewBox="0 0 96 96">
    <path d="M24.241 54.521l-.888-2.336h-7.567l-.889 2.387c-.347.931-.643 1.56-.888 1.885-.246.326-.648.49-1.206.49-.474 0-.893-.174-1.257-.521-.364-.347-.546-.741-.546-1.181 0-.254.042-.516.127-.787.085-.271.224-.648.419-1.13l4.76-12.086.49-1.25c.19-.487.393-.891.609-1.213.216-.322.5-.582.85-.78.352-.2.785-.299 1.302-.299.524 0 .962.1 1.314.298.35.2.634.455.85.768.216.314.398.65.546 1.01.148.36.337.84.565 1.44l4.862 12.01c.381.914.572 1.579.572 1.994 0 .431-.18.827-.54 1.187-.36.36-.793.54-1.301.54-.296 0-.55-.054-.762-.16a1.56 1.56 0 0 1-.533-.431c-.144-.182-.298-.461-.463-.838a49.096 49.096 0 0 1-.426-.997zm-7.465-5.167h5.56l-2.805-7.68-2.755 7.68zm29.609-.292v3.568c0 .474-.047.852-.14 1.136a1.8 1.8 0 0 1-.514.768c-.25.229-.57.449-.959.66-1.125.61-2.209 1.054-3.25 1.333-1.04.28-2.175.42-3.402.42-1.43 0-2.734-.221-3.91-.661-1.176-.44-2.18-1.08-3.009-1.917-.83-.838-1.466-1.854-1.91-3.047-.445-1.193-.667-2.526-.667-3.999 0-1.447.216-2.772.647-3.974.432-1.201 1.067-2.221 1.905-3.06.838-.837 1.858-1.478 3.06-1.922 1.201-.445 2.564-.667 4.087-.667 1.253 0 2.362.167 3.326.501.965.335 1.748.756 2.349 1.264.601.507 1.054 1.045 1.358 1.612.305.567.457 1.07.457 1.51 0 .475-.175.879-.526 1.213a1.768 1.768 0 0 1-1.264.502 1.773 1.773 0 0 1-1.41-.724c-.464-.728-.858-1.278-1.18-1.65-.321-.373-.755-.686-1.3-.94-.547-.254-1.243-.38-2.09-.38-.87 0-1.65.15-2.335.45-.686.3-1.272.736-1.758 1.308-.487.57-.86 1.271-1.117 2.1-.259.83-.388 1.748-.388 2.755 0 2.184.502 3.864 1.505 5.04 1.003 1.177 2.401 1.765 4.196 1.765.871 0 1.69-.114 2.456-.343a12.441 12.441 0 0 0 2.33-.977v-3.022h-2.92c-.703 0-1.234-.105-1.594-.317-.36-.212-.54-.571-.54-1.08 0-.414.151-.757.452-1.027.3-.271.708-.407 1.225-.407h4.278c.525 0 .97.047 1.333.14.364.093.658.3.882.622.225.322.337.804.337 1.447zm2.745 5.586V39.985c0-.762.173-1.333.52-1.714.347-.38.796-.571 1.346-.571.567 0 1.026.188 1.378.565.35.377.526.95.526 1.72v14.663c0 .77-.175 1.346-.526 1.727-.352.38-.81.571-1.378.571-.542 0-.988-.192-1.34-.578-.35-.385-.526-.958-.526-1.72zm10.68-14.663v13.546h7.642c.61 0 1.077.148 1.403.444.326.297.489.669.489 1.118 0 .457-.161.827-.483 1.11-.321.284-.791.426-1.409.426H58.35c-.821 0-1.412-.182-1.771-.546-.36-.364-.54-.952-.54-1.765V39.985c0-.762.171-1.333.514-1.714.343-.38.794-.571 1.352-.571.567 0 1.026.188 1.378.565.351.377.527.95.527 1.72zm23.273.94H74.59v4.57h7.82c.576 0 1.005.129 1.289.387.283.258.425.599.425 1.022 0 .423-.14.768-.419 1.035-.28.266-.71.4-1.295.4h-7.82v5.294h8.785c.592 0 1.039.137 1.34.412.3.275.45.641.45 1.098 0 .44-.15.798-.45 1.073-.301.275-.748.413-1.34.413H73.13c-.821 0-1.411-.182-1.771-.546-.36-.364-.54-.952-.54-1.765v-13.99c0-.542.08-.984.242-1.327.16-.343.412-.592.755-.749.343-.156.78-.235 1.314-.235h9.953c.6 0 1.047.134 1.34.4.291.267.437.616.437 1.048 0 .44-.146.793-.438 1.06-.292.266-.738.4-1.339.4zM80.8 25.7a8.3 8.3 0 0 0-8.3-8.3h-47c-4.704 0-8.8 3.832-8.8 8.3a1.7 1.7 0 1 1-3.4 0c0-6.399 5.667-11.7 12.2-11.7h47c6.462 0 11.7 5.238 11.7 11.7a1.7 1.7 0 1 1-3.4 0zm-64.1 44A8.3 8.3 0 0 0 25 78h47c4.704 0 8.8-3.832 8.8-8.3a1.7 1.7 0 1 1 3.4 0c0 6.399-5.667 11.7-12.2 11.7H25c-6.462 0-11.7-5.238-11.7-11.7a1.7 1.7 0 1 1 3.4 0z"/>
</svg>
