<svg xmlns="http://www.w3.org/2000/svg" viewBox="0 0 96 96">
    <path d="M48 83.6c19.661 0 35.6-15.939 35.6-35.6S67.661 12.4 48 12.4 12.4 28.339 12.4 48 28.339 83.6 48 83.6zm0 3.4C26.46 87 9 69.54 9 48S26.46 9 48 9s39 17.46 39 39-17.46 39-39 39zm26.034-38.036a1.7 1.7 0 1 1 0 3.4H61.12a1.7 1.7 0 0 1-1.456-.823l-1.793-2.978-8.866 25.885c-.608 1.774-3.218 1.403-3.306-.47L43.702 31.59 36.6 51.242A1.7 1.7 0 0 1 35 52.364H22a1.7 1.7 0 1 1 0-3.4h11.807L43.4 22.422c.632-1.748 3.21-1.359 3.297.498l1.977 41.997 7.161-20.908c.468-1.366 2.32-1.563 3.065-.326l3.18 5.281h11.953z"/>
</svg>
