<svg xmlns="http://www.w3.org/2000/svg" viewBox="0 0 96 96">
    <path d="M80.282 65.577a8.586 8.586 0 0 1-7.47 12.823H22.588a8.585 8.585 0 0 1-7.467-12.823l25.113-44.23A8.583 8.583 0 0 1 47.702 17a8.582 8.582 0 0 1 7.466 4.346l25.114 44.23zM52.21 23.024A5.182 5.182 0 0 0 47.7 20.4a5.183 5.183 0 0 0-4.511 2.625l-25.114 44.23A5.185 5.185 0 0 0 22.586 75h50.227a5.185 5.185 0 0 0 4.512-7.745L52.21 23.025zM50.728 65.44c0-.711-.242-1.284-.755-1.786-.52-.508-1.118-.75-1.86-.75-.737 0-1.322.24-1.824.742-.501.499-.739 1.075-.739 1.794 0 .858.245 1.445.726 1.863a2.76 2.76 0 0 0 1.888.696c.71 0 1.308-.226 1.837-.697.484-.43.727-1.017.727-1.862zm1.533 4.402a6.046 6.046 0 0 1-4.097 1.557 6.16 6.16 0 0 1-4.116-1.528c-1.259-1.093-1.898-2.625-1.898-4.43 0-1.622.596-3.065 1.737-4.202 1.142-1.141 2.593-1.735 4.226-1.735 1.627 0 3.079.587 4.237 1.718 1.167 1.142 1.778 2.59 1.778 4.22-.001 1.782-.63 3.3-1.867 4.4zm-1.709-29.897l.003-.027c.115-1.114.172-2.214.17-3.277 0-1.75-.215-3-.61-3.81-.264-.542-.773-.811-1.8-.811-.867 0-1.507.261-1.998.786-.498.531-.768 1.324-.768 2.434 0 .996.074 2.637.226 5.026l.812 12.14c.142 1.47.367 2.497.652 3.116.145.314.336.43.772.43.418 0 .631-.132.808-.492.311-.635.53-1.612.64-2.99l1.093-12.525zm2.295 12.807c-.139 1.755-.447 3.128-.975 4.204-.749 1.53-2.15 2.397-3.86 2.397-1.737 0-3.146-.864-3.86-2.406-.474-1.03-.773-2.397-.953-4.263l-.816-12.196c-.158-2.462-.234-4.16-.234-5.248 0-1.923.555-3.55 1.686-4.759 1.153-1.23 2.697-1.861 4.48-1.861 2.245 0 3.974.917 4.856 2.72.656 1.347.954 3.08.954 5.297.002 1.176-.06 2.39-.187 3.617l-1.091 12.498z" opacity=".9"/>
</svg>
