<svg xmlns="http://www.w3.org/2000/svg" viewBox="0 0 96 96">
  <path d="M40 23.2l3.6 2.6H45V29h-2c-.3 0-.6 0-.9-.3l-4-3 2-2.5zm-2.4-1.8l-2 2.5-3.6-2.7h-2V18h2.6c.3 0 .7.1 1 .3l4 3zM74 78.7h-8v-3.2h8v3.2zm3 0v-3.2h6.4v-5h3.2v6.6c0 .8-.7 1.6-1.6 1.6h-8zm-14 0h-8v-3.2h8v3.2zm-33 0h-8v-3.2h8v3.2zm3 0v-3.2h8v3.2h-8zm-14 0h-7.4c-.9 0-1.6-.8-1.6-1.6v-6.6h3.2v5H19v3.2zm33 0h-8v-3.2h8v3.2zM10 67.5v-8h3.2v8H10zm0-11v-8h3.2v8H10zm0-11v-8h3.2v8H10zm0-19h3.2v8H10v-8zm0-3v-3.9c0-.9.7-1.6 1.6-1.6H16v3.2h-2.8v2.3H10zm76.6 44h-3.2v-8h3.2v8zm0-11h-3.2v-8h3.2v8zm0-11h-3.2v-8h3.2v8zm0-11h-3.2V29H81v-3.2h4c.9 0 1.6.8 1.6 1.6v7.1zM78 25.8V29h-8v-3.2h8zm-11 0V29h-8v-3.2h8zm-11 0V29h-8v-3.2h8zM27 18v3.2h-8V18h8z"/>
</svg>