<svg xmlns="http://www.w3.org/2000/svg" viewBox="0 0 96 96">
    <path d="M44.916 47.194l-6.379 2.627.003.179a5 5 0 1 1-7.647-4.242l-2.74-15.365-10.902-10.927a4.97 4.97 0 0 1-.551.238V25h-3.4v-5.296A5.002 5.002 0 0 1 15 10a5 5 0 0 1 4.586 6.995l7.523 7.54-.818-4.585a5.001 5.001 0 1 1 3.32-.685l1.688 9.47 14.42 14.452 6.835-2.816a5 5 0 1 1 9.952.215l7.46 3.917a5 5 0 0 1 7.384 6.734l3.533 10.583c.027.065.05.13.067.197a5 5 0 1 1-3.28.89l-3.329-9.97a5 5 0 0 1-5.785-5.338l-7.57-3.975A4.983 4.983 0 0 1 57.54 45a4.985 4.985 0 0 1-3.594-1.525l-5.628 2.318 30.594 30.663a5 5 0 1 1-2.615 6.244H73v-3.4h3.296c.057-.157.122-.311.194-.46L44.916 47.193zm-2.6-2.606l-9.972-9.994 1.864 10.45a4.99 4.99 0 0 1 3.06 1.623l5.048-2.079zM67 79.3v3.4h-6v-3.4h6zm-12 0v3.4h-6v-3.4h6zm-12 0v3.4h-6v-3.4h6zm-12 0v3.4h-6v-3.4h6zm-12 0v3.4h-4a1.7 1.7 0 0 1-1.7-1.7v-2h3.4v.3H19zM16.7 73h-3.4v-6h3.4v6zm0-12h-3.4v-6h3.4v6zm0-12h-3.4v-6h3.4v6zm0-12h-3.4v-6h3.4v6zM27 17a2 2 0 1 0 0-4 2 2 0 0 0 0 4zm30.54 25a2 2 0 1 0 0-4 2 2 0 0 0 0 4zm-24 10a2 2 0 1 0 0-4 2 2 0 0 0 0 4zm40-2a2 2 0 1 0 0-4 2 2 0 0 0 0 4zm7 19a2 2 0 1 0 0-4 2 2 0 0 0 0 4z"/>
</svg>
