<svg xmlns="http://www.w3.org/2000/svg" viewBox="0 0 96 96">
  <path d="M57.6 55.3l2.8 6.7a5 5 0 0 1 3.8 1l8-7.4a5 5 0 0 1 8-5.6 5 5 0 0 1 1.5 3.3h1.5a1.7 1.7 0 1 1 .3 3.4h-3a5 5 0 0 1-6 1.3L66 66a5 5 0 1 1-8.6-2.4l-2.9-6.9h-2.9v-3.4h1.5l-2.2-5.2a1.7 1.7 0 0 1 0-.1 5 5 0 0 1-3.8-1.5 5 5 0 0 1-1.3-4.4L38 38.6a5 5 0 0 1-5.2 1L23 51.4a5 5 0 0 1-8.4 5.4h-2a1.7 1.7 0 0 1 .3-3.4h.6a5 5 0 0 1 7-4.3l10-11.5a5 5 0 1 1 9.2-1.9l7.9 3.6a5 5 0 0 1 6.5 7.5v.1l2.8 6.5h.8v2zm12-2v3.4h-6v-3.4h6zm-24 0v3.4h-6v-3.4h6zm-12 0v3.4h-6v-3.4h6zM75.3 55A2 2 0 1 0 78 52a2 2 0 0 0-2.8 2.9zM17 55a2 2 0 1 0 2.8-2.9A2 2 0 0 0 17 55zm32.3-10.6a2 2 0 1 0 2.8-2.8 2 2 0 0 0-2.8 2.8zm10.4 24a2 2 0 1 0 2.8-2.8 2 2 0 0 0-2.8 2.8zm-26.4-32a2 2 0 1 0 2.8-2.8 2 2 0 0 0-2.8 2.8zm.2-20.3v-2.4a1.7 1.7 0 1 1 3.4 0v2.5h2.5a1.7 1.7 0 1 1 0 3.3h-2.5V22a1.7 1.7 0 0 1-3.4 0v-2.5h-2.4a1.7 1.7 0 0 1 0-3.4h2.4zM57.1 81h8.3a1.7 1.7 0 1 1 0 3.4H57a1.7 1.7 0 0 1 0-3.4z"/>
</svg>