<svg xmlns="http://www.w3.org/2000/svg" viewBox="0 0 96 96">
  <path d="M67.2 81.6V85h-6v-3.4h6zm-12 0V85h-6v-3.4h6zm-12 0V85h-6v-3.4h6zm-12 0V85h-6v-3.4h6zm-16.4 0h4.4V85h-4.4a1.7 1.7 0 0 1-1.7-1.7v-1.6h1.7v-.1zm1.7-5.9h-3.4v-6h3.4v6zm0-12h-3.4v-6h3.4v6zm0-12h-3.4v-6h3.4v6zm0-12h-3.4v-6h3.4v6zm0-12h-3.4v-6h3.4v6zm64.3 53.9A1.7 1.7 0 1 1 81 85h-7.5v-3.3l7.2-.1zM13 13.8a1.7 1.7 0 0 1 3.4-.2V16H13v-2.3zm14.2 41.4v17.6h6.6V55.2h-6.6zM37 49h-3.2V34.2h-6.6V49H24V33a2 2 0 0 1 2-2h9a2 2 0 0 1 2 2v16zm-13 3h13v22a2 2 0 0 1-2 2h-9a2 2 0 0 1-2-2V52zm22.2 18.2v2.6h6.6v-2.6h-6.6zM56 64h-3.2V50.2h-6.6V64H43V49a2 2 0 0 1 2-2h9a2 2 0 0 1 2 2v15zm-13 3h13v7a2 2 0 0 1-2 2h-9a2 2 0 0 1-2-2v-7zm32-19v26a2 2 0 0 1-2 2h-9a2 2 0 0 1-2-2V48h13zm0-3h-3.2v-3.8h-6.6V45H62v-5a2 2 0 0 1 2-2h9a2 2 0 0 1 2 2v5zm-9.8 27.8h6.6V51.2h-6.6v21.6z"/>
</svg>