<svg xmlns="http://www.w3.org/2000/svg" viewBox="0 0 96 96">
    <path d="M15.4 71.61a5.001 5.001 0 0 0 2.395-7.103l6.338-7.685A5.005 5.005 0 0 0 30.46 52c0-.987-.286-1.907-.78-2.682l7.234-9.561a5.001 5.001 0 0 0 6.135-2.77l10.468.77a4.978 4.978 0 0 0 1.046 2.376l-37.414 36.35a5 5 0 1 0 2.39 2.417l38.058-36.974a5 5 0 0 0 5.811-5.646l15.28-14.846a5 5 0 1 0-2.301-2.504l-13.92 13.524 6.125-12.47a5 5 0 1 0-3.043-1.366l-6.586 13.407a4.999 4.999 0 0 0-4.874 2.544l-10.78-.794A5.002 5.002 0 0 0 33.458 35c0 .981.283 1.897.772 2.669l-7.24 9.57a5 5 0 0 0-5.626 7.63l-6.145 7.45A5 5 0 0 0 12 71.784V73h3.4v-1.39zm58.3 7.69h-5v3.4h5v-3.4zm13 1.7a1.7 1.7 0 0 0-1.7-1.7h-5.3v3.4H85a1.7 1.7 0 0 0 1.7-1.7zm-24-1.7h-5v3.4h5v-3.4zm-11 0h-5v3.4h5v-3.4zm-11 0h-5v3.4h5v-3.4zm-11 0h-6v3.4h6v-3.4zM15.4 61v-5H12v5h3.4zm0-11v-5H12v5h3.4zm0-11v-5H12v5h3.4zm0-11v-5H12v5h3.4zm0-11v-4.3a1.7 1.7 0 1 0-3.4 0V17h3.4zm43.06 22a2 2 0 1 1 0-4 2 2 0 0 1 0 4zM69 17a2 2 0 1 1 0-4 2 2 0 0 1 0 4zM38.46 37a2 2 0 1 1 0-4 2 2 0 0 1 0 4zm-13 17a2 2 0 1 1 0-4 2 2 0 0 1 0 4zm-12 15a2 2 0 1 1 0-4 2 2 0 0 1 0 4z"/>
</svg>
