<svg xmlns="http://www.w3.org/2000/svg" viewBox="0 0 96 96">
    <path d="M75.24 40.803l-12.4 6.36a1.72 1.72 0 0 1-.143.093 5 5 0 0 1-6.036 5.909l-8.2 14.72a5 5 0 1 1-2.974-1.543l8.355-14.997a5 5 0 0 1 7.067-6.969l12.917-6.624a5 5 0 1 1 1.415 3.051zM65.97 66.787l8.433-9.044.024-.031a5 5 0 1 1 2.544 2.237l-8.625 9.25a5 5 0 1 1-2.376-2.411zM31.23 38.654l7.615-4.717a5 5 0 0 1 6.874-5.26l7.228-6.187a5 5 0 0 1 9.291-3.506l11.67-1.71a5.002 5.002 0 0 1 9.896 1.022 5 5 0 0 1-9.44 2.301l-11.662 1.708a5.002 5.002 0 0 1-7.848 3.028l-6.612 5.658a5 5 0 0 1-7.835 5.974l-7.574 4.693a1.73 1.73 0 0 1-.064.041 5 5 0 1 1-1.539-3.045zm35.986 42.942v3.4h-6v-3.4h6zm-12 0v3.4h-6v-3.4h6zm-12 0v3.4h-6v-3.4h6zm-12 0v3.4h-6v-3.4h6zm-16.412 0h4.412v3.4h-4.412a1.7 1.7 0 0 1-1.7-1.7v-1.588h1.7v-.112zm1.7-5.888h-3.4v-6h3.4v6zm0-12h-3.4v-6h3.4v6zm0-12h-3.4v-6h3.4v6zm0-12h-3.4v-6h3.4v6zm0-12h-3.4v-6h3.4v6zm64.285 53.89a1.7 1.7 0 1 1 .287 3.387h-7.505V81.65l7.218-.053zm-1.985-61.302a2 2 0 1 0 0-4 2 2 0 0 0 0 4zm-21 30a2 2 0 1 0 0-4 2 2 0 0 0 0 4zm-14-15a2 2 0 1 0 0-4 2 2 0 0 0 0 4zm14-12a2 2 0 1 0 0-4 2 2 0 0 0 0 4zm21 34a2 2 0 1 0 0-4 2 2 0 0 0 0 4zm-51-13a2 2 0 1 0 0-4 2 2 0 0 0 0 4zm17 29a2 2 0 1 0 0-4 2 2 0 0 0 0 4zm19 0a2 2 0 1 0 0-4 2 2 0 0 0 0 4zm15-34a2 2 0 1 0 0-4 2 2 0 0 0 0 4zM13.006 13.844a1.7 1.7 0 0 1 3.388-.287v2.505h-3.335l-.053-2.218z"/>
</svg>
