<svg xmlns="http://www.w3.org/2000/svg" viewBox="0 0 96 96">
    <path d="M39.595 27.966c.033.46-.134.911-.457 1.239l-1.793 1.813c-.343 3.025-2.9 5.382-5.992 5.382H23.6a1.6 1.6 0 0 1-1.137-2.725l1.196-1.21A9.241 9.241 0 0 1 22 27.151V25.84a1.6 1.6 0 0 1 2.495-1.326l.558.377a9.287 9.287 0 0 0 3.594 1.45c.031-2.399 1.98-4.341 4.369-4.341 2.117 0 3.887 1.525 4.286 3.542l1.665 1.263c.367.278.596.701.628 1.16zm-4.948 1.23l.933-.944-.763-.577a1.6 1.6 0 0 1-.632-1.275c0-.662-.525-1.2-1.17-1.2-.643 0-1.168.538-1.168 1.2v1.68a1.6 1.6 0 0 1-1.6 1.6c-1.678 0-3.319-.335-4.845-.978a6.119 6.119 0 0 0 1.551 2.733c.474.479.583 1.182.33 1.765h4.07c1.56 0 2.831-1.292 2.831-2.88 0-.42.166-.825.463-1.125zM34.6 58.6a1.6 1.6 0 0 1-1.6 1.6h-1.6v3.2H33a1.6 1.6 0 1 1 0 3.2h-1.6v4.8a1.6 1.6 0 1 1-3.2 0v-4.8h-1.6a1.6 1.6 0 1 1 0-3.2h1.6v-4.8a1.6 1.6 0 0 1 1.6-1.6H33a1.6 1.6 0 0 1 1.6 1.6zm24.08 11.877v-11.28c0-.586.133-1.025.4-1.318.267-.293.612-.44 1.035-.44.436 0 .79.145 1.06.435.27.29.405.73.405 1.323v11.28c0 .592-.135 1.035-.405 1.328-.27.293-.624.44-1.06.44-.416 0-.76-.149-1.03-.445-.27-.296-.405-.737-.405-1.323zm8.379-7.598v.322c.468-.618.981-1.072 1.538-1.362.556-.29 1.196-.435 1.919-.435.703 0 1.331.153 1.884.46.554.305.967.738 1.24 1.298.176.326.29.677.342 1.055.053.377.079.86.079 1.445v4.961c0 .534-.123.938-.367 1.211-.244.273-.561.41-.952.41-.397 0-.72-.14-.967-.42-.247-.28-.37-.68-.37-1.201V66.18c0-.88-.123-1.551-.367-2.017-.244-.465-.73-.698-1.46-.698-.475 0-.908.141-1.299.425-.39.283-.677.672-.86 1.167-.13.397-.194 1.139-.194 2.226v3.34c0 .54-.126.946-.376 1.216-.251.27-.575.405-.972.405-.384 0-.7-.14-.947-.42-.248-.28-.371-.68-.371-1.201v-7.705c0-.508.11-.887.332-1.138.221-.25.524-.376.908-.376.234 0 .446.056.635.166.188.111.34.277.454.498.114.222.17.492.17.81zM40 51c2.647 0 4.8 2.153 4.8 4.8V75c0 2.647-2.153 4.8-4.8 4.8H20.8A4.805 4.805 0 0 1 16 75V55.8c0-2.647 2.153-4.8 4.8-4.8H40zm1.6 24V55.8c0-.882-.717-1.6-1.6-1.6H20.8c-.883 0-1.6.718-1.6 1.6V75c0 .882.717 1.6 1.6 1.6H40c.883 0 1.6-.718 1.6-1.6zM76 51c2.647 0 4.8 2.153 4.8 4.8V75c0 2.647-2.153 4.8-4.8 4.8H56.8A4.805 4.805 0 0 1 52 75V55.8c0-2.647 2.153-4.8 4.8-4.8H76zm1.6 24V55.8c0-.882-.717-1.6-1.6-1.6H56.8c-.883 0-1.6.718-1.6 1.6V75c0 .882.717 1.6 1.6 1.6H76c.883 0 1.6-.718 1.6-1.6zM40 16c2.647 0 4.8 2.153 4.8 4.8V40c0 2.647-2.153 4.8-4.8 4.8H20.8A4.805 4.805 0 0 1 16 40V20.8c0-2.647 2.153-4.8 4.8-4.8H40zm1.6 24V20.8c0-.882-.717-1.6-1.6-1.6H20.8c-.883 0-1.6.718-1.6 1.6V40c0 .882.717 1.6 1.6 1.6H40c.883 0 1.6-.718 1.6-1.6zM76 16c2.647 0 4.8 2.153 4.8 4.8V40c0 2.647-2.153 4.8-4.8 4.8H56.8A4.805 4.805 0 0 1 52 40V20.8c0-2.647 2.153-4.8 4.8-4.8H76zm1.6 24v-8h-3.362c-.743 3.647-3.975 6.4-7.838 6.4s-7.095-2.753-7.838-6.4H55.2v8c0 .882.717 1.6 1.6 1.6H76c.883 0 1.6-.718 1.6-1.6zm-16-9.6c0 2.647 2.153 4.8 4.8 4.8s4.8-2.153 4.8-4.8-2.153-4.8-4.8-4.8a4.805 4.805 0 0 0-4.8 4.8zm16-1.6v-8c0-.882-.717-1.6-1.6-1.6H56.8c-.883 0-1.6.718-1.6 1.6v8h3.362c.743-3.647 3.975-6.4 7.838-6.4s7.095 2.753 7.838 6.4H77.6z"/>
</svg>
