<svg xmlns="http://www.w3.org/2000/svg" viewBox="0 0 96 96">
    <path d="M56 51.062V43.64a1.598 1.598 0 0 1 3.196 0v7.42h7.402a1.598 1.598 0 1 1 0 3.197h-7.402v6.804a1.598 1.598 0 1 1-3.196 0v-6.804h-7.402a1.598 1.598 0 1 1 0-3.196H56zM40.01 23.16l3.581 2.675H45v3.196h-1.94c-.345 0-.68-.112-.956-.318l-4.017-3 1.924-2.553zm-2.403-1.796l-1.923 2.552-3.642-2.721H30V18h2.573c.345 0 .68.112.956.318l4.078 3.047zM74 78.66h-8v-3.196h8v3.196zm3 0v-3.196h6.412V70.5h3.196v6.562c0 .882-.716 1.598-1.598 1.598H77zm-14 0h-8v-3.196h8v3.196zm-33 0h-8v-3.196h8v3.196zm3 0v-3.196h8v3.196h-8zm-14 0h-7.402A1.598 1.598 0 0 1 10 77.062V70.5h3.196v4.964H19v3.196zm33 0h-8v-3.196h8v3.196zM10 67.5v-8h3.196v8H10zm0-11v-8h3.196v8H10zm0-11v-8h3.196v8H10zm0-19h3.196v8H10v-8zm0-3v-3.902c0-.883.715-1.598 1.598-1.598H16v3.196h-2.804V23.5H10zm76.608 44h-3.196v-8h3.196v8zm0-11h-3.196v-8h3.196v8zm0-11h-3.196v-8h3.196v8zm0-11h-3.196v-5.468H81v-3.196h4.01c.882 0 1.598.715 1.598 1.598V34.5zM78 25.836v3.196h-8v-3.196h8zm-11 0v3.196h-8v-3.196h8zm-11 0v3.196h-8v-3.196h8zM27 18v3.196h-8V18h8z"/>
</svg>
