<svg xmlns="http://www.w3.org/2000/svg" viewBox="0 0 96 96">
    <path d="M15.4 30h66.2V18a.6.6 0 0 0-.6-.6H16a.6.6 0 0 0-.6.6v12zm0 3v45a.6.6 0 0 0 .6.6h65a.6.6 0 0 0 .6-.6V33H15.4zm.6-19h65a4 4 0 0 1 4 4v60a4 4 0 0 1-4 4H16a4 4 0 0 1-4-4V18a4 4 0 0 1 4-4zm13.5 7.5h2a2 2 0 1 1 0 4h-2a2 2 0 1 1 0-4zm-9 0h2a2 2 0 1 1 0 4h-2a2 2 0 1 1 0-4zm16.341 41.141a1.7 1.7 0 0 1-2.287 2.515l-10.698-9.728a1.7 1.7 0 0 1-.027-2.49l10.697-10.17a1.7 1.7 0 1 1 2.343 2.464l-9.373 8.91 9.345 8.499zm24.015 0l9.345-8.499-9.372-8.91a1.7 1.7 0 1 1 2.342-2.464l10.698 10.17a1.7 1.7 0 0 1-.028 2.49l-10.697 9.728a1.7 1.7 0 1 1-2.288-2.515zM53.04 38.36a1.7 1.7 0 1 1 3.15 1.28L43.575 70.664a1.7 1.7 0 1 1-3.15-1.28L53.04 38.36z"/>
</svg>
