<svg xmlns="http://www.w3.org/2000/svg" viewBox="0 0 96 96">
    <path d="M49.077 74.297a1.7 1.7 0 0 1-2.754 0C32.778 55.59 26 42.494 26 34.657 26 22.695 35.716 13 47.7 13s21.7 9.695 21.7 21.657c0 7.837-6.778 20.933-20.323 39.64zM66 34.657C66 24.575 57.808 16.4 47.7 16.4s-18.3 8.175-18.3 18.257c0 6.614 6.097 18.63 18.3 35.73C59.903 53.288 66 41.272 66 34.658zm-19.091 3.038a1.7 1.7 0 0 1 1.582 0l3.417 1.797-.653-3.805a1.7 1.7 0 0 1 .49-1.505l2.763-2.694-3.82-.555a1.7 1.7 0 0 1-1.28-.93L47.7 26.54l-1.708 3.462a1.7 1.7 0 0 1-1.28.93l-3.82.555 2.764 2.694c.4.39.583.954.489 1.505l-.653 3.805 3.417-1.797zm-4.884 6.409c-1.247.656-2.704-.403-2.466-1.792l1.084-6.319-4.591-4.475c-1.01-.983-.452-2.697.942-2.9l6.344-.921 2.838-5.75c.623-1.263 2.425-1.263 3.048 0l2.838 5.75 6.344.921c1.394.203 1.951 1.917.942 2.9l-4.59 4.475 1.083 6.319c.238 1.389-1.22 2.448-2.466 1.792L47.7 41.12l-5.675 2.983zM30.597 62.266a1.7 1.7 0 0 1 .535 3.357C21.46 67.167 15.4 70.021 15.4 72.2c0 3.73 14.564 7.8 32.3 7.8C65.436 80 80 75.93 80 72.2c0-2.081-5.608-4.832-14.72-6.408a1.7 1.7 0 0 1 .58-3.35c10.784 1.865 17.54 5.18 17.54 9.758 0 6.763-15.88 11.2-35.7 11.2S12 78.963 12 72.2c0-4.72 7.214-8.118 18.597-9.934z"/>
</svg>
