<svg xmlns="http://www.w3.org/2000/svg" viewBox="0 0 96 96">
    <path d="M48 83.6c19.661 0 35.6-15.939 35.6-35.6S67.661 12.4 48 12.4 12.4 28.339 12.4 48 28.339 83.6 48 83.6zm0 3.4C26.46 87 9 69.54 9 48S26.46 9 48 9s39 17.46 39 39-17.46 39-39 39zm8.437-36.259l8.782-8.336-12.004-1.582L48 29.895l-5.215 10.928-12.004 1.582 8.782 8.336-2.205 11.906L48 56.872l10.642 5.775-2.205-11.906zM48 60.74l-11.599 6.295a2 2 0 0 1-2.92-2.122l2.403-12.976-9.572-9.086a2 2 0 0 1 1.116-3.433l13.084-1.725 5.683-11.91a2 2 0 0 1 3.61 0l5.683 11.91 13.084 1.725a2 2 0 0 1 1.116 3.433l-9.572 9.086 2.403 12.976a2 2 0 0 1-2.92 2.122L48 60.74z"/>
</svg>
