<svg xmlns="http://www.w3.org/2000/svg" viewBox="0 0 96 96">
    <path d="M62 46.062V38.64a1.598 1.598 0 0 1 3.196 0v7.42h7.402a1.598 1.598 0 1 1 0 3.197h-7.402v6.804a1.598 1.598 0 1 1-3.196 0v-6.804h-7.402a1.598 1.598 0 1 1 0-3.196H62zM43.591 25.836H85.01c.882 0 1.598.715 1.598 1.598v49.628c0 .882-.716 1.598-1.598 1.598H11.598A1.598 1.598 0 0 1 10 77.062V19.598c0-.883.715-1.598 1.598-1.598h20.975c.345 0 .68.112.956.318l10.062 7.518zM13.196 75.464h70.216V29.032H43.06c-.345 0-.68-.112-.956-.318l-10.062-7.518H13.196v54.268zm6.873-8.765h3.011v3.008H20.07v-3.008zm6.588 0h19.012v3.008H26.657v-3.008z"/>
</svg>
