<svg xmlns="http://www.w3.org/2000/svg" viewBox="0 0 96 96">
    <path d="M41.1 17.4v13.2h43.2V17.4H41.1zM39.7 14h46a2 2 0 0 1 2 2v16a2 2 0 0 1-2 2h-46a2 2 0 0 1-2-2V16a2 2 0 0 1 2-2zm6 12.2a1.7 1.7 0 1 1 0-3.4h34a1.7 1.7 0 1 1 0 3.4h-34zm0 48.5a1.7 1.7 0 1 1 0-3.4h34a1.7 1.7 0 1 1 0 3.4h-34zm0-24.5a1.7 1.7 0 1 1 0-3.4h17a1.7 1.7 0 1 1 0 3.4h-17zm22 0a1.7 1.7 0 1 1 0-3.4h11a1.7 1.7 0 1 1 0 3.4h-11zm-26.6-8.8v14.2h43.2V41.4H41.1zM39.7 38h46a2 2 0 0 1 2 2v17a2 2 0 0 1-2 2h-46a2 2 0 0 1-2-2V40a2 2 0 0 1 2-2zm1.4 28.4v12.2h43.2V66.4H41.1zM39.7 63h46a2 2 0 0 1 2 2v15a2 2 0 0 1-2 2h-46a2 2 0 0 1-2-2V65a2 2 0 0 1 2-2zm-8.06 9.583a1.698 1.698 0 0 1 .76 1.424c.002.485-.202.971-.611 1.312l-7.176 5.986a1.7 1.7 0 0 1-2.178-2.61l3.59-2.995H19.7C13.238 75.7 8 70.462 8 64V35c0-6.533 5.301-12.2 11.7-12.2h3a1.7 1.7 0 1 1 0 3.4h-3c-4.468 0-8.3 4.096-8.3 8.8v29a8.3 8.3 0 0 0 8.3 8.3h6.332l-3.604-3.042a1.7 1.7 0 1 1 2.192-2.598l7.02 5.923zM27.7 26.2a1.7 1.7 0 1 1 0-3.4h3a1.7 1.7 0 1 1 0 3.4h-3z"/>
</svg>
