<svg xmlns="http://www.w3.org/2000/svg" viewBox="0 0 96 96">
    <path d="M12.4 34.6h16.2v-9.2H12.4v9.2zM11 22h19a2 2 0 0 1 2 2v12a2 2 0 0 1-2 2H11a2 2 0 0 1-2-2V24a2 2 0 0 1 2-2zm0-8h16a2 2 0 1 1 0 4H11a2 2 0 1 1 0-4zm1.4 39.6h16.2v-9.2H12.4v9.2zM11 41h19a2 2 0 0 1 2 2v12a2 2 0 0 1-2 2H11a2 2 0 0 1-2-2V43a2 2 0 0 1 2-2zm1.4 31.6h16.2v-9.2H12.4v9.2zM11 60h19a2 2 0 0 1 2 2v12a2 2 0 0 1-2 2H11a2 2 0 0 1-2-2V62a2 2 0 0 1 2-2zm29.4-19.4h16.2V25.4H40.4v15.2zM39 22h19a2 2 0 0 1 2 2v18a2 2 0 0 1-2 2H39a2 2 0 0 1-2-2V24a2 2 0 0 1 2-2zm0-8h19a2 2 0 1 1 0 4H39a2 2 0 1 1 0-4zm1.4 45.6h16.2v-9.2H40.4v9.2zM39 47h19a2 2 0 0 1 2 2v12a2 2 0 0 1-2 2H39a2 2 0 0 1-2-2V49a2 2 0 0 1 2-2zm29.4-12.4h16.2v-9.2H68.4v9.2zM67 22h19a2 2 0 0 1 2 2v12a2 2 0 0 1-2 2H67a2 2 0 0 1-2-2V24a2 2 0 0 1 2-2zm0-8h13a2 2 0 1 1 0 4H67a2 2 0 1 1 0-4zm1.4 64.6h16.2v-9.2H68.4v9.2zM67 66h19a2 2 0 0 1 2 2v12a2 2 0 0 1-2 2H67a2 2 0 0 1-2-2V68a2 2 0 0 1 2-2zm1.4-6.4h16.2V44.4H68.4v15.2zM67 41h19a2 2 0 0 1 2 2v18a2 2 0 0 1-2 2H67a2 2 0 0 1-2-2V43a2 2 0 0 1 2-2z"/>
</svg>
