<svg xmlns="http://www.w3.org/2000/svg" width="96" height="96" viewBox="0 0 96 96">
    <path fill="#262D38" fill-rule="evenodd" d="M58 41.7H37.5c-.994 0-1.8.79-1.8 1.729V60.57c0 .94.806 1.729 1.8 1.729h21c.994 0 1.8-.79 1.8-1.729V43.43c0-.94-.806-1.729-1.8-1.729H58zm-17.05-3.4h14.1v-1.729c0-3.784-3.151-6.871-7.05-6.871s-7.05 3.087-7.05 6.871V38.3zm17.55 0c2.856 0 5.2 2.296 5.2 5.129V60.57c0 2.833-2.344 5.129-5.2 5.129h-21c-2.856 0-5.2-2.296-5.2-5.129V43.43c0-2.833 2.344-5.129 5.2-5.129h.05v-1.729C37.55 30.893 42.239 26.3 48 26.3c5.761 0 10.45 4.593 10.45 10.271V38.3h.05zM42.8 52c0-2.833 2.344-5.129 5.2-5.129 2.856 0 5.2 2.296 5.2 5.129 0 2.128-1.327 3.967-3.216 4.74v2.117a1.7 1.7 0 0 1-1.7 1.7h-.453a1.7 1.7 0 0 1-1.7-1.7v-2.072C44.184 56.04 42.8 54.175 42.8 52zm5.349 1.723c.93-.074 1.651-.837 1.651-1.723 0-.939-.806-1.729-1.8-1.729s-1.8.79-1.8 1.729c0 .907.755 1.681 1.71 1.726.041.002.08.006.12.01.04-.006.079-.01.119-.013zm-.336-47.278a1.7 1.7 0 0 1 1.374 0l32.5 14.364a1.7 1.7 0 0 1 1.013 1.555v21.545c0 20.787-14.469 40.05-33.799 44.743a1.7 1.7 0 0 1-.802 0C28.769 83.958 14.3 64.696 14.3 43.909V22.364a1.7 1.7 0 0 1 1.013-1.555l32.5-14.364zM48.5 9.86L17.7 23.47v20.438c0 19.103 13.225 36.853 30.8 41.34 17.575-4.487 30.8-22.237 30.8-41.34V23.471L48.5 9.859z"/>
</svg>
