<svg xmlns="http://www.w3.org/2000/svg" viewBox="0 0 96 96">
    <path d="M59.42 58.467a1.7 1.7 0 0 1-1.176-.473l-1.05-1.006a1.7 1.7 0 0 1-.112-2.336 22.461 22.461 0 0 0 5.451-14.685c0-12.464-10.103-22.567-22.566-22.567C27.503 17.4 17.4 27.503 17.4 39.967c0 12.463 10.103 22.566 22.567 22.566a22.461 22.461 0 0 0 14.685-5.451 1.7 1.7 0 0 1 2.336.113l1.006 1.05a1.7 1.7 0 0 1 .473 1.176v2.24l16.965 16.933 3.162-3.162-16.932-16.965H59.42zm-4.353 2.61a25.838 25.838 0 0 1-15.1 4.856C25.625 65.933 14 54.308 14 39.967 14 25.625 25.625 14 39.967 14c14.341 0 25.966 11.625 25.966 25.967a25.838 25.838 0 0 1-4.856 15.1h1.29a1.7 1.7 0 0 1 1.203.499L82.2 74.232a1.7 1.7 0 0 1-.001 2.403L76.635 82.2a1.7 1.7 0 0 1-2.403.001L55.566 63.57a1.7 1.7 0 0 1-.5-1.203v-1.29zm-15.1-2.61a18.486 18.486 0 0 1-15.697-8.705 1.7 1.7 0 0 1 .051-1.88c3.374-4.796 9.238-7.749 15.646-7.749 6.408 0 12.272 2.953 15.645 7.75a1.7 1.7 0 0 1 .051 1.88 18.486 18.486 0 0 1-15.696 8.704zm0-3.4c4.872 0 9.344-2.325 12.159-6.144-2.81-3.34-7.275-5.39-12.16-5.39-4.884 0-9.35 2.05-12.158 5.39a15.079 15.079 0 0 0 12.159 6.144zm0-33.6a8.233 8.233 0 1 1 0 16.466 8.233 8.233 0 0 1 0-16.466zm0 3.4a4.833 4.833 0 1 0 0 9.666 4.833 4.833 0 0 0 0-9.666z"/>
</svg>
