<svg xmlns="http://www.w3.org/2000/svg" viewBox="0 0 96 96">
    <path d="M66.866 55.686h1.362l7.855 7.874c.386.386.381 1.02-.012 1.414l-1.133 1.132a.996.996 0 0 1-1.414.012l-7.871-7.86V56.9l-.474-.47a11.098 11.098 0 0 1-7.247 2.686c-6.157 0-11.149-4.991-11.149-11.149 0-6.157 4.992-11.148 11.15-11.148 6.157 0 11.149 4.99 11.149 11.148 0 2.77-1.017 5.298-2.69 7.249l.474.47zm-16.652-7.719a7.717 7.717 0 0 0 7.718 7.719 7.718 7.718 0 1 0 0-15.437 7.718 7.718 0 0 0-7.718 7.718zM43.59 25.836H85.01c.882 0 1.598.715 1.598 1.598v49.628c0 .882-.716 1.598-1.598 1.598H11.598A1.598 1.598 0 0 1 10 77.062V19.598c0-.883.715-1.598 1.598-1.598h20.975c.345 0 .68.112.956.318l10.062 7.518zM13.196 75.464h70.216V29.032H43.06c-.345 0-.68-.112-.956-.318l-10.062-7.518H13.196v54.268zm6.873-8.765h3.011v3.008H20.07v-3.008zm6.588 0h12.012v3.008H26.657v-3.008z"/>
</svg>
