<svg xmlns="http://www.w3.org/2000/svg" viewBox="0 0 96 96">
    <path d="M59.42 58.767a1.7 1.7 0 0 1-1.176-.473l-1.05-1.006a1.7 1.7 0 0 1-.112-2.336 22.461 22.461 0 0 0 5.451-14.685c0-12.464-10.103-22.567-22.566-22.567C27.503 17.7 17.4 27.803 17.4 40.267c0 12.463 10.103 22.566 22.567 22.566a22.461 22.461 0 0 0 14.685-5.451 1.7 1.7 0 0 1 2.336.113l1.006 1.05a1.7 1.7 0 0 1 .473 1.176v2.24l16.965 16.933 3.162-3.162-16.932-16.965H59.42zm-4.353 2.61a25.838 25.838 0 0 1-15.1 4.856C25.625 66.233 14 54.608 14 40.267 14 25.925 25.625 14.3 39.967 14.3c14.341 0 25.966 11.625 25.966 25.967a25.838 25.838 0 0 1-4.856 15.1h1.29a1.7 1.7 0 0 1 1.203.499L82.2 74.532a1.7 1.7 0 0 1-.001 2.403L76.635 82.5a1.7 1.7 0 0 1-2.403.001L55.566 63.87a1.7 1.7 0 0 1-.5-1.203v-1.29zM22.74 66.2a5 5 0 1 1-3.182-1.188c.03-.07.063-.137.101-.204l.978-2.192a1.7 1.7 0 0 1 2.94 1.708L22.74 66.2zm24.326-25.635A4.986 4.986 0 0 1 50.7 39c.856 0 1.662.215 2.366.594l3.903-5.504a1.7 1.7 0 1 1 2.91 1.759l-3.926 5.537a1.692 1.692 0 0 1-.664.625 5 5 0 1 1-9.578 1.653l-9.025-3.645a4.992 4.992 0 0 1-4.234 1.975l-4.678 11.413a1.7 1.7 0 1 1-3.126-1.338l4.668-11.388a5 5 0 1 1 8.379-3.9l9.371 3.784zm21.499-16.694l-1.248 1.87a1.7 1.7 0 1 1-2.91-1.76l1.309-1.96a5 5 0 1 1 2.85 1.85zM69.7 21a2 2 0 1 0 0-4 2 2 0 0 0 0 4zm-37 18a2 2 0 1 0 0-4 2 2 0 0 0 0 4zm18 7a2 2 0 1 0 0-4 2 2 0 0 0 0 4zM19.504 72.012a2 2 0 1 0 0-4 2 2 0 0 0 0 4z"/>
</svg>
