<svg xmlns="http://www.w3.org/2000/svg" viewBox="0 0 96 96">
    <path d="M65.207 54.541l4.865-4.273-6.387-.552-2.485-5.914-2.485 5.914-6.387.552 4.865 4.273-1.477 6.405 5.484-3.258 5.484 3.258-1.477-6.405zm2.555 11L61.2 61.644l-6.562 3.899a2 2 0 0 1-2.97-2.17l1.756-7.616-5.804-5.098a2 2 0 0 1 1.148-3.495l7.608-.657 2.98-7.093a2 2 0 0 1 3.688 0l2.98 7.093 7.608.657a2 2 0 0 1 1.148 3.495l-5.804 5.098 1.757 7.617a2 2 0 0 1-2.97 2.169zm-24.17-39.705H85.01c.882 0 1.598.715 1.598 1.598v49.628c0 .882-.716 1.598-1.598 1.598H11.598A1.598 1.598 0 0 1 10 77.062V19.598c0-.883.715-1.598 1.598-1.598h20.975c.345 0 .68.112.956.318l10.062 7.518zM13.195 75.464h70.216V29.032H43.06c-.345 0-.68-.112-.956-.318l-10.062-7.518H13.196v54.268zm6.873-8.765h3.011v3.008H20.07v-3.008zm6.588 0h12.012v3.008H26.657v-3.008z"/>
</svg>
