<svg xmlns="http://www.w3.org/2000/svg" viewBox="0 0 96 96">
    <path d="M83.129 81.718h-9.676l-.086-29.322a1.641 1.641 0 0 0-3.283.007l.086 29.315h-4.768l-.042-6.94a1.641 1.641 0 0 0-3.283.008l.042 6.932h-3.985V65.003c4.646-.41 8.3-4.228 8.3-8.862v-9.902c0-2.528-.537-5.007-1.564-7.296 3.241.217 6.259 1.535 8.58 3.776 2.54 2.452 3.943 5.712 3.95 9.182l.03 7.76a1.641 1.641 0 0 0 1.642 1.635h.005a1.641 1.641 0 0 0 1.637-1.646l-.03-7.757c-.01-4.364-1.769-8.46-4.953-11.535a16.778 16.778 0 0 0-6.335-3.845 8.655 8.655 0 0 0 2.704-6.305c-.01-4.781-3.905-8.663-8.685-8.663h-.02a8.715 8.715 0 0 0-4.004.986 1.64 1.64 0 1 0 1.523 2.907 5.408 5.408 0 0 1 7.903 4.777 5.407 5.407 0 0 1-5.39 5.412c-.072 0-.14.006-.209.015-.087.004-.175.007-.262.012a18.68 18.68 0 0 0-9.493-6.793 9.603 9.603 0 0 0 3.288-7.235c0-5.308-4.32-9.626-9.63-9.626-5.31 0-9.63 4.318-9.63 9.626a9.61 9.61 0 0 0 3.586 7.487 18.662 18.662 0 0 0-8.746 6.531 17.393 17.393 0 0 0-1.146-.014c-.03-.001-.06-.004-.09-.004a5.407 5.407 0 0 1-5.402-5.4 5.407 5.407 0 0 1 7.978-4.749 1.642 1.642 0 0 0 1.568-2.883 8.702 8.702 0 0 0-4.144-1.05c-4.789 0-8.685 3.894-8.685 8.681a8.662 8.662 0 0 0 2.983 6.54c-6.206 2.393-10.606 8.288-10.606 15.163v7.727a1.641 1.641 0 0 0 3.283 0v-7.727c0-6.805 5.435-12.404 12.332-12.97a17.806 17.806 0 0 0-1.556 7.281v9.902c0 4.726 3.799 8.602 8.576 8.882v16.695H32.95V74.78a1.641 1.641 0 0 0-3.283 0v6.937h-4.035V52.416a1.641 1.641 0 0 0-3.283 0v29.302h-9.707a1.641 1.641 0 1 0 0 3.282h70.487a1.641 1.641 0 1 0 0-3.282zM40.774 21.626a6.353 6.353 0 0 1 6.347-6.344c3.5 0 6.346 2.846 6.346 6.344a6.353 6.353 0 0 1-6.346 6.345 6.353 6.353 0 0 1-6.347-6.345zm15.718 23.525c-.906 0-1.641.735-1.641 1.641v34.926h-5.847V69.89a1.641 1.641 0 0 0-3.283 0v11.83h-5.016V46.791a1.641 1.641 0 0 0-3.283 0v14.942c-2.965-.27-5.293-2.675-5.293-5.593v-9.902c0-2.84.826-5.604 2.39-7.993 2.863-4.38 7.768-6.993 13.12-6.993 5.361 0 10.27 2.62 13.133 7.01a14.571 14.571 0 0 1 2.378 7.976v9.902c0 2.827-2.184 5.172-5.016 5.56V46.793c0-.906-.735-1.64-1.642-1.64z"/>
</svg>
