<svg xmlns="http://www.w3.org/2000/svg" viewBox="0 0 96 96">
    <path d="M87.526 14.59c.791.787.775 2.05.016 2.836L76.24 28.172a2.016 2.016 0 0 1-2.854 0l-5.938-5.934a1.99 1.99 0 0 1 0-2.836 2.02 2.02 0 0 1 2.854 0l4.503 4.508 9.868-9.32a2.02 2.02 0 0 1 2.854 0zM56.808 40.73c1.122 0 2.03.901 2.03 2.016a2.021 2.021 0 0 1-2.03 2.016h-46.78A2.021 2.021 0 0 1 8 42.746c0-1.115.907-2.016 2.029-2.016h46.78zm0 7.688c1.122 0 2.03.902 2.03 2.016a2.021 2.021 0 0 1-2.03 2.017h-46.78A2.021 2.021 0 0 1 8 50.434c0-1.114.907-2.016 2.029-2.016h46.78zm-46.78 22.164A2.021 2.021 0 0 1 8 68.566c0-1.115.907-2.017 2.029-2.017h46.78c1.12 0 2.028.902 2.028 2.017a2.021 2.021 0 0 1-2.029 2.016h-46.78zm46.78 7.705h-46.78A2.021 2.021 0 0 1 8 76.27c0-1.114.907-2.016 2.029-2.016h46.78c1.12 0 2.028.902 2.028 2.016a2.021 2.021 0 0 1-2.029 2.017zM8.016 16.893c0-1.114.891-2.016 2.013-2.016h46.796c1.121 0 2.029.902 2.029 2.016a2.021 2.021 0 0 1-2.03 2.017H10.046a2.021 2.021 0 0 1-2.029-2.017zm48.792 5.689c1.122 0 2.03.902 2.03 2.016a2.021 2.021 0 0 1-2.03 2.017h-46.78A2.021 2.021 0 0 1 8 24.598c0-1.114.907-2.016 2.029-2.016h46.78zM71.854 40.99a.6.6 0 0 0-.6.6v10a.6.6 0 0 0 .6.6h10a.6.6 0 0 0 .6-.6v-10a.6.6 0 0 0-.6-.6h-10zm0-3.4h10a4 4 0 0 1 4 4v10a4 4 0 0 1-4 4h-10a4 4 0 0 1-4-4v-10a4 4 0 0 1 4-4zm0 29.4a.6.6 0 0 0-.6.6v10a.6.6 0 0 0 .6.6h10a.6.6 0 0 0 .6-.6v-10a.6.6 0 0 0-.6-.6h-10zm0-3.4h10a4 4 0 0 1 4 4v10a4 4 0 0 1-4 4h-10a4 4 0 0 1-4-4v-10a4 4 0 0 1 4-4z"/>
</svg>
