<svg xmlns="http://www.w3.org/2000/svg" viewBox="0 0 96 96">
    <path d="M43.591 25.836H85.01c.882 0 1.598.715 1.598 1.598v49.628c0 .882-.716 1.598-1.598 1.598H11.598A1.598 1.598 0 0 1 10 77.062V19.598c0-.883.715-1.598 1.598-1.598h20.975c.345 0 .68.112.956.318l10.062 7.518zM13.196 75.464h70.216V29.032H43.06c-.345 0-.68-.112-.956-.318l-10.062-7.518H13.196v54.268zM38 46.6h3.6V43H45v5a2 2 0 0 1-2 2h-5v-3.4zm-3 0V50h-7v-3.4h7zm3-10.2V33h5a2 2 0 0 1 2 2v5h-3.4v-3.6H38zm-3 0h-7V33h7v3.4zM21.4 43v3.6H25V50h-5a2 2 0 0 1-2-2v-5h3.4zm0-3H18v-5a2 2 0 0 1 2-2h5v3.4h-3.6V40zM38 68.6h3.6V65H45v5a2 2 0 0 1-2 2h-5v-3.4zm-3 0V72h-7v-3.4h7zm3-10.2V55h5a2 2 0 0 1 2 2v5h-3.4v-3.6H38zm-3 0h-7V55h7v3.4zM21.4 65v3.6H25V72h-5a2 2 0 0 1-2-2v-5h3.4zm0-3H18v-5a2 2 0 0 1 2-2h5v3.4h-3.6V62zM71 46.6h3.6V43H78v5a2 2 0 0 1-2 2h-5v-3.4zm-3 0V50h-7v-3.4h7zm3-10.2V33h5a2 2 0 0 1 2 2v5h-3.4v-3.6H71zm-3 0h-7V33h7v3.4zM54.4 43v3.6H58V50h-5a2 2 0 0 1-2-2v-5h3.4zm0-3H51v-5a2 2 0 0 1 2-2h5v3.4h-3.6V40z"/>
</svg>
