<svg xmlns="http://www.w3.org/2000/svg" viewBox="0 0 96 96">
    <path d="M85.045 18H11.6c-.885 0-1.6.713-1.6 1.596v57.27c0 .882.715 1.596 1.6 1.596h73.6c.885 0 1.6-.714 1.6-1.597l-.155-57.269c0-.883-.715-1.596-1.6-1.596zM83.6 75.27H13.2V33.961h70.4v41.307zm0-44.5H13.2v-9.578h70.4v9.577zM16 24.845h3.2v3.192H16v-3.192zm7 0h3.2v3.192H23v-3.192zm7 0h3.2v3.192H30v-3.192zm18 13c8.822 0 16 7.16 16 15.962 0 8.8-7.178 15.961-16 15.961s-16-7.16-16-15.961 7.178-15.962 16-15.962zm0 28.73c7.058 0 12.8-5.728 12.8-12.768 0-7.04-5.742-12.77-12.8-12.77-7.058 0-12.8 5.73-12.8 12.77 0 7.04 5.742 12.769 12.8 12.769zM57.115 52.4a1.597 1.597 0 0 1 0 2.858l-12.8 6.384a1.61 1.61 0 0 1-1.555-.07 1.597 1.597 0 0 1-.76-1.358v-12.77a1.6 1.6 0 0 1 2.315-1.428l12.8 6.384zM45.2 57.63l7.622-3.802-7.622-3.802v7.604z"/>
</svg>
