<svg xmlns="http://www.w3.org/2000/svg" viewBox="0 0 24 24">
    <path d="M12 13.857c1.94 0 5.762.942 5.99 2.823.006.058.01.42.01.48-.436.623-2.094 2.615-5.998 2.615-.263 0-.535.025-.816.025-4.414 0-7.986-3.439-7.986-7.68V8.49l3.36 3.43H4.846v.2a5.95 5.95 0 0 0 1.43 3.863c.94-1.417 4.04-2.126 5.724-2.126zm0-1.714A2.572 2.572 0 0 1 12 7a2.565 2.565 0 0 1 2.563 2.571A2.565 2.565 0 0 1 12 12.143zm8.8 1.376L17.468 10.2h1.672V10c0-3.422-2.86-6.2-6.378-6.2-.656 0-1.3.096-1.91.284-.049.015-.266.092-.313.108a1.91 1.91 0 0 1-.564.117c-.31.006-.53-.117-.677-.433-.29-.62.084-1.003.958-1.284a8.165 8.165 0 0 1 2.506-.392c4.442 0 8.038 3.492 8.038 7.8v3.519z"/>
</svg>
