<svg xmlns="http://www.w3.org/2000/svg" viewBox="0 0 24 24">
    <path d="M7.084 15.441c1.33-.926 3.573-1.39 4.916-1.39 1.342 0 3.585.464 4.916 1.39a6 6 0 1 0-9.831 0zM6.755 5.96a7.991 7.991 0 0 1 2.636-1.524l.42-1.678A1 1 0 0 1 10.78 2h2.438a1 1 0 0 1 .97.757l.42 1.678c.978.337 1.87.86 2.636 1.524l1.665-.476a1 1 0 0 1 1.14.461l1.22 2.112a1 1 0 0 1-.171 1.219l-1.244 1.202a8.042 8.042 0 0 1 0 3.045l1.244 1.203a1 1 0 0 1 .171 1.219l-1.22 2.112a1 1 0 0 1-1.14.461l-1.665-.476a7.991 7.991 0 0 1-2.636 1.524l-.42 1.678a1 1 0 0 1-.97.757h-2.438a1 1 0 0 1-.97-.757l-.42-1.678a7.991 7.991 0 0 1-2.636-1.524l-1.664.476a1 1 0 0 1-1.141-.461l-1.22-2.112a1 1 0 0 1 .171-1.219l1.244-1.202a8.042 8.042 0 0 1 0-3.046L2.9 9.275a1 1 0 0 1-.17-1.219l1.218-2.112a1 1 0 0 1 1.141-.461l1.665.476zM12 13.289c-1.42 0-2.571-1.185-2.571-2.645S10.579 8 12 8c1.42 0 2.563 1.185 2.563 2.644 0 1.46-1.143 2.645-2.563 2.645z"/>
</svg>
