<svg xmlns="http://www.w3.org/2000/svg" viewBox="0 0 24 24">
  <path d="M11.9998 5.95778l.6693.11227C14.5594 6.38718 16 8.0346 16 10.0146v6.8284l.1715.1715h-8.343l.17147-.1715v-.8284l.00001-6.0001c0-1.97994 1.44059-3.62735 3.33092-3.94449l.6689-.11223zM13 4.09758V3.01464c0-.55228-.4477-.99999-1-.99999s-1 .44771-1 .99999v1.08294c-2.83773.47608-5.00002 2.94396-5.00002 5.91692l-.00001 6.0001-1.29283 1.2927c-.62998.63-.18382 1.7071.70709 1.7072H18.5857c.8909 0 1.3371-1.0771.7071-1.7071L18 16.0146v-6c0-2.97302-2.1623-5.44091-5-5.91698v-.00004zM12 22c1.1046 0 2-.8954 2-2h-4c0 1.1046.8954 2 2 2z"/>
</svg>