<svg xmlns="http://www.w3.org/2000/svg" viewBox="0 0 24 24">
    <path d="M20 4c1.1 0 2 .9 2 2v12c0 1.1-.9 2-2 2H4c-1.1 0-2-.9-2-2V6c0-1.1.9-2 2-2h16zM6 7a1 1 0 0 0-1 1v2a1 1 0 0 0 1 1h4a1 1 0 0 0 1-1V8a1 1 0 0 0-1-1H6zm0 6a1 1 0 0 0-1 1v2a1 1 0 0 0 1 1h4a1 1 0 0 0 1-1v-2a1 1 0 0 0-1-1H6zm10 1.99l1.685.923a.7.7 0 0 0 .461.076c.395-.07.66-.462.593-.873l-.322-1.955 1.364-1.385a.768.768 0 0 0 .211-.433c.058-.413-.217-.797-.614-.857l-1.884-.285-.843-1.78a.713.713 0 0 0-1.302 0l-.843 1.78-1.884.285a.716.716 0 0 0-.416.22c-.28.3-.274.778.013 1.07l1.364 1.385-.322 1.955a.784.784 0 0 0 .073.48c.187.37.626.511.98.317L16 14.99z"/>
</svg>
