<svg xmlns="http://www.w3.org/2000/svg" viewBox="0 0 24 24">
    <path d="M18.4 5H5.6C4.72 5 4 5.787 4 6.75v10.5c0 .962.72 1.75 1.6 1.75h12.8c.88 0 1.6-.788 1.6-1.75V6.75C20 5.787 19.28 5 18.4 5zm0-2C20.427 3 22 4.72 22 6.75v10.5c0 2.03-1.573 3.75-3.6 3.75H5.6C3.573 21 2 19.28 2 17.25V6.75C2 4.72 3.573 3 5.6 3h12.8zm-11 4.625a1 1 0 0 0-1 1v1.5a1 1 0 0 0 1 1h2.8a1 1 0 0 0 1-1v-1.5a1 1 0 0 0-1-1H7.4zm0 5.25a1 1 0 0 0-1 1v1.5a1 1 0 0 0 1 1h2.8a1 1 0 0 0 1-1v-1.5a1 1 0 0 0-1-1H7.4zm6.4-5.25a1 1 0 0 0-1 1v1.5a1 1 0 0 0 1 1h2.8a1 1 0 0 0 1-1v-1.5a1 1 0 0 0-1-1h-2.8z"/>
</svg>
