<svg xmlns="http://www.w3.org/2000/svg" viewBox="0 0 24 24">
  <path d="M7 11v2h2v-2H7zm6 0h-2v2h2v-2zm2 0v2h2v-2h-2zm-8 4v2h2v-2H7zm6 0h-2v2h2v-2zm6-11h-1V2h-2v2H8V2H6v2H5c-1.11 0-1.99.9-1.99 2L3 20c0 1.1.89 2 2 2h9.2572c-.4782-.579-.8402-1.2576-1.0502-2H5V9h14v4.0224c.7149.0644 1.3904.2657 2 .5773V6c0-1.1-.9-2-2-2zm2.8321 12.5547c.3063-.4595.1821-1.0804-.2774-1.3868-.4595-.3063-1.0804-.1821-1.3868.2774l-2.4136 3.6204L16.6 18.2c-.4418-.3314-1.0686-.2418-1.4.2-.3314.4418-.2418 1.0686.2 1.4l2 1.5c.2199.1649.4979.232.7688.1856.2709-.0464.5108-.2022.6633-.4309l3-4.5z"/>
</svg>