<svg xmlns="http://www.w3.org/2000/svg" viewBox="0 0 24 24">
  <path fill-rule="evenodd" d="M5.93094 11.1867c.29438-1.75788 1.36433-3.39868 3.06902-4.38288 1.93064-1.11463 4.17524-1.10211 5.96464-.18597l-.6734.67664-1.6974 1.70544H18.9858V2.57764l-1.7087 1.71685-.8484.85242c-2.4684-1.52226-5.7105-1.64455-8.42874-.07514C5.76641 6.36131 4.34918 8.5229 3.95841 10.8564c-.09122.5447.2764 1.0602.8211 1.1514.5447.0912 1.06022-.2764 1.15143-.8211zm.0831 3.8132H5.0187l-.00467.9953-.01406 3.0001-.01139 2.4303 1.71849-1.7185.85793-.8579c2.4692 1.5259 5.7144 1.6497 8.435.079 2.2335-1.2896 3.6507-3.4512 4.0415-5.7846.0912-.5447-.2764-1.0602-.8211-1.1514-.5447-.0913-1.0602.2764-1.1514.8211-.2944 1.7578-1.3643 3.3986-3.069 4.3828-1.9314 1.1151-4.177 1.1021-5.96685.1849l.67392-.6739L11.4141 15H8.99998l-2.98594-.0001zM12 14c1.1046 0 2-.8954 2-2s-.8954-2.00002-2-2.00002S9.99999 10.8954 9.99999 12 10.8954 14 12 14z" clip-rule="evenodd"/>
</svg>