<svg xmlns="http://www.w3.org/2000/svg" viewBox="0 0 24 24">
    <path d="M4 15h1a1 1 0 0 1 1 1v5H3v-5a1 1 0 0 1 1-1zm5-4h1a1 1 0 0 1 1 1v9H8v-9a1 1 0 0 1 1-1zm5 2h1a1 1 0 0 1 1 1v7h-3v-7a1 1 0 0 1 1-1zm5-4h1a1 1 0 0 1 1 1v11h-3V10a1 1 0 0 1 1-1zm-6.82-3.376l1.367 1.46-.72.696-1.366-1.461.72-.695zm-.683-.73l-.72.695-.26-.28-.278.255-.693-.717 1.026-.943.925.99zm2.733 2.92l.003.004.496-.483.694.718.474-.458-1.698 1.65-.688-.735.72-.695zm2.65-2.57l.696.72-1.435 1.394-.695-.72 1.435-1.393zm.718-.696l1.565-1.52.697.716-1.567 1.523-.695-.72zm-8.79.975l.694.718L8.03 7.595l-.694-.719L8.81 5.523zm-2.21 2.03l.694.718L5.82 9.625l-.694-.719 1.473-1.353zm-2.21 2.03l.694.719-1.388 1.275-.674-.738 1.368-1.256z"/>
</svg>
