<svg xmlns="http://www.w3.org/2000/svg" viewBox="0 0 24 24">
  <path d="M12 3c-4.97056 0-9 4.0294-9 9s4.02944 9 9 9c4.9706 0 9-4.0294 9-9 .0001-.5092-.043-1.0176-.1289-1.5195C20.6032 10.0066 20 10 20 10h-2V9c0-1-1-1-1-1h-2V7c0-1-1-1-1-1h-1V4c0-1-1-1-1-1zM9.5 6c.8284 0 1.5.6716 1.5 1.5S10.3284 9 9.5 9C8.67157 9 8 8.3284 8 7.5S8.67157 6 9.5 6zm-3 4c.82843 0 1.5.6716 1.5 1.5S7.32843 13 6.5 13 5 12.3284 5 11.5 5.67157 10 6.5 10zm5 1c.8284 0 1.5.6716 1.5 1.5s-.6716 1.5-1.5 1.5-1.5-.6716-1.5-1.5.6716-1.5 1.5-1.5zm5 2c.8284 0 1.5.6716 1.5 1.5s-.6716 1.5-1.5 1.5-1.5-.6716-1.5-1.5.6716-1.5 1.5-1.5zM11 16c.8284 0 1.5.6716 1.5 1.5S11.8284 19 11 19s-1.5-.6716-1.5-1.5.6716-1.5 1.5-1.5z"/>
</svg>