<svg xmlns="http://www.w3.org/2000/svg" viewBox="0 0 16 16">
    <path d="M8.679 3.419c-.664 0-1.203-.524-1.203-1.171s.539-1.17 1.203-1.17S9.88 1.6 9.88 2.247c0 .647-.538 1.17-1.202 1.17zm-2.623 11.23a.612.612 0 0 1-.51-.738l.57-2.567.948-2.878V5.555c-.96-.395-1.641-.85-2.045-1.365-.335-.427-.669-1.116-1.003-2.066a.697.697 0 0 1 .388-.874c.332-.14.714.01.863.337l.845 1.847 1.416.756h2.37l1.238-.716.643-1.86a.58.58 0 0 1 .768-.346c.34.139.53.501.452.86-.152.696-.37 1.297-.65 1.802-.363.652-1.065 1.194-2.106 1.625v2.91l.823 2.848.528 2.436c.08.372-.15.741-.52.831a.708.708 0 0 1-.85-.496l-.696-2.482-.72-1.635h-.291l-.989 1.635-.651 2.501a.74.74 0 0 1-.82.546zm-.994-6.716v-.866h.875v.866h-.875zm7 1v-.866h.876v.866h-.876zm1.984-2.221l-1-1.073.64-.596 1 1.072-.64.597zM2.663 4.044L3.7 5.081l-.619.619-1.037-1.037.619-.619zm1.4 7.423V10h.875v1.467h-.875zM13 10.062h1.467v.876H13v-.876z"/>
</svg>
