<svg xmlns="http://www.w3.org/2000/svg" viewBox="0 0 16 16"><path d="M8.77 9.79l1.35 1.3v3.32a.6.6 0 0 0 .6.59h.1a.6.6 0 0 0 .6-.6v-4.28l-1.36-1.3.39-1.96a4.72 4.72 0 0 0 2.83 1.57c.24.04.72-.01.72-.58s-.52-.7-.76-.75a3.12 3.12 0 0 1-2.02-1.48l-.64-1.04a1.33 1.33 0 0 0-1.1-.65c-.2 0-.32.07-.52.07L5.6 5.43V7.9c0 .32.28.59.6.59h.1a.6.6 0 0 0 .6-.6V6.26l1.16-.45-1.04 5.27-2.58-.53a.6.6 0 0 0-.7.47l-.02.12a.6.6 0 0 0 .47.71l3.93.8.65-2.87zm2.97-7.49c0 .72-.58 1.3-1.3 1.3a1.3 1.3 0 0 1 0-2.6c.72 0 1.3.59 1.3 1.3zm-9 4.83h1.73V8H2.73v-.88zM1 5.38h2.6v.87H1v-.88z"/></svg>