<svg xmlns="http://www.w3.org/2000/svg" viewBox="0 0 24 24">
  <path fill-rule="evenodd" d="M4.00878 3.99881c0-1.10375.88375-2.00125 1.9925-2.00125h7.99742l6.0013 6V20.0001c0 1.1037-.8988 1.9975-2.0025 1.9975H5.99128c-1.10375 0-1.9925-.8938-1.9925-1.9975l.01-16.00129zm14.49242 5l-5.5037-5.5029v5.5029h5.5037zM8 13c-.55228 0-1 .4477-1 1s.44772 1 1 1h8c.5523 0 1-.4477 1-1s-.4477-1-1-1H8zm-1 5c0-.5523.44772-1 1-1h2c.5523 0 1 .4477 1 1s-.4477 1-1 1H8c-.55228 0-1-.4477-1-1zm6-1c-.5523 0-1 .4477-1 1s.4477 1 1 1h1c.5523 0 1-.4477 1-1s-.4477-1-1-1h-1z" clip-rule="evenodd"/>
</svg>