<svg xmlns="http://www.w3.org/2000/svg" viewBox="0 0 24 24">
  <path d="M5 12c0-3.86599 3.13401-7 7-7 1.2767 0 2.4707.34086 3.4993.93587.478.27655 1.0898.11319 1.3663-.36487.2765-.47806.1132-1.08979-.3649-1.36634C15.1759 3.4383 13.6376 3 12 3c-4.97057 0-9 4.02944-9 9 0 4.9705 4.02943 9 9 9 4.9705 0 9-4.0295 9-9 0-.1885-.0058-.3757-.0173-.5616-.034-.5512-.5084-.9705-1.0596-.9365-.5513.034-.9706.5084-.9366 1.0597.009.1448.0135.291.0135.4384 0 3.866-3.134 7-7 7-3.86599 0-7-3.134-7-7zm7.293 3.2307c-.3924.3792-1.0163.3739-1.4022-.0119L7.79306 12.121c-.39047-.3905-.39047-1.0235 0-1.414.39046-.3905 1.02353-.3905 1.414 0l2.37904 2.379 7.7071-7.40672c.3926-.37732 1.0158-.37036 1.4008.01469.3952.39522.3906 1.03847-.0113 1.42692L12.293 15.2307z"/>
</svg>