<svg xmlns="http://www.w3.org/2000/svg" viewBox="0 0 24 24">
    <path d="M15.561 9.937c-1.233.796-3.356 2.18-3.477 2.245-.225.122-.455.18-.811.18-.356 0-.586-.058-.812-.18-.225-.121-6.583-4.265-7.083-4.555C5.026 7.6 4.265 7.6 4.705 7.6h10.228c0 .851.229 1.651.628 2.337zm3.906 2.263v4.95c0 .375-.463.85-.851.85H3.93c-.388 0-.93-.471-.93-.85V8.648c5.533 3.54 3.58 2.301 5.565 3.556L5.87 14.859c-.163.14-.314.514-.086.74a.52.52 0 0 0 .722 0l2.88-2.848c.59.39 1.001.658 1.076.699.305.158.519.179.812.179.293 0 .507-.02.811-.179.072-.04.487-.309 1.077-.699l2.898 2.848c.083.077.427.19.637-.035a.486.486 0 0 0-.03-.705l-2.694-2.656c.654-.434 1.42-.965 2.162-1.485a4.487 4.487 0 0 0 3.333 1.482zm0-2c-1.4 0-2.534-1.164-2.534-2.6 0-1.436 1.135-2.6 2.534-2.6C20.866 5 22 6.164 22 7.6c0 1.436-1.134 2.6-2.533 2.6z"/>
</svg>
