<svg xmlns="http://www.w3.org/2000/svg" viewBox="0 0 24 24">
    <path d="M4 17.333c0 .491.398.89.889.89h3.555a.889.889 0 1 0 0-1.778H4.89a.889.889 0 0 0-.889.888zM4 6.667c0 .49.398.889.889.889H12a.889.889 0 1 0 0-1.778H4.889A.889.889 0 0 0 4 6.667zm8.889 12.444v-.889h6.222a.889.889 0 1 0 0-1.778H12.89v-.888a.889.889 0 1 0-1.778 0v3.555a.889.889 0 1 0 1.778 0zm-5.333-8.889v.89H4.889a.889.889 0 1 0 0 1.778l2.667-.001v.889a.889.889 0 0 0 1.778 0v-3.556a.889.889 0 1 0-1.778 0zM20 12a.889.889 0 0 0-.889-.889H12a.889.889 0 1 0 0 1.778h7.111c.491 0 .889-.398.889-.889zm-4.444-2.667c.49 0 .888-.398.888-.889v-.888h2.667a.889.889 0 1 0 0-1.778h-2.667v-.89a.889.889 0 0 0-1.778 0v3.556c0 .491.399.89.89.89z"/>
</svg>
