<svg xmlns="http://www.w3.org/2000/svg" viewBox="0 0 24 24">
  <path fill="#4285f4" d="M23.3 12.32c0-.92-.07-1.6-.24-2.29H12.52v4.17h6.19a5.49 5.49 0 0 1-2.3 3.64l-.02.14 3.34 2.58.23.02c2.12-1.96 3.34-4.84 3.34-8.26"/>
  <path fill="#34a853" d="M12.52 23.3c3.04 0 5.58-1 7.44-2.72l-3.54-2.74a6.64 6.64 0 0 1-3.9 1.12 6.76 6.76 0 0 1-6.38-4.66H6L2.54 17l-.04.12a11.22 11.22 0 0 0 10.02 6.19"/>
  <path fill="#fbbc05" d="M6.14 14.3a6.91 6.91 0 0 1-.01-4.44l-.01-.15-3.5-2.73-.12.06a11.24 11.24 0 0 0 0 10.07l3.64-2.81"/>
  <path fill="#eb4335" d="M12.52 5.2c2.11 0 3.53.9 4.34 1.66l3.17-3.1A11.22 11.22 0 0 0 2.5 7.04l3.64 2.83a6.78 6.78 0 0 1 6.4-4.67"/>
</svg>