<svg xmlns="http://www.w3.org/2000/svg" viewBox="0 0 24 24">
  <path d="M8.69 11.06h.63c.25333 0 .46333-.0333.63-.1.1667-.0733.31-.1867.43-.34l3.99-5.05c.1667-.21333.34-.36.52-.44.1867-.08667.42-.13.7-.13h2.32l-4.87 6.01c-.2867.3667-.5833.6267-.89.78.22.08.4167.1933.59.34.18.14.35.3267.51.56l5.02 6.77H15.9c-.32 0-.56-.0433-.72-.13-.1533-.0933-.2833-.2267-.39-.4l-4.09-5.34c-.1267-.18-.2733-.3067-.44-.38-.1667-.0733-.40667-.11-.72-.11h-.85v4.36c0 1.1046-.89543 2-2 2H6V5h.69c1.10457 0 2 .89543 2 2v4.06z"/>
</svg>