<svg xmlns="http://www.w3.org/2000/svg" viewBox="0 0 24 24">
  <path d="M15.9995 5.99817h-2.05c-.5247 0-.95.42532-.95.94998 0 .52466.4253.94998.95.94998h2.05c2.264 0 4.1 1.836 4.1 4.10007 0 2.2639-1.836 4.0999-4.1 4.0999h-2.05c-.5247 0-.95.4254-.95.95 0 .5247.4253.9501.95.9501h2.05c3.315 0 6-2.6861 6-6 0-3.31406-2.685-6.00003-6-6.00003zM3.89945 11.9982c0-2.26407 1.83602-4.10007 4.1-4.10007h2.05005c.5247 0 .95-.42532.95-.94998 0-.52466-.4253-.94998-.95-.94998H7.99945c-3.31299 0-6 2.68597-6 6.00003 0 3.3139 2.68701 6 6 6h2.04995c.5247 0 .9501-.4254.9501-.9501 0-.5246-.4254-.95-.9501-.95H7.99945c-2.26398 0-4.1-1.836-4.1-4.0999zm4.1 0c0 .5523.44772 1 1 1h6.00005c.5523 0 1-.4477 1-1s-.4477-1-1-1H8.99945c-.55228 0-1 .4477-1 1z"/>
</svg>