<svg xmlns="http://www.w3.org/2000/svg" viewBox="0 0 24 24">
    <path d="M12.889 15.913c.253.251.412.61.412 1.007 0 .763-.583 1.38-1.301 1.38s-1.3-.617-1.3-1.38c0-.398.158-.756.411-1.007V14.35c0-.525.398-.95.889-.95.49 0 .889.425.889.95v1.563zM7.556 9.6V6.75C7.556 4.127 9.546 2 12 2c2.455 0 4.444 2.127 4.444 4.75V9.6h1.778c.982 0 1.778.85 1.778 1.9v7.6c0 1.05-.796 1.9-1.778 1.9H5.778C4.796 21 4 20.15 4 19.1v-7.6c0-1.045.8-1.9 1.778-1.9h1.778zm1.777 0h5.334V6.75c0-1.574-1.194-2.85-2.667-2.85-1.473 0-2.667 1.276-2.667 2.85V9.6zm-3.555 1.9v7.6h12.444v-7.6H5.778z"/>
</svg>
