<svg xmlns="http://www.w3.org/2000/svg" viewBox="0 0 24 24">
  <path fill-rule="evenodd" clip-rule="evenodd" d="M9.36435 6.08102C9.0172 6.67768 9 7.41524 9 8v3h6V8c0-.58476-.0172-1.32232-.3643-1.91898C14.3517 5.59295 13.7241 5 12 5s-2.35168.59295-2.63565 1.08102zM7 8v3H5c-.55228 0-1 .4477-1 1v8c0 .5523.44772 1 1 1h14c.5523 0 1-.4477 1-1v-8c0-.5523-.4477-1-1-1h-2V7.95942c.0004-.56083.0014-1.78933-.6357-2.88419C15.6483 3.84455 14.2759 3 12 3c-2.27589 0-3.64832.84455-4.36435 2.07523-.63701 1.09486-.63609 2.32336-.63567 2.88419L7 8zm5 6c-.5523 0-1 .4477-1 1v2c0 .5523.4477 1 1 1s1-.4477 1-1v-2c0-.5523-.4477-1-1-1z"/>
</svg>