<svg xmlns="http://www.w3.org/2000/svg" viewBox="0 0 16 16">
    <path d="M10.385 8.695c-.03.1-.057.207-.082.322a1.523 1.523 0 0 0-.038.323c0 .1.02.182.06.248.04.065.105.097.195.097.21 0 .422-.067.638-.203.215-.135.404-.324.57-.57.165-.245.3-.537.405-.877.105-.34.157-.71.157-1.11 0-.6-.105-1.127-.315-1.582a3.37 3.37 0 0 0-.862-1.155 3.682 3.682 0 0 0-1.29-.713 5.165 5.165 0 0 0-1.598-.24c-.64 0-1.222.112-1.747.337a3.941 3.941 0 0 0-1.343.93c-.37.396-.655.865-.855 1.41-.2.546-.3 1.133-.3 1.763 0 .66.11 1.257.33 1.792.22.536.525.995.915 1.38.39.386.857.683 1.403.893.545.21 1.137.315 1.777.315.63 0 1.227-.107 1.793-.322a4.012 4.012 0 0 0 1.432-.908h1.26a5.157 5.157 0 0 1-1.965 1.793c-.8.415-1.67.622-2.61.622-.8 0-1.55-.14-2.25-.42a5.71 5.71 0 0 1-1.838-1.17A5.44 5.44 0 0 1 2.99 9.873a5.491 5.491 0 0 1-.45-2.228 5.495 5.495 0 0 1 1.68-3.99c.52-.5 1.125-.895 1.815-1.185a5.632 5.632 0 0 1 2.205-.435c.68 0 1.335.11 1.965.33a5.39 5.39 0 0 1 1.665.922c.48.396.865.875 1.155 1.44.29.566.435 1.193.435 1.883 0 .77-.137 1.43-.413 1.98-.275.55-.604 1-.99 1.35-.385.35-.774.607-1.17.773-.395.165-.712.247-.952.247-.32 0-.577-.08-.773-.24a.854.854 0 0 1-.322-.615h-.03c-.18.3-.415.52-.705.66s-.595.21-.915.21c-.32 0-.622-.067-.908-.202a2.4 2.4 0 0 1-.75-.556 2.688 2.688 0 0 1-.697-1.807c0-.47.077-.935.232-1.395.156-.46.375-.87.66-1.23.286-.36.63-.65 1.035-.87.406-.22.853-.33 1.343-.33.32 0 .65.077.99.232.34.156.595.428.765.818l.24-.81h1.23l-.945 3.87zm-4.02-.48c0 .4.107.722.322.967.216.246.498.368.848.368.27 0 .517-.07.742-.21.226-.14.42-.317.586-.533.165-.215.292-.457.382-.727.09-.27.135-.535.135-.795 0-.37-.112-.675-.338-.915a1.08 1.08 0 0 0-.817-.36c-.27 0-.52.067-.75.203-.23.135-.427.31-.592.524a2.511 2.511 0 0 0-.518 1.478z"/>
</svg>
