<svg xmlns="http://www.w3.org/2000/svg" viewBox="0 0 24 24">
  <path fill-rule="evenodd" d="M22 11.9998c0-5.52288-4.4772-10.00004-10-10.00004-5.52285 0-10 4.47716-10 10.00004 0 5.5228 4.47715 10 10 10 5.5228 0 10-4.4772 10-10zm-8.1379 3.7562c-.306.323-.7593.5242-1.36.6035l.289-3.4595c.221.0793.425.1643.612.255s.3485.1983.4845.323c.1417.1247.2494.2692.323.4335.0794.1587.119.3457.119.561 0 .527-.1558.9548-.4675 1.2835zm-2.7115-8.17701c.221-.09633.4902-.16433.8075-.204l-.2635 3.15351c-.2153-.085-.4136-.1757-.595-.272-.1813-.102-.34-.2153-.476-.34001-.1303-.13033-.2351-.27484-.3145-.4335-.0736-.16433-.1105-.35417-.1105-.5695 0-.187.0312-.3655.0935-.5355.068-.17.1729-.323.3145-.459.1417-.136.323-.24933.544-.34zm3.0175 3.77401c-.4023-.153-.8075-.2918-1.2155-.4165l.2975-3.51901c.221.051.4222.11617.6035.1955.187.07933.3542.15867.5015.238.1474.07366.2805.13883.3995.1955.119.051.221.0765.306.0765.1134 0 .2097-.02833.289-.085.0794-.05667.1559-.14167.2295-.255l.51-.7735c-.3173-.306-.6941-.58083-1.1305-.8245-.4363-.24933-.9548-.42217-1.5555-.5185l.136-1.666h-.7735c-.1643 0-.2975.05383-.3995.1615-.102.10766-.1586.2295-.17.3655l-.0935 1.071c-.6233.02833-1.1758.14733-1.6575.357-.48164.20966-.88964.476-1.22397.799-.32867.323-.578.69133-.748 1.105-.17.408-.255.82733-.255 1.258 0 .578.09633 1.05971.289 1.44501.19267.3853.44483.7055.7565.9605.31733.2493.6715.4505 1.06247.6035.3967.153.7962.2862 1.1985.3995l-.3145 3.7995c-.3173-.0567-.5921-.1445-.8245-.2635-.2323-.119-.43914-.2352-.62047-.3485-.18133-.119-.34283-.221-.4845-.306-.14167-.0907-.27483-.136-.3995-.136-.10767 0-.20967.0283-.306.085-.09067.051-.16433.119-.221.204l-.646.9605c.408.4023.90383.7395 1.4875 1.0115s1.20697.4533 1.86997.544l-.153 1.819h.7735c.1587 0 .289-.0567.391-.17.1077-.1077.1644-.2267.17-.357l.102-1.2495c.6347-.0397 1.1985-.17 1.6915-.391.493-.2267.9095-.5157 1.2495-.867.34-.357.5979-.765.7735-1.224.1757-.4647.2635-.9605.2635-1.4875 0-.5327-.0991-.9747-.2975-1.326-.1983-.357-.459-.6545-.782-.8925-.3173-.238-.6771-.4307-1.0795-.578z" clip-rule="evenodd"/>
</svg>