<svg xmlns="http://www.w3.org/2000/svg" viewBox="0 0 24 24">
  <path fill="#262D38" fill-opacity=".3" fill-rule="evenodd" d="M4 12c0-4.41828 3.58172-8 8-8 4.4183 0 8 3.58172 8 8 0 4.4183-3.5817 8-8 8-4.41828 0-8-3.5817-8-8zm8-10C6.47715 2 2 6.47715 2 12c0 5.5228 4.47715 10 10 10 5.5228 0 10-4.4772 10-10 0-5.52285-4.4772-10-10-10zm1.193 9.963c-.2567.084-.5577.126-.903.126h-1.407V8.456h1.407c.35 0 .6533.042.91.126.2567.07933.469.196.637.35.168.154.294.34067.378.56.084.21933.126.46433.126.735 0 .2847-.042.5437-.126.777-.084.2287-.2123.4247-.385.588-.168.1587-.3803.2823-.637.371zm.854-4.725C13.5523 7.07933 12.9667 7 12.29 7H9v10.122h1.883v-3.563h1.407c.658 0 1.232-.0817 1.722-.245.4947-.1633.9053-.392 1.232-.686.3267-.294.5717-.644.735-1.05.1633-.4107.245-.861.245-1.351 0-.47133-.0793-.90533-.238-1.302-.154-.39667-.392-.73733-.714-1.022-.322-.28467-.7303-.50633-1.225-.665z" clip-rule="evenodd"/>
</svg>