<svg xmlns="http://www.w3.org/2000/svg" viewBox="0 0 24 24">
    <path d="M9.94 17.8c2.165.183 3.68-.183 4.593-1.039.672-.63 1.122-1.619 1.327-2.985a3 3 0 1 1 1.796.152c-.252 1.805-.874 3.194-1.892 4.147-1.28 1.198-3.166 1.695-5.62 1.544-.06.308-.172.611-.338.899a3.007 3.007 0 0 1-4.11 1.092 3.007 3.007 0 0 1-1.108-4.105 2.975 2.975 0 0 1 1.724-1.359L6.26 7.975a2.995 2.995 0 0 1-.651-.273A3.007 3.007 0 0 1 4.5 3.598a3.007 3.007 0 0 1 4.109-1.092 3.007 3.007 0 0 1 1.11 4.105 2.976 2.976 0 0 1-1.726 1.358l.052 8.172c.222.066.441.15.652.272.21.121.392.269.561.428.267.272.45.493.548.664.042.074.087.172.134.294zM17 12.5a1.5 1.5 0 1 0 0-3 1.5 1.5 0 0 0 0 3zM7.153 6.528a1.5 1.5 0 1 0 0-3 1.5 1.5 0 0 0 0 3z"/>
</svg>
