<svg xmlns="http://www.w3.org/2000/svg" viewBox="0 0 24 24">
    <path d="M4.204 12.725l2.218-2.218a1 1 0 0 1 .51-.273l2.241-.448c3.217-4.376 9.38-6.564 11.605-6.564 0 2.225-2.188 8.388-6.563 11.605l-.449 2.24a1 1 0 0 1-.273.511l-2.218 2.218a.3.3 0 0 1-.506-.153l-.597-2.986c-1.415 0-1.415 0-2.122-.707-.707-.707-.707-.707-.707-2.122l-2.986-.597a.3.3 0 0 1-.153-.506zm3.14 3.932a.892.892 0 0 1-.077 1.329l-2.943 2.336a.502.502 0 0 1-.7-.713l2.377-2.887a.908.908 0 0 1 1.342-.065zM5.62 14.469l.022.007a.542.542 0 0 1 .258.877l-1.485 1.7a.296.296 0 0 1-.519-.195v-.55a1 1 0 0 1 .109-.452l.445-.878a1 1 0 0 1 1.17-.509zm3.895 3.9l.016.058a1 1 0 0 1-.494 1.147l-1.112.594a1 1 0 0 1-.796.063l-.13-.045a.33.33 0 0 1-.108-.561l1.748-1.52a.54.54 0 0 1 .876.264zM14 8.5a1.5 1.5 0 1 0 0 3 1.5 1.5 0 0 0 0-3z"/>
</svg>
