<svg xmlns="http://www.w3.org/2000/svg" viewBox="0 0 24 24"><path d="M6.75 5.96A8 8 0 0 1 9.4 4.43l.42-1.67a1 1 0 0 1 .97-.76h2.44a1 1 0 0 1 .97.76l.42 1.68c.98.33 1.87.86 2.63 1.52l1.67-.48a1 1 0 0 1 1.14.46l1.22 2.12a1 1 0 0 1-.17 1.22l-1.25 1.2a8.04 8.04 0 0 1 0 3.04l1.25 1.2a1 1 0 0 1 .17 1.22l-1.22 2.12a1 1 0 0 1-1.14.46l-1.67-.48a8 8 0 0 1-2.63 1.52l-.42 1.68a1 1 0 0 1-.97.76h-2.44a1 1 0 0 1-.97-.76l-.42-1.67a8 8 0 0 1-2.64-1.53l-1.66.48a1 1 0 0 1-1.14-.46l-1.22-2.12a1 1 0 0 1 .17-1.22l1.24-1.2a8.04 8.04 0 0 1 0-3.04L2.9 9.28a1 1 0 0 1-.17-1.22l1.22-2.12a1 1 0 0 1 1.14-.46l1.66.48zM12 17a5 5 0 1 0 0-10 5 5 0 0 0 0 10z"/></svg>
