<svg xmlns="http://www.w3.org/2000/svg" viewBox="0 0 24 24">
    <path d="M19.405 7.713h.453c.788 0 1.421.64 1.421 1.428L21.286 22l-2.857-2.857h-10A1.43 1.43 0 0 1 7 17.712v-.158h10.161c1.239 0 2.244-1.053 2.244-2.351v-7.49zm-17 10.309L2.414 4.6c0-.662.53-1.195 1.187-1.195h12.8c.66 0 1.195.535 1.195 1.195v9.6c0 .66-.535 1.195-1.195 1.195H5.032l-2.626 2.627zm9.59-8.622a1.205 1.205 0 0 0 2.41 0 1.205 1.205 0 0 0-2.41 0zm-3.2 0a1.205 1.205 0 0 0 2.41 0 1.205 1.205 0 0 0-2.41 0zm-3.2 0a1.205 1.205 0 0 0 2.41 0 1.205 1.205 0 0 0-2.41 0z"/>
</svg>
