<svg xmlns="http://www.w3.org/2000/svg" viewBox="0 0 24 24">
    <path d="M5.077 2.77h13.846c1.274 0 2.308.98 2.308 2.192v13.153c0 1.21-1.034 2.193-2.308 2.193H5.077c-1.274 0-2.308-.982-2.308-2.193V4.962c0-1.21 1.034-2.193 2.308-2.193zm0 3.288v9.865c0 .606.516 1.096 1.154 1.096h3.461c.638 0 1.154-.49 1.154-1.096V6.058c0-.606-.516-1.096-1.154-1.096H6.231c-.638 0-1.154.49-1.154 1.096zm8.077 0v5.48c0 .606.516 1.097 1.154 1.097h3.461c.638 0 1.154-.49 1.154-1.097v-5.48c0-.606-.516-1.096-1.154-1.096h-3.461c-.638 0-1.154.49-1.154 1.096z"/>
</svg>
