<svg xmlns="http://www.w3.org/2000/svg" viewBox="0 0 24 24">
    <path d="M21.508 6.776c-.7.3-1.451.504-2.24.596a3.82 3.82 0 0 0 1.715-2.095 7.955 7.955 0 0 1-2.478.919A3.952 3.952 0 0 0 15.658 5c-2.155 0-3.902 1.695-3.902 3.787 0 .296.035.585.101.863a11.19 11.19 0 0 1-8.041-3.957 3.684 3.684 0 0 0-.529 1.904c0 1.314.689 2.473 1.736 3.152a3.977 3.977 0 0 1-1.767-.474v.048c0 1.834 1.344 3.365 3.13 3.713a4.017 4.017 0 0 1-1.763.065c.497 1.504 1.937 2.599 3.645 2.63a7.98 7.98 0 0 1-4.846 1.62 8.16 8.16 0 0 1-.93-.052A11.287 11.287 0 0 0 8.472 20c7.177 0 11.1-5.77 11.1-10.774 0-.164-.003-.328-.01-.49a7.801 7.801 0 0 0 1.946-1.96z"/>
</svg>
