<svg xmlns="http://www.w3.org/2000/svg" viewBox="0 0 24 24">
    <path d="M19.778 4.222v5.657h-5.657l2.122-2.122A6.005 6.005 0 0 0 6.68 9.222c-.17.326-.504 1.367-1.455 1.01-.95-.357-.658-1.252-.361-1.843.37-.737.862-1.43 1.478-2.046a7.998 7.998 0 0 1 11.314 0l2.121-2.121zm-3.535 12.02c.489-.489.879-1.044 1.162-1.637.13-.272.674-1.226 1.51-.841.835.385.59 1.04.368 1.537a7.907 7.907 0 0 1-1.626 2.356 7.998 7.998 0 0 1-11.314 0l-2.121 2.121v-5.657h5.657l-2.122 2.122a6.005 6.005 0 0 0 8.486 0z"/>
</svg>
