<svg xmlns="http://www.w3.org/2000/svg" viewBox="0 0 24 24">
    <path d="M20 3.9a.9.9 0 0 1-.9.9h-.975v3.504c0 .3-.122.586-.338.793l-2.197 2.11a1.1 1.1 0 0 0 0 1.587l2.197 2.109a1.1 1.1 0 0 1 .338.793V19.2h.975a.9.9 0 1 1 0 1.8H5.9a.9.9 0 1 1 0-1.8h.975v-3.504c0-.3.122-.586.338-.793l2.197-2.11a1.1 1.1 0 0 0 0-1.587L7.213 9.097a1.1 1.1 0 0 1-.338-.793V4.8H5.9a.9.9 0 0 1 0-1.8h13.2a.9.9 0 0 1 .9.9zm-4.088 11.748l-2.136-2.05a1.1 1.1 0 0 1-.338-.794v-1.608c0-.3.122-.586.338-.793l2.136-2.051a1.1 1.1 0 0 0 .338-.794V4.8h-7.5v2.758c0 .3.122.586.338.794l2.136 2.05a1.1 1.1 0 0 1 .338.794v1.608c0 .3-.122.586-.338.793l-2.136 2.051a1.1 1.1 0 0 0-.338.794v.058h1.875l1.113-1.069a1.1 1.1 0 0 1 1.524 0l1.113 1.069h1.875v-.058a1.1 1.1 0 0 0-.338-.794zm-4.174-7.08l-.175-.168a.523.523 0 0 1 .362-.9h1.15a.523.523 0 0 1 .363.9l-.176.169a1.1 1.1 0 0 1-1.524 0z"/>
</svg>
