<svg xmlns="http://www.w3.org/2000/svg" viewBox="0 0 16 16">
  <path fill-rule="evenodd" d="M4 7c-.55228 0-1 .44772-1 1v4c0 .5523.44772 1 1 1h8c.5523 0 1-.4477 1-1V8.00003c0-.5523-.4477-1.00002-1-1l-1.0057.00002c-.8271.00003-1.1924-1.04145-.5466-1.5581.3222-.25771.4205-.70544.236-1.07444l-.4073-.8147C10.107 3.21401 9.76073 3 9.38195 3h-2.7639c-.37878 0-.72505.21401-.89444.55281l-.40732.8147c-.18449.36899-.08614.81672.23601 1.07442C6.19811 5.95855 5.83281 7 5.00579 7H4zm4-1.00002c.55228 0 1-.44772 1-1 0-.55229-.44772-1-1-1s-1 .44771-1 1c0 .55228.44772 1 1 1z" clip-rule="evenodd"/>
</svg>