<svg xmlns="http://www.w3.org/2000/svg" viewBox="0 0 24 24">
    <path d="M10.235 14.263V8.856l4.927 2.713-4.927 2.694zm10.82-6.344s-.18-1.325-.726-1.91c-.693-.766-1.47-.77-1.827-.814C15.95 5 12.122 5 12.122 5h-.008s-3.828 0-6.38.195c-.356.044-1.133.048-1.827.815-.547.584-.725 1.91-.725 1.91S3 9.476 3 11.033v1.46c0 1.557.182 3.114.182 3.114s.178 1.326.725 1.91c.694.766 1.605.742 2.01.822 1.46.148 6.201.194 6.201.194s3.832-.006 6.384-.2c.356-.046 1.134-.05 1.827-.816.547-.584.725-1.91.725-1.91s.183-1.557.183-3.114v-1.46c0-1.557-.183-3.115-.183-3.115z"/>
</svg>
