<svg viewBox="0 0 96 96" xmlns="http://www.w3.org/2000/svg"><path d="M16 48c0-17.673 14.327-32 32-32 17.673 0 32 14.327 32 32 0 17.673-14.327 32-32 32-17.673 0-32-14.327-32-32zm32-36c-19.882 0-36 16.118-36 36s16.118 36 36 36 36-16.118 36-36-16.118-36-36-36zM35.611 49.857l7.919-19.796 2.169 36.873c.194 3.297 4.796 3.906 5.84.772l5.831-17.493.012.023A5 5 0 0061.854 53H72a2 2 0 100-4H61.854a1 1 0 01-.894-.553l-1.092-2.182c-1.195-2.39-4.684-2.143-5.529.393l-4.952 14.857-2.127-36.16c-.189-3.2-4.59-3.915-5.78-.939l-9.583 23.955a1 1 0 01-.928.629H24a2 2 0 100 4h6.969a5 5 0 004.642-3.143z"/></svg>