<svg viewBox="0 0 96 96" xmlns="http://www.w3.org/2000/svg"><path fill-rule="evenodd" d="M18 24c.917 0 1.787-.206 2.564-.574l12.434 12.537.434 12.613a6 6 0 108.415 4.072l4.215-3.513 26.38 26.6a6 6 0 102.665-2.993l-2.731-2.754a6 6 0 00-.164-11.984l-2.082-5.651a6 6 0 10-8.9-7.992L56.96 42.7a6 6 0 10-11.947-.302l-8.072-8.14-.373-10.834a6 6 0 10-3.989.407l.216 6.247-9.39-9.469A6 6 0 1018 24zm48.467 29.982a6 6 0 01-6.465-5.807L55.184 46.3a5.98 5.98 0 01-4.631 1.683l15.462 15.59a5.992 5.992 0 012.377-4.368l-1.925-5.224zm-23.233-7.697l-6.09-6.141.277 8.025a5.977 5.977 0 012.25 1.085l3.563-2.97zM16 33v-6h4v6h-4zm0 12v-6h4v6h-4zm0 12v-6h4v6h-4zm0 12v-6h4v6h-4zm0 9v-3h4v1h1v4h-3a2 2 0 01-2-2zm17 2h-6v-4h6v4zm12 0h-6v-4h6v4zm12 0h-6v-4h6v4zm12 0h-6v-4h6v4zM32 18a2 2 0 114 0 2 2 0 01-4 0zm2 36a2 2 0 114 0 2 2 0 01-4 0zm17-14a2 2 0 100 4 2 2 0 000-4zm13 8a2 2 0 114 0 2 2 0 01-4 0zm8 14a2 2 0 100 4 2 2 0 000-4z"/></svg>