<svg viewBox="0 0 96 96" xmlns="http://www.w3.org/2000/svg"><path fill-rule="evenodd" d="M84 18a6 6 0 01-8.587 5.415L61.415 37.413a6 6 0 01-8.002 8.002L23.415 75.413a6 6 0 11-2.828-2.829l29.998-29.997a5.964 5.964 0 01-.562-2.053l-6.67-1.82a6 6 0 01-6.472 3.182l-3.291 7.24a6 6 0 11-3.47-2.031l3.29-7.24a6 6 0 1110.45-5.157l7.156 1.95a5.999 5.999 0 014.243-2.613l1.565-10.954a6 6 0 113.917.863l-1.413 9.89 13.257-13.257A6 6 0 1184 18zm-68-4v3.2h4V14a2 2 0 10-4 0zm0 9.6V30h4v-6.4h-4zm0 12.8v6.4h4v-6.4h-4zm0 12.8v6.4h4v-6.4h-4zM16 62v6.4h4V62h-4zm11.6 18H34v-4h-6.4v4zm12.8 0h6.4v-4h-6.4v4zm12.8 0h6.4v-4h-6.4v4zM66 80h6.4v-4H66v4zm12.8 0H82a2 2 0 100-4h-3.2v4zM60 16a2 2 0 100 4 2 2 0 000-4zM36 36a2 2 0 114 0 2 2 0 01-4 0zm-9 17a2 2 0 114 0 2 2 0 01-4 0zm27-13a2 2 0 114 0 2 2 0 01-4 0z"/></svg>