<svg viewBox="0 0 96 96" xmlns="http://www.w3.org/2000/svg"><path fill-rule="evenodd" d="M18 12a2 2 0 00-2 2v3.2h4V14a2 2 0 00-2-2zm-2 11.6V30h4v-6.4h-4zm0 12.8v6.4h4v-6.4h-4zm0 12.8v6.4h4v-6.4h-4zM16 62v6.4h4V62h-4zm0 12.8V78a2 2 0 002 2h3.2v-4H20v-1.2h-4zM27.6 80H34v-4h-6.4v4zm12.8 0h6.4v-4h-6.4v4zm12.8 0h6.4v-4h-6.4v4zM66 80h6.4v-4H66v4zm12.8 0H82a2 2 0 100-4h-3.2v4zM74 20a2 2 0 100 4 2 2 0 000-4zm-5.456-.5a6.001 6.001 0 11-.355 4h-2.378a6.003 6.003 0 01-9.156 3.482l-5.917 5.26a6 6 0 01-9.336 6.56l-5.584 3.723a6 6 0 11-2.22-3.328l5.584-3.722a6 6 0 019.162-6.457l5.918-5.26A6 6 0 0165.456 19.5h3.088zM43 34a2 2 0 114 0 2 2 0 01-4 0zM28 44a2 2 0 114 0 2 2 0 01-4 0zm30-22a2 2 0 114 0 2 2 0 01-4 0zM44 64a2 2 0 100 4 2 2 0 000-4zm-6 2a6 6 0 018.28-5.552l8.455-10.568a6 6 0 019.938-6.643L68 41.989a6 6 0 111.327 3.775L66 47.01a6 6 0 01-8.28 5.54l-8.455 10.57A6 6 0 1138 66zm20-19a2 2 0 114 0 2 2 0 01-4 0zm16-7a2 2 0 100 4 2 2 0 000-4zM58 66a2 2 0 114 0 2 2 0 01-4 0zm2-6a6 6 0 105.924 5.04l3.403-1.277A6 6 0 1068 59.989l-4.03 1.513A5.978 5.978 0 0060 60zm14-2a2 2 0 100 4 2 2 0 000-4z"/></svg>