<svg viewBox="0 0 96 96" xmlns="http://www.w3.org/2000/svg"><path d="M16 14a2 2 0 114 0v3.2h-4V14zm0 16v-6.4h4V30h-4zm0 12.8v-6.4h4v6.4h-4zm0 12.8v-6.4h4v6.4h-4zm0 12.8V62h4v6.4h-4zm0 9.6v-3.2h4V76h1.2v4H18a2 2 0 01-2-2zm18 2h-6.4v-4H34v4zm12.8 0h-6.4v-4h6.4v4zm12.8 0h-6.4v-4h6.4v4zm12.8 0H66v-4h6.4v4zm9.6 0h-3.2v-4H82a2 2 0 110 4zM24 47h16v22a3 3 0 01-3 3H27a3 3 0 01-3-3V47zm4 4v17h8V51h-8zm-1-29a3 3 0 00-3 3v18h4V26h8v17h4V25a3 3 0 00-3-3H27zm17 18a3 3 0 013-3h10a3 3 0 013 3v14h-4V41h-8v13h-4V40zm23-13a3 3 0 00-3 3v9h4v-8h8v8h4v-9a3 3 0 00-3-3H67zM44 58h16v11a3 3 0 01-3 3H47a3 3 0 01-3-3V58zm4 4v6h8v-6h-8zm18-19h-2v26a3 3 0 003 3h10a3 3 0 003-3V43H66zm2 25V47h8v21h-8z"/></svg>