<svg viewBox="0 0 96 96" xmlns="http://www.w3.org/2000/svg"><path fill-rule="evenodd" d="M36 12a2 2 0 012 2v2h2a2 2 0 110 4h-2v2a2 2 0 11-4 0v-2h-2a2 2 0 110-4h2v-2a2 2 0 012-2zm0 21a2 2 0 100 4 2 2 0 000-4zm-6 2a6 6 0 0111.999-.108l4.267 1.422a6 6 0 119.342 7.53L58.503 50h3.663v4h-1.78l1.463 3.11A6.03 6.03 0 0163 57c1.446 0 2.772.511 3.808 1.363l3.777-3.776A5.983 5.983 0 0170.34 54h-2.508v-4h2.508a6.003 6.003 0 0111.318 0H82a2 2 0 110 4h-.341a6.003 6.003 0 01-8.246 3.415l-4.51 4.51a6 6 0 11-10.511-2.768L52.15 45.89A6 6 0 0145 40.108l-4.267-1.422A5.99 5.99 0 0136 41a5.978 5.978 0 01-2.478-.534l-8.16 8.84c.113.224.212.455.297.694h2.508v4h-2.508a6.003 6.003 0 01-11.318 0H14a2 2 0 110-4h.341a6.003 6.003 0 018.137-3.466l8.16-8.84A5.976 5.976 0 0130 35zM18 52a2 2 0 114 0 2 2 0 01-4 0zm15.833 2H39.5v-4h-5.667v4zm11.334 0h5.666v-4h-5.666v4zM49 40a2 2 0 114 0 2 2 0 01-4 0zm14 21a2 2 0 100 4 2 2 0 000-4zm11-9a2 2 0 114 0 2 2 0 01-4 0zM59 74a2 2 0 100 4h8a2 2 0 100-4h-8z"/></svg>