<svg viewBox="0 0 96 96" xmlns="http://www.w3.org/2000/svg"><path d="M12 20a2 2 0 012-2h2.625v4H16v.8h-4V20zm9.875-2h5.25v4h-5.25v-4zm10.5 0H35a2 2 0 011.2.4l2 1.5-2.4 3.2-1.467-1.1h-1.958v-4zm11.292 6L42.2 22.9l-2.4 3.2 2 1.5a2 2 0 001.2.4h3.25v-4h-2.583zm9.083 0h6.5v4h-6.5v-4zm13 0h6.5v4h-6.5v-4zm13 0H82a2 2 0 012 2v3.125h-4V28h-1.25v-4zM12 34v-5.6h4V34h-4zm72 1.375v6.25h-4v-6.25h4zM12 45.2v-5.6h4v5.6h-4zm72 2.675v6.25h-4v-6.25h4zM12 56.4v-5.6h4v5.6h-4zm72 3.975v6.25h-4v-6.25h4zM12 67.6V62h4v5.6h-4zm72 5.275V76a2 2 0 01-2 2h-2.833v-4H80v-1.125h4zM12 76v-2.8h4v.8h.833v4H14a2 2 0 01-2-2zm16.167 2H22.5v-4h5.667v4zM39.5 78h-5.667v-4H39.5v4zm11.333 0h-5.666v-4h5.666v4zm11.334 0H56.5v-4h5.667v4zM73.5 78h-5.667v-4H73.5v4z"/></svg>