<svg viewBox="0 0 96 96" xmlns="http://www.w3.org/2000/svg"><path fill-rule="evenodd" d="M16 20a1 1 0 011-1h49.661a1 1 0 011 1v17.132H41.132a5 5 0 00-5 5v16.936H25.581a5 5 0 00-4.54 2.904l-3.133 6.788c-.45.974-1.908.653-1.908-.419V20zm20.132 43.068H25.581a1 1 0 00-.909.58l-3.132 6.788C19.293 75.304 12 73.702 12 68.341V20a5 5 0 015-5h49.661a5 5 0 015 5v17.132h7.573a5 5 0 015 5v34.843c0 5.361-7.293 6.963-9.54 2.095l-1.126-2.44a1 1 0 00-.908-.581H41.132a5 5 0 01-5-5v-7.981zm44.102-20.936a1 1 0 00-1-1H41.132a1 1 0 00-1 1V71.05a1 1 0 001 1H72.66a5 5 0 014.54 2.904l1.126 2.44c.45.974 1.908.654 1.908-.418V42.132z"/></svg>