<svg viewBox="0 0 96 96" xmlns="http://www.w3.org/2000/svg"><path d="M45 22c-12.703 0-23 10.297-23 23s10.297 23 23 23 23-10.297 23-23-10.297-23-23-23zM18 45c0-14.912 12.088-27 27-27s27 12.088 27 27a26.876 26.876 0 01-4.859 15.456c.44.188.86.441 1.244.761l13.372 11.144a5 5 0 01.334 7.376l-2.354 2.354a5 5 0 01-7.376-.334L61.217 68.385a4.997 4.997 0 01-.76-1.244A26.876 26.876 0 0145 72c-14.912 0-27-12.088-27-27zm46.351 19.477a1 1 0 00-.06 1.347l11.142 13.372a1 1 0 001.476.067l2.354-2.354a1 1 0 00-.067-1.476L65.824 64.29a1 1 0 00-1.347.061l-.126.126zM45 33a3 3 0 100 6 3 3 0 000-6zm-7 3a7 7 0 1114 0 7 7 0 01-14 0zm-1.963 16.544l4.428-2.583a9 9 0 019.07 0l4.428 2.583c.759.442.62 1.578-.224 1.824l-.619.18a29 29 0 01-16.24 0l-.62-.18c-.842-.246-.982-1.382-.223-1.824zm15.513-6.038a13 13 0 00-13.1 0l-4.429 2.583c-3.793 2.212-3.096 7.89 1.12 9.119l.619.18a33 33 0 0018.48 0l.62-.18c4.215-1.23 4.912-6.907 1.119-9.12l-4.429-2.582z"/></svg>