<svg viewBox="0 0 96 96" xmlns="http://www.w3.org/2000/svg"><path d="M12 22a4 4 0 014-4h18.333a4 4 0 012.4.8l6.934 5.2H80a4 4 0 014 4v46a4 4 0 01-4 4H16a4 4 0 01-4-4V22zm22.333 0H16v52h64V28H43.667a4 4 0 01-2.4-.8L34.333 22zM21 68a2 2 0 012-2h14a2 2 0 110 4H23a2 2 0 01-2-2zm27.393-14.293a8 8 0 1111.314-11.314 8 8 0 01-11.314 11.314zm-2.828-14.142c-4.686 4.686-4.686 12.284 0 16.97 4.204 4.205 10.753 4.637 15.439 1.297l6.582 6.582a2 2 0 102.828-2.828l-6.582-6.582c3.34-4.686 2.908-11.235-1.297-15.439-4.686-4.686-12.284-4.686-16.97 0z"/></svg>