<svg viewBox="0 0 96 96" xmlns="http://www.w3.org/2000/svg"><path fill-rule="evenodd" d="M76 18a2 2 0 114 0 2 2 0 01-4 0zm2-6a6 6 0 00-4.995 9.326L70.4 24.8a2 2 0 103.2 2.4l2.605-3.473A6 6 0 1078 12zM22 45c0-12.703 10.297-23 23-23s23 10.297 23 23-10.297 23-23 23-23-10.297-23-23zm23-27c-14.912 0-27 12.088-27 27s12.088 27 27 27a26.876 26.876 0 0015.456-4.859c.188.44.441.86.761 1.244l11.144 13.372a5 5 0 007.376.334l2.354-2.354a5 5 0 00-.334-7.376L68.385 61.217a4.998 4.998 0 00-1.244-.76A26.876 26.876 0 0072 45c0-14.912-12.088-27-27-27zm19.29 47.824a1 1 0 01.061-1.347l.126-.126a1 1 0 011.347-.06l13.372 11.142a1 1 0 01.067 1.476l-2.354 2.354a1 1 0 01-1.476-.067L64.29 65.824zM31.681 46.165a6 6 0 1110.13-2.669l8.484 5.784a5.974 5.974 0 014.579-1.217l5.95-9.153a2 2 0 013.353 2.18l-5.755 8.854A6 6 0 1148.15 52.66l-8.571-5.843a5.974 5.974 0 01-4.321 1.139l-2.97 5.94a2 2 0 01-3.578-1.79l2.97-5.94zm-7.392 23.73a2 2 0 00-3.578-1.79l-1.97 3.94a6 6 0 103.577 1.79l1.97-3.94zM18 76a2 2 0 100 4 2 2 0 000-4zm34-22a2 2 0 114 0 2 2 0 01-4 0zM34 42a2 2 0 114 0 2 2 0 01-4 0z"/></svg>