<svg viewBox="0 0 96 96" xmlns="http://www.w3.org/2000/svg"><path fill-rule="evenodd" d="M16 18a4 4 0 00-4 4v40a4 4 0 004 4h22.1c-.066.323-.1.657-.1 1v12c0 .343.034.677.1 1H32a2 2 0 100 4h32a2 2 0 100-4h-6.1c.066-.323.1-.657.1-1V67c0-.343-.034-.677-.1-1H80a4 4 0 004-4V22a4 4 0 00-4-4H16zm38 61a1 1 0 01-1 1H43a1 1 0 01-1-1V67a1 1 0 011-1h10a1 1 0 011 1v12zm-1-17h27V22H16v40h37zM36 42c0-6.627 5.373-12 12-12s12 5.373 12 12-5.373 12-12 12-12-5.373-12-12zm12-16c-8.837 0-16 7.163-16 16s7.163 16 16 16 16-7.163 16-16-7.163-16-16-16zm-6 12a2 2 0 012 2v2a4 4 0 008 0v-2a2 2 0 114 0v2a8 8 0 11-16 0v-2a2 2 0 012-2zm8-2a2 2 0 10-4 0v6a2 2 0 104 0v-6z"/></svg>