<svg viewBox="0 0 96 96" xmlns="http://www.w3.org/2000/svg"><path d="M16 48c0-17.673 14.327-32 32-32 17.673 0 32 14.327 32 32 0 17.673-14.327 32-32 32-17.673 0-32-14.327-32-32zm32-36c-19.882 0-36 16.118-36 36s16.118 36 36 36 36-16.118 36-36-16.118-36-36-36zm2.373 17.298a2 2 0 00-3.746 0l-4.286 11.43H31a2 2 0 00-1.414 3.413l8.745 8.745-2.908 11.629a2 2 0 003.097 2.117l9.98-7.072 9.98 7.072a2 2 0 003.097-2.117L58.67 52.886l8.744-8.745A2 2 0 0066 40.727H54.659l-4.286-11.43zM45.6 43.429l2.9-7.733 2.9 7.733a2 2 0 001.873 1.298h7.899L55.04 50.86a2 2 0 00-.526 1.899l1.872 7.488-6.73-4.769a2 2 0 00-2.312 0l-6.73 4.769 1.872-7.488a2 2 0 00-.526-1.9l-6.132-6.13h7.9a2 2 0 001.872-1.299z"/></svg>