<svg viewBox="0 0 96 96" xmlns="http://www.w3.org/2000/svg"><path fill-rule="evenodd" d="M46.424 12a4 4 0 013.152 0l26 11.142A4 4 0 0178 26.82v17.09c0 8.458-3.363 17.278-8.578 24.51-5.212 7.225-12.426 13.071-20.354 15.36a3.845 3.845 0 01-2.136 0c-7.928-2.289-15.142-8.135-20.354-15.36C21.363 61.186 18 52.366 18 43.908V26.82a4 4 0 012.424-3.677l26-11.143zM48 15.675L22 26.819v17.09c0 7.45 2.99 15.47 7.822 22.17 4.826 6.69 11.34 11.857 18.178 13.845 6.839-1.988 13.352-7.155 18.178-13.846C71.01 59.378 74 51.358 74 43.91V26.82L48 15.676zm-5.322 24.461h-2.035c-.772 0-1.643.724-1.643 1.905v13.053c0 1.181.871 1.905 1.643 1.905h14.714c.772 0 1.643-.724 1.643-1.905V42.042c0-1.181-.871-1.905-1.643-1.905H42.678zm10.608-4C52.971 33.145 50.616 31 48 31c-2.616 0-4.971 2.145-5.286 5.137h10.572zm4.03.363C57.157 31.336 53.156 27 48 27c-5.155 0-9.157 4.336-9.317 9.5-2.199.85-3.683 3.085-3.683 5.542v13.053C35 58.228 37.413 61 40.643 61h14.714C58.587 61 61 58.227 61 55.095V42.042c0-2.457-1.484-4.692-3.683-5.542zM50 46a2 2 0 10-4 0v5a2 2 0 104 0v-5z"/></svg>