<svg viewBox="0 0 96 96" xmlns="http://www.w3.org/2000/svg"><path d="M49.576 12.5a4 4 0 00-3.152 0l-26 11.142A4 4 0 0018 27.32v17.09c0 8.458 3.363 17.278 8.578 24.51 5.212 7.225 12.426 13.071 20.354 15.36.7.202 1.44.201 2.137 0 4.663-1.347 9.07-3.923 12.955-7.262a2 2 0 00-2.607-3.034c-3.524 3.03-7.42 5.279-11.417 6.441-6.839-1.988-13.352-7.155-18.178-13.846C24.99 59.878 22 51.858 22 44.41V27.32l26-11.143 26 11.143V29.5a2 2 0 104 0V27.32a4 4 0 00-2.424-3.677l-26-11.143zM48 35a3 3 0 100 6 3 3 0 000-6zm-7 3a7 7 0 1114 0 7 7 0 01-14 0zm2.465 13.96l-4.428 2.584c-.759.443-.62 1.578.224 1.824l.619.18a29 29 0 0016.24 0l.62-.18c.842-.246.982-1.382.223-1.824l-4.428-2.583a9 9 0 00-9.07 0zm-2.015-3.454a13 13 0 0113.1 0l4.429 2.583c3.793 2.212 3.096 7.89-1.12 9.119l-.619.18a33 33 0 01-18.48 0l-.62-.18c-4.215-1.23-4.912-6.907-1.119-9.12l4.429-2.582zM81.6 36.2a2 2 0 10-3.2-2.4l-4.616 6.155-.37-.37a2 2 0 10-2.828 2.83l2 2A2 2 0 0075.6 44.2l6-8zM68 33a4 4 0 00-4 4v10a4 4 0 004 4h10a4 4 0 004-4v-2a2 2 0 10-4 0v2H68V37h4a2 2 0 100-4h-4zm13.2 22.4a2 2 0 01.4 2.8l-6 8a2 2 0 01-3.014.214l-2-2a2 2 0 112.828-2.828l.37.37L78.4 55.8a2 2 0 012.8-.4zM64 59a4 4 0 014-4h4a2 2 0 110 4h-4v10h10v-2a2 2 0 114 0v2a4 4 0 01-4 4H68a4 4 0 01-4-4V59z"/></svg>