<svg viewBox="0 0 96 96" xmlns="http://www.w3.org/2000/svg"><path d="M83.6 21.2a2 2 0 00-3.2-2.4l-4.616 6.155-.37-.37a2 2 0 00-2.828 2.83l2 2A2 2 0 0077.6 29.2l6-8zM70 18a4 4 0 00-4 4v10a4 4 0 004 4h10a4 4 0 004-4v-2a2 2 0 10-4 0v2H70V22h4a2 2 0 100-4h-4zm-58 5a2 2 0 012-2h38a2 2 0 110 4H14a2 2 0 01-2-2zm0 8a2 2 0 012-2h20a2 2 0 110 4H14a2 2 0 01-2-2zm2 11a2 2 0 100 4h38a2 2 0 100-4H14zm-2 10a2 2 0 012-2h32a2 2 0 110 4H14a2 2 0 01-2-2zm2 11a2 2 0 100 4h38a2 2 0 100-4H14zm-2 10a2 2 0 012-2h26a2 2 0 110 4H14a2 2 0 01-2-2zm54-30a4 4 0 014-4h10a4 4 0 014 4v10a4 4 0 01-4 4H70a4 4 0 01-4-4V43zm14 0H70v10h10V43zM70 60a4 4 0 00-4 4v10a4 4 0 004 4h10a4 4 0 004-4V64a4 4 0 00-4-4H70zm0 4h10v10H70V64z"/></svg>