<svg viewBox="0 0 96 96" xmlns="http://www.w3.org/2000/svg"><path d="M62.213 32.565a4 4 0 01-2.748.12L51.003 30H40.809c-2.135 0-3.516-1.2-4.26-2.513a6.182 6.182 0 01-.3-.602l-5.545 2.64a4 4 0 01-2.467.317l-.473-.09c-3.312-.63-4.406-4.824-1.825-6.992l5.461-4.587c.323-.271.687-.49 1.078-.647l12.695-5.113a4 4 0 012.704-.102l14.633 4.643 6.373-.933c.096-.014.193-.021.29-.021H76a2 2 0 012 2v9.5a2 2 0 01-2 2h-6.428l-7.36 3.065zm8.959-7.065H74V20h-2.828v5.5zm-4-5.186l-4.083.598a4 4 0 01-1.79-.145l-14.633-4.643-12.694 5.112-5.46 4.587.472.09 7.813-3.719 1.693-.806A4 4 0 0140.21 21h9.527a2 2 0 010 4H40.21l-.342.163c.045.124.098.242.16.35.116.205.23.317.32.376.076.05.204.111.461.111h10.196c.41 0 .818.063 1.21.187l8.46 2.685 6.498-2.706v-5.852zM33.788 63.435a4 4 0 012.747-.12L44.997 66h10.195c2.135 0 3.516 1.2 4.26 2.513.113.198.212.4.3.602l5.545-2.64a4 4 0 012.467-.317l.473.09c3.312.63 4.406 4.824 1.825 6.992L64.6 77.827c-.323.271-.687.49-1.078.647l-12.695 5.113a4 4 0 01-2.704.102l-14.633-4.643-6.373.933a1.993 1.993 0 01-.29.021H20a2 2 0 01-2-2v-9.5a2 2 0 012-2h6.428l7.36-3.065zm-8.96 7.065H22V76h2.828v-5.5zm4 5.186l4.083-.598a4 4 0 011.79.145l14.633 4.643 12.694-5.112 5.461-4.587-.473-.09-7.813 3.719-1.693.806a4 4 0 01-1.72.388h-9.527a2 2 0 110-4h9.528l.342-.163a2.362 2.362 0 00-.16-.35c-.116-.205-.23-.317-.32-.376-.076-.05-.204-.111-.461-.111H44.997c-.41 0-.819-.063-1.21-.187l-8.462-2.685-6.497 2.706v5.852zm-7.466-35.417a2 2 0 00-3.723 0l-2.75 7-1.375 3.5-1.375 3.5a2 2 0 003.723 1.462l.876-2.231h5.524l.877 2.231a2 2 0 003.723-1.462l-1.375-3.5-1.375-3.5-2.75-7zM20.69 49.5H18.31l.302-.769.888-2.261.889 2.261.302.769zM50 39a2 2 0 012 2v14a2 2 0 11-4 0V41a2 2 0 012-2zm10 2a2 2 0 00-4 0v14a2 2 0 002 2h8a2 2 0 100-4h-6V41zm12 0a2 2 0 012-2h8a2 2 0 010 4h-6v3h3a2 2 0 010 4h-3v3h6a2 2 0 010 4h-8a2 2 0 01-2-2V41zm-39 7c0-3.062 2.069-5 4-5 1.065 0 2.106.535 2.885 1.55a2 2 0 003.174-2.434C41.641 40.267 39.49 39 37 39c-4.696 0-8 4.33-8 9s3.304 9 8 9c2.3 0 5.054-1.117 6.587-3.116A2 2 0 0044 52.667v-3.5a2 2 0 00-2-2h-3a2 2 0 000 4h1v.712c-.76.652-1.963 1.121-3 1.121-1.931 0-4-1.938-4-5z"/></svg>