<svg fill="none" viewBox="0 0 96 96" xmlns="http://www.w3.org/2000/svg"><path d="M43 40.5V20a3 3 0 00-3-3H16a3 3 0 00-3 3v59.5a3 3 0 003 3h15m12-42h9a3 3 0 013 3v39m-12-42h-9a3 3 0 00-3 3v39m24 0H31m24 0h18.25a5.75 5.75 0 000-11.5H73a6 6 0 010-12 6 6 0 000-12h-3M19.5 26H37M19.5 38h5m-5 12h5m-5 12h5m-5 12h5M37 48.5h12m-12 18h12m-12 9h12M69 26h2M37 57.5h12M64 20a8.485 8.485 0 0112 12l-5.39 5.39a.863.863 0 01-1.22 0L64 32a8.485 8.485 0 010-12z" stroke="#262d38" stroke-linecap="round" stroke-linejoin="round" stroke-width="4"/></svg>