<svg viewBox="0 0 96 96" xmlns="http://www.w3.org/2000/svg"><path d="M11 20a5 5 0 015-5h24a5 5 0 015 5v18.5h7a5 5 0 015 5v37h16.25a3.75 3.75 0 100-7.5H73a8 8 0 110-16 4 4 0 000-8h-3a2 2 0 110-4h3a8 8 0 110 16 4 4 0 000 8h.25a7.75 7.75 0 010 15.5H16a5 5 0 01-5-5V20zm42 60.5v-37a1 1 0 00-1-1H34a1 1 0 00-1 1v37h20zm-24 0v-37a5 5 0 015-5h7V20a1 1 0 00-1-1H16a1 1 0 00-1 1v59.5a1 1 0 001 1h13zm33.586-61.914c4.094-4.095 10.734-4.095 14.828 0 4.095 4.095 4.095 10.734 0 14.828l-5.39 5.39a2.863 2.863 0 01-4.048 0l-5.39-5.39c-4.095-4.095-4.095-10.734 0-14.828zm12 2.828a6.485 6.485 0 00-9.172 9.172L70 35.172l4.586-4.586a6.485 6.485 0 000-9.172zM17.5 26a2 2 0 012-2H37a2 2 0 110 4H19.5a2 2 0 01-2-2zM67 26a2 2 0 012-2h2a2 2 0 110 4h-2a2 2 0 01-2-2zM17.5 38a2 2 0 012-2h5a2 2 0 110 4h-5a2 2 0 01-2-2zM35 48.5a2 2 0 012-2h12a2 2 0 110 4H37a2 2 0 01-2-2zM17.5 50a2 2 0 012-2h5a2 2 0 110 4h-5a2 2 0 01-2-2zM35 57.5a2 2 0 012-2h12a2 2 0 110 4H37a2 2 0 01-2-2zM17.5 62a2 2 0 012-2h5a2 2 0 110 4h-5a2 2 0 01-2-2zM35 66.5a2 2 0 012-2h12a2 2 0 110 4H37a2 2 0 01-2-2zM17.5 74a2 2 0 012-2h5a2 2 0 110 4h-5a2 2 0 01-2-2zM35 75.5a2 2 0 012-2h12a2 2 0 110 4H37a2 2 0 01-2-2z"/></svg>