<svg viewBox="0 0 96 96" xmlns="http://www.w3.org/2000/svg"><path d="M14 18a2 2 0 100 4h16a2 2 0 100-4H14zm-2 12a4 4 0 014-4h12a4 4 0 014 4v7a4 4 0 01-4 4H16a4 4 0 01-4-4v-7zm16 0H16v7h12v-7zm10 0a4 4 0 014-4h12a4 4 0 014 4v12a4 4 0 01-4 4H42a4 4 0 01-4-4V30zm16 0H42v12h12V30zm14-4a4 4 0 00-4 4v9a4 4 0 004 4h12a4 4 0 004-4v-9a4 4 0 00-4-4H68zm0 4h12v9H68v-9zM12 49a4 4 0 014-4h12a4 4 0 014 4v6a4 4 0 01-4 4H16a4 4 0 01-4-4v-6zm16 0H16v6h12v-6zm14 1a4 4 0 00-4 4v10a4 4 0 004 4h12a4 4 0 004-4V54a4 4 0 00-4-4H42zm0 4h12v10H42V54zm22-3a4 4 0 014-4h12a4 4 0 014 4v2a4 4 0 01-4 4H68a4 4 0 01-4-4v-2zm16 0H68v2h12v-2zM16 63a4 4 0 00-4 4v2a4 4 0 004 4h12a4 4 0 004-4v-2a4 4 0 00-4-4H16zm0 4h12v2H16v-2zm48-2a4 4 0 014-4h12a4 4 0 014 4v9a4 4 0 01-4 4H68a4 4 0 01-4-4v-9zm16 0H68v9h12v-9zM38 20a2 2 0 012-2h16a2 2 0 110 4H40a2 2 0 01-2-2zm28-2a2 2 0 100 4h16a2 2 0 100-4H66z"/></svg>