<svg viewBox="0 0 96 96" xmlns="http://www.w3.org/2000/svg"><path fill-rule="evenodd" d="M18 23a5 5 0 015-5h18a5 5 0 015 5v18a5 5 0 01-5 5H23a5 5 0 01-5-5V23zm5-1a1 1 0 00-1 1v18a1 1 0 001 1h18a1 1 0 001-1V23a1 1 0 00-1-1H23zm7.377 3.769C31.123 24.733 32.348 24 34 24c1.652 0 2.877.733 3.623 1.769.35.486.573 1.006.707 1.496l1.699 1.02a2 2 0 01.385 3.13l-.014.014-.015.014-.014.015-.015.014-.014.014-.014.014-.014.014-.013.014-.014.014-.014.013-.013.014-.014.013-.013.013-.013.013-.013.013-.013.013-.013.013-.012.013-.013.012-.012.013-.013.012-.012.013-.012.012-.013.012-.011.012-.012.012-.012.012-.012.011-.011.012-.012.011-.011.012-.011.01-.012.012-.01.011-.012.011-.01.01-.011.012-.01.01-.011.01-.011.011-.01.01-.01.011-.01.01-.01.01-.01.01-.01.01-.01.01-.01.01-.01.01-.01.009-.009.01-.01.009-.009.009-.009.01-.009.008-.009.01-.009.008-.008.009-.01.009-.008.008-.008.009-.009.008-.008.009-.009.008-.008.008-.008.008-.008.008-.008.008-.008.008-.007.008-.008.008-.008.007-.007.008-.008.007-.007.007-.007.008-.007.007-.008.007-.007.007-.007.007-.007.007-.006.007-.007.006-.007.007-.006.007-.007.006-.006.007-.007.006-.006.006-.006.006-.006.007-.006.006-.006.006-.006.005-.006.006-.006.006-.005.006-.006.005-.005.006-.006.005-.005.006-.006.005-.005.005-.005.006-.005.005-.005.005-.005.005-.005.005-.005.005-.005.004-.005.005-.004.005-.005.004-.005.005-.004.004-.004.005-.005.004-.004.004-.004.005-.004.004-.005.004-.004.004-.004.004-.003.004-.004.004-.004.004-.004.003-.004.004-.003.004-.004.003-.003.004-.004.003-.003.004-.003.003-.004.003-.003.004-.003.003-.003.003-.004.003-.002.003-.003.003-.003.003-.003.003-.003.002-.003.003-.003.003-.002.003-.003.002-.003.003-.002.002-.003.003-.002.002-.002.003-.003.002-.002.002-.002.003-.002.002-.003.002-.002.002-.002.002-.002.002-.002.002-.002.002-.002.002-.002.002-.002.002-.001.002-.002.001-.002.002-.001.002-.002.002-.002.001-.001.002-.002.001-.001.002-.002.001-.001.002h-.002v.002l-.002.002h-.001l-.002.002v.001l-.002.001-.001.002h-.001l-.001.002h-.001l-.001.002h-.001l-.001.002h-.001l-.001.002h-.001v.001l-.002.001-.001.002h-.001v.001h-.001l-.001.002h-.001v.001h-.002v.002h-.001v.001h-.001v.001h-.001v.001h-.001v.001h-.001v.001h-.001v.001h-.001v.001h-.001v.001h-.001v.001h-.001v.001h-.001v.001h-.001v.001h-.001v.001h-.001v.001h-.001v.001h-.001l-.001.002h-.001v.001h-.001v.001h-.002v.002l-.002.001-.001.002-.002.001v.001h-.002v.002h-.001l-.001.002h-.001l-.001.002h-.001l-.001.002h-.002v.002l-.002.001-.001.001-.001.002h-.002v.002l-.002.002h-.002l-.001.002-.001.002-.002.001-.001.002-.002.001-.002.002-.001.002-.002.001-.002.002-.001.002-.002.002-.002.001-.002.002-.002.002-.002.002-.002.002-.002.002-.002.002-.002.002-.002.002-.002.003-.003.002-.002.002-.002.003-.003.002-.002.003-.003.002-.002.002-.003.003-.002.003-.003.002-.003.003-.002.003-.003.003-.003.003-.003.003-.003.003-.003.002-.003.004-.003.003-.004.003-.003.003-.003.004-.004.003-.003.003-.003.004-.004.003-.003.004-.004.004-.004.003-.003.004-.004.004-.004.004-.004.004-.004.003-.004.004-.004.005-.004.004-.005.004-.004.004-.004.005-.005.004-.004.005-.005.004-.004.005-.005.004-.005.005-.005.005-.004.005-.005.005-.005.005-.005.005-.005.005-.006.005-.005.005-.005.006-.006.005-.005.005-.006.006-.005.006-.006.005-.006.006-.006.006-.005.006-.006.006-.006.006-.007.006-.006.006-.006.006-.006.007-.007.006-.006.007-.007.006-.007.007-.006.007-.007.006-.007.007-.007.007-.007.007-.007.008-.007.007-.008.007-.007.007-.007.008-.008.007-.008.008-.007.008-.008.007-.008.008-.008.008-.008.008-.008.008-.008.009-.008.008-.009.008-.008.009-.009.008-.008.009-.01.009-.008.008-.009.01-.009.008-.009.01-.01.008-.008.01-.01.01-.01.008-.009.01-.01.01-.009.01-.01.01-.01.01-.01.009c-.18 1.709-.874 3.109-1.748 4.128a6.455 6.455 0 01-1.675 1.403c-.563.322-1.274.595-2.031.595h-7.5a2 2 0 01-1.414-3.414l1.17-1.171c-1.404-1.794-2.212-3.619-2.474-5.057a5.036 5.036 0 01-.07-1.465c.051-.437.216-1.176.833-1.75.76-.705 1.72-.735 2.429-.501.61.201 1.093.596 1.44.944.727.726 1.378 1.028 2.093 1.18a4.79 4.79 0 01.87-2.497zm-.44 9.731h2.972c.027-.01.073-.03.138-.068a2.47 2.47 0 00.623-.534c.439-.512.83-1.307.83-2.398a2 2 0 01.586-1.414l.014-.015.015-.014.014-.015.014-.014.015-.014.014-.014.014-.014.013-.014.014-.014.014-.013.013-.014.013-.013.014-.013.013-.013.013-.013.013-.013.013-.013.012-.013.013-.012.012-.013.013-.012.012-.013.012-.012.012-.012.012-.012.012-.012.012-.012.012-.011.011-.012.012-.011.011-.012.011-.01.012-.012.01-.011.011-.011.011-.01.011-.012.01-.01.011-.01.01-.011.011-.01.01-.011.01-.01.01-.01.01-.01.01-.01.01-.01.01-.01.01-.01.01-.009.009-.01.01-.009.008-.009.01-.01.009-.008.009-.01.009-.008.008-.009.01-.009.008-.008-.304-.182A2 2 0 0134.5 28.5a.792.792 0 00-.032-.193.665.665 0 00-.091-.2.157.157 0 00-.06-.056C34.301 28.043 34.214 28 34 28c-.215 0-.301.043-.318.05a.157.157 0 00-.059.056.665.665 0 00-.09.201.795.795 0 00-.033.193v2a2 2 0 01-2.22 1.988c-.156-.017-.338-.03-.545-.043-.676-.045-1.606-.107-2.644-.417.36.505.797 1.032 1.323 1.558a2 2 0 01.523 1.914zm-5.44-5.666zM55 18a5 5 0 00-5 5v18a5 5 0 005 5h18a5 5 0 005-5V23a5 5 0 00-5-5H55zm-1 16v7a1 1 0 001 1h18a1 1 0 001-1v-7h-2.252a8.003 8.003 0 01-15.496 0H54zm2.252-4H54v-7a1 1 0 011-1h18a1 1 0 011 1v7h-2.252a8.003 8.003 0 00-15.496 0zM60 32a4 4 0 108 0 4 4 0 00-8 0zM18 55a5 5 0 015-5h18a5 5 0 015 5v18a5 5 0 01-5 5H23a5 5 0 01-5-5V55zm5-1a1 1 0 00-1 1v18a1 1 0 001 1h18a1 1 0 001-1V55a1 1 0 00-1-1H23zm32-4a5 5 0 00-5 5v18a5 5 0 005 5h18a5 5 0 005-5V55a5 5 0 00-5-5H55zm-1 5a1 1 0 011-1h18a1 1 0 011 1v18a1 1 0 01-1 1H55a1 1 0 01-1-1V55zm5 1a2 2 0 012 2v12a2 2 0 11-4 0V58a2 2 0 012-2zm5 5c.358 0 .694.094.985.26.477-.176.987-.26 1.515-.26.85 0 1.652.218 2.344.68.68.453 1.139 1.063 1.445 1.676.584 1.167.711 2.542.711 3.644V70a2 2 0 11-4 0V67c0-.898-.123-1.523-.289-1.856a.594.594 0 00-.084-.133A.54.54 0 0066.5 65a.54.54 0 00-.127.011.594.594 0 00-.084.133c-.166.332-.289.958-.289 1.856v3a2 2 0 11-4 0v-7a2 2 0 012-2zm2.642 4.017s-.002-.002-.007-.003a.075.075 0 00.006.002zm-.276-.003l-.008.003s.002-.002.007-.003zM29 61a5 5 0 015-5h1a2 2 0 110 4h-1a1 1 0 00-1 1v1a2 2 0 110 4v4a2 2 0 11-4 0v-4a2 2 0 110-4v-1z"/></svg>