<svg viewBox="0 0 96 96" xmlns="http://www.w3.org/2000/svg"><path d="M12 22a4 4 0 014-4h64a4 4 0 014 4v52a4 4 0 01-4 4H16a4 4 0 01-4-4V22zm68 0H16v8H80v-8zm0 12H16v40h64V34zm-25.106 6.211a2 2 0 01.895 2.683l-12 24a2 2 0 01-3.578-1.788l12-24a2 2 0 012.683-.895zm-20.48 6.203a2 2 0 00-2.828-2.828l-9 9a2 2 0 000 2.828l9 9a2 2 0 102.828-2.828L26.828 54l7.586-7.586zm27.172-2.828a2 2 0 012.828 0l9 9a2 2 0 010 2.828l-9 9a2 2 0 11-2.828-2.828L69.172 54l-7.586-7.586a2 2 0 010-2.828zM22 24a2 2 0 100 4h1a2 2 0 000-4h-1zm7 2a2 2 0 012-2h1a2 2 0 010 4h-1a2 2 0 01-2-2zm11-2a2 2 0 100 4h1a2 2 0 000-4h-1z"/></svg>