<svg viewBox="0 0 96 96" xmlns="http://www.w3.org/2000/svg"><path fill-rule="evenodd" d="M58.31 10.819a3 3 0 012.182.584l21.073 15.949c2.113 1.6 1.253 4.902-1.271 5.344v6.517c.186.162.34.326.463.47.47.552.83 1.22 1.097 1.831.513 1.178.9 2.668.88 3.728a4.43 4.43 0 11-8.857-.155c.017-.994.366-2.436.867-3.616.256-.601.607-1.27 1.078-1.822.124-.146.281-.312.472-.474v-6.06l-6.12.687-2.924 10.912a2 2 0 01-1.662 1.465c-1.4.19-2.673.375-3.836.545-.945.137-1.818.264-2.628.375.253 1.735.852 3.518 1.411 5.18.126.374.25.742.367 1.101A2 2 0 0159 56H16.032a2 2 0 01-1.861-1.27c-.996-2.538-1.572-4.731-1.579-7.063-.006-2.323.554-4.617 1.564-7.358a2 2 0 011.876-1.31h21.206l-.717-.538a2 2 0 01-.733-2.119l2.923-10.908-8.1-5.934c-2.19-1.604-1.292-5.06 1.402-5.397L58.31 10.82zM47.028 45.993c-.933-.46-1.829-1.014-2.773-1.67A66.305 66.305 0 0142.353 43H17.454c-.605 1.866-.865 3.306-.862 4.656.004 1.322.261 2.666.835 4.344h38.798c-.407-1.284-.816-2.75-1.043-4.247-2.092.157-3.962-.076-5.848-.742a17.574 17.574 0 01-2.306-1.018zm3.785-2.83a10.82 10.82 0 01-1.992-.746 27.255 27.255 0 01-2.34-1.418 31.536 31.536 0 01-.248-.175c-.985-.7-2.03-1.51-3.309-2.502-.852-.66-1.81-1.403-2.923-2.248l2.202-8.216 9.902 6.691a3 3 0 001.902.506l11.927-.886-2.204 8.229c-.986.138-1.883.269-2.706.389h-.001c-2.035.297-3.629.529-5.034.66-2.13.199-3.601.137-5.176-.285zM68.41 29.974l8.702-.976-18.71-14.16-23.396 2.923 7.142 5.232 11.91 8.048 14.352-1.067zM29 69a2 2 0 100 4h16a2 2 0 100-4H29zm25 0a2 2 0 100 4h13a2 2 0 100-4H54zm24.736-23.828a.43.43 0 01-.86-.015c.005-.302.145-1.042.417-1.786.128.328.236.674.314.995.105.433.13.712.129.806zm.171-2.972l-.017.016a.1.1 0 01.017-.016zm-1.233.034a.121.121 0 01-.022-.02s.007.005.022.02zM20.132 58a2 2 0 00-1.82 1.169c-2.087 4.57-3.226 8.328-3.22 12.108.007 3.793 1.167 7.38 3.245 11.606A2 2 0 0020.132 84H77a2 2 0 001.959-2.403c-1.725-8.38-1.71-12.833 0-21.196A2 2 0 0077 58H20.132zm-1.04 13.27c-.004-2.672.718-5.512 2.34-9.27h53.145c-1.203 6.689-1.213 11.291-.002 18H21.393c-1.578-3.418-2.296-6.084-2.3-8.73z"/></svg>