<svg viewBox="0 0 96 96" xmlns="http://www.w3.org/2000/svg"><path d="M48 16c-11.046 0-20 8.954-20 20 0 2.546 1.189 6.087 3.227 10.17 2.004 4.015 4.696 8.3 7.42 12.252 2.718 3.944 5.44 7.52 7.485 10.11A198.88 198.88 0 0048 70.862a198.88 198.88 0 001.868-2.33 198.156 198.156 0 007.485-10.11c2.724-3.952 5.416-8.237 7.42-12.252C66.811 42.087 68 38.546 68 36c0-11.046-8.954-20-20-20zm0 58a455.682 455.682 0 01-1.524 1.296v-.002l-.004-.004-.013-.015-.05-.059-.068-.08-.121-.145c-.165-.196-.405-.484-.71-.854-.608-.74-1.477-1.808-2.517-3.127a202.038 202.038 0 01-7.64-10.319c-2.776-4.03-5.584-8.485-7.705-12.734C25.561 43.776 24 39.529 24 36c0-13.255 10.745-24 24-24s24 10.745 24 24c0 3.529-1.561 7.776-3.648 11.957-2.121 4.249-4.929 8.705-7.705 12.734a202.038 202.038 0 01-7.64 10.32 196.203 196.203 0 01-3.227 3.98l-.189.225-.05.059-.013.015-.003.004-.001.002L48 74zm0 0l1.523 1.296a2 2 0 01-3.046 0L48 74zm-15.025-9.912a2 2 0 01-1.658 2.291c-4.988.8-9.034 1.931-11.777 3.222-1.375.647-2.322 1.287-2.897 1.864-.569.57-.643.937-.643 1.107 0 .258.21.976 1.768 1.997 1.476.968 3.744 1.916 6.725 2.742C30.427 78.957 38.739 80 48 80c9.261 0 17.573-1.043 23.507-2.689 2.981-.826 5.249-1.775 6.724-2.742C79.79 73.548 80 72.83 80 72.572c0-.17-.075-.537-.643-1.107-.575-.577-1.522-1.217-2.897-1.864-2.743-1.29-6.79-2.421-11.777-3.222a2 2 0 01.634-3.949c5.175.83 9.629 2.038 12.845 3.551 1.604.755 3.002 1.632 4.027 2.66C83.219 69.673 84 70.996 84 72.57c0 2.346-1.692 4.109-3.575 5.343-1.966 1.289-4.677 2.372-7.849 3.252C66.205 82.933 57.516 84 48 84s-18.204-1.067-24.576-2.834c-3.172-.88-5.883-1.963-7.849-3.252C13.692 76.68 12 74.917 12 72.572c0-1.575.78-2.898 1.811-3.932 1.025-1.027 2.423-1.904 4.027-2.659 3.216-1.513 7.67-2.72 12.845-3.551a2 2 0 012.292 1.658zm16.898-40.79a2 2 0 00-3.746 0L43.614 30H37a2 2 0 00-1.414 3.414l5.2 5.2-1.726 6.9a2 2 0 003.096 2.118L48 43.492l5.844 4.14a2 2 0 003.096-2.117l-1.725-6.901 5.2-5.2A2 2 0 0059 30h-6.614l-2.513-6.702zm-3 9.404L48 29.696l1.127 3.006A2 2 0 0051 34h3.172l-2.586 2.586a2 2 0 00-.526 1.9l.69 2.76-2.594-1.838a2 2 0 00-2.312 0l-2.594 1.838.69-2.76a2 2 0 00-.526-1.9L41.828 34H45a2 2 0 001.873-1.298z"/></svg>