<svg fill="none" viewBox="0 0 97 96" xmlns="http://www.w3.org/2000/svg"><path d="M50.5 19H43l4 12m3.5-12l4-4 4 4H66l-4 12M50.5 19l2 5.5M62 31H47m15 0l1.172 1.172a4 4 0 010 5.656L62 39m-15-8l-1.172 1.172a4 4 0 000 5.656L47 39m0 0h15m-15 0c-6.345 2.048-8.922 4.328-13 9m28-9c20.5 9 26 43-7.5 41C43 80 40.138 77.687 37 75.5M34 48H18l-1.172 1.172a4 4 0 000 5.656L18 56m16-8l1.172 1.172a4 4 0 010 5.656L34 56m-16 0h16m-16 0l-1.172 1.172a4 4 0 000 5.656L18 64m16-8l1.172 1.172a4 4 0 010 5.656L34 64m0 0H18m16 0l1.172 1.172a4 4 0 010 5.656L34 72m-16-8l-1.172 1.172a4 4 0 000 5.656L18 72m0 0h16m-16 0l-1.172 1.172a4 4 0 000 5.656L18 80h16c2.072-.921 1.975-2.27 3-4.5M34 72l3 3.5M54.5 51l4 2m-4-2l-2.832 1.259c-2.375 1.055-2.375 4.427 0 5.482L54.5 59l2.633 1.317c2.212 1.105 2.212 4.26 0 5.366L54.5 67m0-16v-3.5m0 19.5l-5-3m5 3v3.5" stroke="#262d38" stroke-linecap="round" stroke-linejoin="round" stroke-width="4"/></svg>