<svg viewBox="0 0 97 96" xmlns="http://www.w3.org/2000/svg"><path d="M53.086 13.586a2 2 0 012.828 0L59.328 17H66a2 2 0 011.897 2.633L64.288 30.46l.298.297a6.002 6.002 0 01.698 7.65c9.525 5.348 15.467 15.841 15.215 25.271-.138 5.189-2.164 10.129-6.575 13.597-4.37 3.436-10.827 5.232-19.483 4.725-5.836-.004-9.646-.591-12.462-1.533a18.51 18.51 0 01-4.037-1.912 8.987 8.987 0 01-.258.575c-.559 1.127-1.388 2.038-2.872 2.698A2 2 0 0134 82H18a2 2 0 01-1.414-.586l-1.172-1.171a6 6 0 01-.23-8.243 6 6 0 010-8 6 6 0 010-8 6 6 0 01.23-8.243l1.172-1.171A2 2 0 0118 46h15.096c1.81-2.04 3.452-3.707 5.38-5.104 1.492-1.08 3.112-1.968 5.06-2.767a6.002 6.002 0 01.878-7.372l.298-.297-3.61-10.828A2 2 0 0143 17h6.672l3.414-3.414zM49.099 21h-3.324l2.666 8h12.117l2.667-8H58.5a2 2 0 01-1.414-.586L54.5 17.828l-1.685 1.686 1.565 4.303a2 2 0 11-3.76 1.366L49.1 21zm12.073 12H47.828l-.585.586a2 2 0 000 2.828l.585.586h13.344l.585-.586a2 2 0 000-2.828L61.172 33zm.4 8H47.318c-2.87.948-4.82 1.923-6.495 3.136-1.379.998-2.626 2.197-4.077 3.787a6 6 0 01.07 8.077 6 6 0 010 8 6 6 0 01-.094 8.102l1.631 1.904.122.085c1.447 1.013 2.697 1.888 4.774 2.583C45.515 77.431 48.869 78 54.5 78c.04 0 .08.001.12.004 8.063.481 13.46-1.223 16.831-3.873 3.339-2.625 4.938-6.373 5.05-10.56.224-8.413-5.609-18.288-14.93-22.571zm-26.89 34.87L33.08 74H18.828l-.585.586a2 2 0 000 2.828l.585.586h14.697c.323-.195.447-.388.576-.648.124-.25.234-.546.412-1.029.052-.14.108-.292.17-.454zM18.828 70h14.344l.585-.586a2 2 0 000-2.828L33.172 66H18.828l-.585.586a2 2 0 000 2.828l.585.586zm0-8h14.344l.585-.586a2 2 0 000-2.828L33.172 58H18.828l-.585.586a2 2 0 000 2.828l.585.586zm0-8h14.344l.585-.586a2 2 0 000-2.828L33.172 50H18.828l-.585.586a2 2 0 000 2.828l.585.586zM56.5 49.764l2.894 1.447a2 2 0 01-1.788 3.578L54.45 53.21l-1.97.875c-.791.352-.791 1.476 0 1.828l2.832 1.258.082.04 2.634 1.316c3.685 1.843 3.685 7.101 0 8.944l-1.528.764V70.5a2 2 0 11-4 0v-2.368l-4.029-2.417a2 2 0 012.058-3.43l4.059 2.435 1.651-.826a1 1 0 000-1.788l-2.593-1.297-2.79-1.24c-3.96-1.76-3.96-7.379 0-9.138l1.644-.73V47.5a2 2 0 114 0v2.264z"/></svg>