<svg viewBox="0 0 96 96" xmlns="http://www.w3.org/2000/svg"><path d="M43 18a4 4 0 00-4 4v8a4 4 0 004 4h37a4 4 0 004-4v-8a4 4 0 00-4-4H43zm0 4h37v8H43v-8zm-2 18a2 2 0 00-2 2v12a2 2 0 002 2h41a2 2 0 002-2V42a2 2 0 00-2-2H41zm2 12v-8h37v8H43zm-4 14a4 4 0 014-4h37a4 4 0 014 4v8a4 4 0 01-4 4H43a4 4 0 01-4-4v-8zm41 0H43v8h37v-8zM49 24a2 2 0 100 4h25a2 2 0 100-4H49zm-2 46a2 2 0 012-2h25a2 2 0 110 4H49a2 2 0 01-2-2zm2-24a2 2 0 100 4h9a2 2 0 100-4h-9zm13 2a2 2 0 012-2h10a2 2 0 110 4H64a2 2 0 01-2-2zM24 23.5c-6.627 0-12 5.373-12 12V60c0 6.627 5.373 12 12 12h2.172l-1.586 1.586a2 2 0 102.828 2.828l5-5a2 2 0 000-2.828l-5-5a2 2 0 10-2.828 2.828L26.172 68H24a8 8 0 01-8-8V35.5a8 8 0 018-8h7a2 2 0 100-4h-7z"/></svg>