<svg viewBox="0 0 96 96" xmlns="http://www.w3.org/2000/svg"><path fill-rule="evenodd" d="M59 22c0-1.605.183-2.673.517-3.293.144-.265.294-.408.454-.5.168-.096.473-.207 1.029-.207.556 0 .861.111 1.03.207.16.092.31.235.453.5.334.62.517 1.688.517 3.293a2 2 0 002 2h7v5.096c-1.114.122-2.227.38-3.192.901-.821.443-1.557 1.086-2.072 1.986C66.225 32.876 66 33.9 66 35c0 1.1.225 2.124.736 3.017.515.9 1.251 1.543 2.072 1.986.965.52 2.078.78 3.192.9V46h-7a2 2 0 00-2 2c0 1.605-.183 2.673-.517 3.293a2.094 2.094 0 01-.027.048 1.144 1.144 0 01-.427.452c-.168.096-.473.207-1.029.207-.556 0-.861-.111-1.03-.207-.16-.092-.31-.235-.453-.5a2.532 2.532 0 01-.118-.254C59.14 50.398 59 49.405 59 48a2 2 0 00-2-2h-7v-5.096c.975-.107 1.949-.318 2.824-.718.125-.057.248-.118.368-.183.821-.443 1.556-1.086 2.072-1.986C55.775 37.124 56 36.1 56 35c0-1.1-.225-2.124-.736-3.017-.516-.9-1.251-1.543-2.072-1.986-.965-.52-2.078-.78-3.192-.9V24h7a2 2 0 002-2zM46 50h-7.013A2 2 0 0137 48c0-1.605-.183-2.673-.517-3.293l-.011-.02-.016-.028a1.144 1.144 0 00-.427-.452 1.167 1.167 0 00-.153-.073C35.693 44.062 35.417 44 35 44l-.101.001c-.493.013-.771.116-.928.206a1.23 1.23 0 00-.453.5 2.532 2.532 0 00-.119.254C33.14 45.602 33 46.595 33 48a2 2 0 01-2 2h-7v5.096c1.114.122 2.227.38 3.192.901.821.443 1.556 1.086 2.072 1.986.511.893.736 1.916.736 3.017 0 1.1-.225 2.124-.736 3.017-.515.9-1.251 1.543-2.072 1.986-.965.52-2.078.78-3.192.9V72h7a2 2 0 012 2c0 1.606.183 2.673.517 3.293.144.265.294.408.454.5.168.096.473.207 1.029.207.556 0 .861-.111 1.03-.207.16-.092.31-.235.453-.5.334-.62.517-1.688.517-3.293a2 2 0 012-2h7v-5.097c-1.114-.12-2.227-.38-3.192-.9-.821-.443-1.556-1.086-2.072-1.986C40.225 63.124 40 62.1 40 61c0-1.1.225-2.124.736-3.017a5.1 5.1 0 011.768-1.81c.1-.062.201-.12.304-.176.965-.52 2.078-.78 3.192-.9V50zm2 26h-7.096c-.122 1.114-.38 2.227-.901 3.192-.443.821-1.086 1.557-1.986 2.072C37.124 81.775 36.1 82 35 82c-1.1 0-2.124-.225-3.017-.736-.9-.515-1.543-1.251-1.986-2.072-.52-.965-.78-2.078-.9-3.192H22a2 2 0 01-2-2v-9a2 2 0 012-2c1.605 0 2.673-.183 3.293-.517.265-.144.408-.294.5-.454.096-.168.207-.473.207-1.029 0-.556-.111-.861-.207-1.03-.092-.16-.235-.31-.5-.453C24.673 59.183 23.605 59 22 59a2 2 0 01-2-2V40.904c-1.114-.122-2.227-.38-3.192-.901-.821-.443-1.556-1.086-2.072-1.986C14.225 37.124 14 36.1 14 35c0-1.1.225-2.124.736-3.017.515-.9 1.251-1.543 2.072-1.986.965-.52 2.078-.78 3.192-.9V22a2 2 0 012-2h9a2 2 0 012 2c0 1.605.183 2.673.517 3.293.144.265.294.408.454.5.168.096.473.207 1.029.207.556 0 .861-.111 1.03-.207.16-.092.31-.235.453-.5.334-.62.517-1.688.517-3.293a2 2 0 012-2h16.097c.12-1.114.38-2.227.9-3.192.443-.821 1.086-1.556 1.986-2.072C58.876 14.225 59.9 14 61 14c1.1 0 2.124.225 3.017.736.9.515 1.543 1.251 1.986 2.072.52.965.78 2.078.9 3.192H74a2 2 0 012 2v9a2 2 0 01-2 2c-1.606 0-2.673.183-3.293.517-.265.144-.408.294-.5.454-.096.168-.207.473-.207 1.029 0 .556.111.861.207 1.03.092.16.235.31.5.453.62.334 1.688.517 3.293.517a2 2 0 012 2v16.096c1.114.122 2.227.38 3.192.901.821.443 1.557 1.086 2.072 1.986.511.893.736 1.916.736 3.017 0 1.1-.225 2.124-.736 3.017-.515.9-1.251 1.543-2.072 1.986-.965.52-2.078.78-3.192.9V74a2 2 0 01-2 2h-9a2 2 0 01-2-2c0-1.606-.183-2.673-.517-3.293-.144-.265-.294-.408-.454-.5C61.861 70.111 61.556 70 61 70c-.556 0-.861.111-1.03.207-.16.092-.31.235-.453.5-.334.62-.517 1.688-.517 3.293a2 2 0 01-2 2h-9zm2-4h5.096c.122-1.114.38-2.227.901-3.192.443-.821 1.086-1.557 1.986-2.072C58.876 66.225 59.9 66 61 66c1.1 0 2.124.225 3.017.736.9.515 1.543 1.251 1.986 2.072.52.965.78 2.078.9 3.192H72v-7a2 2 0 012-2c1.606 0 2.673-.183 3.293-.517.265-.144.408-.294.5-.454.096-.168.207-.473.207-1.029 0-.556-.111-.861-.207-1.03-.092-.16-.235-.31-.5-.453C76.673 59.183 75.605 59 74 59a2 2 0 01-2-2v-7h-5.097c-.12 1.114-.38 2.227-.9 3.192-.443.821-1.086 1.556-1.986 2.072C63.124 55.775 62.1 56 61 56c-1.1 0-2.124-.225-3.017-.736a5.114 5.114 0 01-.165-.1c-.815-.508-1.406-1.202-1.82-1.972a6.318 6.318 0 01-.184-.368c-.4-.875-.611-1.849-.718-2.824H50v7a2 2 0 01-2 2c-1.605 0-2.673.183-3.293.517-.265.144-.408.294-.5.454-.096.168-.207.473-.207 1.029 0 .556.111.861.207 1.03.092.16.235.31.5.452.62.335 1.688.518 3.293.518a2 2 0 012 2v7zm-9.096-48H46v7a2 2 0 002 2c1.605 0 2.673.183 3.293.517.265.144.408.294.5.454.096.168.207.473.207 1.029 0 .556-.111.861-.207 1.03-.092.16-.235.31-.5.453-.62.334-1.688.517-3.293.517a2 2 0 00-2 2v7h-5.096l-.025-.209c-.13-1.044-.388-2.078-.876-2.983-.443-.821-1.086-1.556-1.986-2.072C37.124 40.225 36.1 40 35 40c-1.1 0-2.124.225-3.017.736a5.1 5.1 0 00-1.81 1.768c-.062.1-.12.201-.176.304-.488.905-.746 1.94-.876 2.983l-.024.209H24v-7a2 2 0 00-2-2c-1.605 0-2.673-.183-3.293-.517-.265-.144-.408-.294-.5-.454C18.111 35.861 18 35.556 18 35c0-.556.111-.861.207-1.03.092-.16.235-.31.5-.453.62-.334 1.688-.517 3.293-.517a2 2 0 002-2v-7h5.096c.122 1.114.38 2.227.901 3.192.443.821 1.086 1.556 1.986 2.072.893.511 1.916.736 3.017.736 1.1 0 2.124-.225 3.017-.736.9-.515 1.543-1.251 1.986-2.072.52-.965.78-2.078.9-3.192z"/></svg>