<svg viewBox="0 0 96 96" xmlns="http://www.w3.org/2000/svg"><path fill-rule="evenodd" d="M47 16a6 6 0 100 12 6 6 0 000-12zm-10 6c0-5.523 4.477-10 10-10s10 4.477 10 10a9.966 9.966 0 01-2.74 6.878c2.632.783 4.888 2.048 6.738 3.622.482-.008.967.157 1.357.5a4 4 0 10.647-6.467 2 2 0 11-2.004-3.462 8 8 0 117.883 13.926c1.81.597 3.73 1.472 5.495 2.675C77.921 42.09 81 45.958 81 51.6V60a2 2 0 11-4 0v-8.4c0-3.958-2.088-6.722-4.876-8.622-1.892-1.29-4.031-2.12-5.846-2.573A15.34 15.34 0 0167 45V57a2 2 0 01-.007.166c-.139 1.67-1.251 3.622-3.015 5.112-1.47 1.242-3.466 2.236-5.978 2.586V80h4v-5a2 2 0 014 0v5h4V54a2 2 0 014 0v26h8a2 2 0 010 4H14a2 2 0 110-4h8V54a2 2 0 014 0v26h4v-5a2 2 0 014 0v5h4V64.844c-1.313-.19-2.855-.568-4.28-1.23C31.455 62.562 29 60.524 29 57V45c0-1.642.283-3.317.835-4.944C24.303 40.586 19 44.838 19 51V60a2 2 0 11-4 0V51c0-7.554 5.494-12.649 11.532-14.363a8 8 0 018.469-13.566A2 2 0 1133 26.535a4 4 0 10.668 6.448c.39-.35.881-.518 1.367-.51a18.25 18.25 0 015.223-3.088A9.974 9.974 0 0137 22zm-4 23c0-5.895 5.105-13 15-13s15 7.105 15 13V56.889c-.062.38-.468 1.374-1.603 2.333-.795.672-1.91 1.287-3.397 1.587V47a2 2 0 00-4 0v33h-4V70a2 2 0 00-4 0v10h-4V47a2 2 0 00-4 0v13.79c-.84-.16-1.761-.417-2.595-.804C33.795 59.238 33 58.276 33 57V45z"/></svg>