<svg viewBox="0 0 96 96" xmlns="http://www.w3.org/2000/svg"><path fill-rule="evenodd" d="M47.49 14.59c-.24.235-.49.655-.49 1.41v2h3V16c0-.828-.265-1.247-.484-1.459a1.38 1.38 0 00-.987-.366c-.4.005-.774.157-1.038.415zM45 22H35V24a2 2 0 01-4 0V22H16v8H80v-8h-8V24a2 2 0 01-4 0V22H54V24a2 2 0 01-4 0V22h-5zm35-4h-8V16c0-1.773-.61-3.278-1.704-4.335-1.071-1.036-2.472-1.51-3.825-1.49-2.77.04-5.47 2.16-5.47 5.825v2h-7V16c0-1.773-.611-3.278-1.705-4.335-1.071-1.036-2.472-1.51-3.825-1.49-2.77.04-5.47 2.16-5.47 5.825v2h-8V16c0-1.773-.611-3.278-1.705-4.335-1.071-1.036-2.472-1.51-3.825-1.49-2.77.04-5.47 2.16-5.47 5.825v2h-8a4 4 0 00-4 4v52a4 4 0 004 4h64a4 4 0 004-4V22a4 4 0 00-4-4zm-12-.018V18h-3v-2c0-.755.25-1.175.49-1.41.265-.258.64-.41 1.039-.415a1.38 1.38 0 01.987.366c.22.212.484.631.484 1.459V17.982zM28 18v-2c0-.755.25-1.175.49-1.41.265-.258.64-.41 1.039-.415a1.38 1.38 0 01.987.366c.22.212.484.631.484 1.459V18h-3zm52 16H16v40h64V34zM59 44a2 2 0 00-3.414-1.414l-4 4a2 2 0 102.828 2.828l.586-.586V60h-1a2 2 0 100 4h6a2 2 0 000-4h-1V44zm-21-2a2 2 0 100 4h4.764l-2.553 5.106a2 2 0 001.864 2.893c1.071.395 1.925 1.51 1.925 2.921 0 1.8-1.36 3.08-2.822 3.08-.99 0-1.91-.565-2.425-1.503a2 2 0 00-3.506 1.926C36.4 62.522 38.597 64 41.177 64 45.043 64 48 60.73 48 56.92c0-2.5-1.26-4.749-3.217-6.013l3.006-6.012A2 2 0 0046 42h-8z"/></svg>