<svg viewBox="0 0 96 96" xmlns="http://www.w3.org/2000/svg"><path d="M14 18a2 2 0 00-2 2v2.8h4V22h.625v-4H14zm13.125 0h-5.25v4h5.25v-4zM35 18h-2.625v4h1.958l1.467 1.1 2.4-3.2-2-1.5A2 2 0 0035 18zm7.2 4.9l1.467 1.1h2.583v4H43a2 2 0 01-1.2-.4l-2-1.5 2.4-3.2zM59.25 24h-6.5v4h6.5v-4zm13 0h-6.5v4h6.5v-4zM82 24h-3.25v4H80v1.125h4V26a2 2 0 00-2-2zm-70 4.4V34h4v-5.6h-4zm72 13.225v-6.25h-4v6.25h4zM12 39.6v5.6h4v-5.6h-4zm72 14.525v-6.25h-4v6.25h4zM12 50.8v5.6h4v-5.6h-4zm72 15.825v-6.25h-4v6.25h4zM12 62v5.6h4V62h-4zm72 14v-3.125h-4V74h-.833v4H82a2 2 0 002-2zm-72-2.8V76a2 2 0 002 2h2.833v-4H16v-.8h-4zM22.5 78h5.667v-4H22.5v4zm11.333 0H39.5v-4h-5.667v4zm11.334 0h5.666v-4h-5.666v4zM56.5 78h5.667v-4H56.5v4zm11.333 0H73.5v-4h-5.667v4zM25 34a2 2 0 00-2 2v10a2 2 0 002 2h18a2 2 0 002-2V36a2 2 0 00-2-2H25zm2 10v-6h14v6H27zm-4 12a2 2 0 012-2h18a2 2 0 012 2v10a2 2 0 01-2 2H25a2 2 0 01-2-2V56zm4 2v6h14v-6H27zm26-24a2 2 0 00-2 2v10a2 2 0 002 2h18a2 2 0 002-2V36a2 2 0 00-2-2H53zm2 10v-6h14v6H55z"/></svg>