<svg viewBox="0 0 96 96" xmlns="http://www.w3.org/2000/svg"><path d="M16 18a4 4 0 00-4 4v52a4 4 0 004 4h64a4 4 0 004-4V22a4 4 0 00-4-4H16zm0 4h64v8H16v-8zm63.907 12H80v40H16V34H79.907zM22 24a2 2 0 100 4h1a2 2 0 100-4h-1zm7 2a2 2 0 012-2h1a2 2 0 110 4h-1a2 2 0 01-2-2zm11-2a2 2 0 100 4h1a2 2 0 100-4h-1zm7.5 18C41.149 42 36 47.149 36 53.5S41.149 65 47.5 65 59 59.851 59 53.5 53.851 42 47.5 42zM32 53.5C32 44.94 38.94 38 47.5 38 56.06 38 63 44.94 63 53.5 63 62.06 56.06 69 47.5 69 38.94 69 32 62.06 32 53.5zm20.192 1.606a2 2 0 000-3.212l-5.25-3.897a2 2 0 00-3.192 1.606v7.794a2 2 0 003.192 1.606l5.25-3.897z"/></svg>