<svg viewBox="0 0 96 96" xmlns="http://www.w3.org/2000/svg"><path d="M48.872 17.629a1 1 0 00-1.744 0l-30.87 54.88A1 1 0 0017.13 74h61.74a1 1 0 00.872-1.49l-30.87-54.881zm-5.23-1.961c1.912-3.398 6.804-3.398 8.716 0l30.87 54.88C85.103 73.883 82.695 78 78.871 78H17.13c-3.825 0-6.233-4.118-4.358-7.451l30.87-54.881zm-1.158 18.027A2 2 0 0144 33h8a2 2 0 011.978 2.297l-3 20A2 2 0 0149 57h-2a2 2 0 01-1.978-1.703l-3-20a2 2 0 01.462-1.602zM46.322 37L48 48.184 49.678 37h-3.356zM47 65a1 1 0 112 0 1 1 0 01-2 0zm1-5a5 5 0 100 10 5 5 0 000-10z"/></svg>