<svg xmlns="http://www.w3.org/2000/svg" viewBox="0 0 16 16"><path d="M10.3265 6.4437c0 1.2886-1.0372 2.3344-2.3265 2.3344-1.2894 0-2.3344-1.0458-2.3344-2.3344 0-1.2885 1.045-2.3343 2.3343-2.3343 1.2894 0 2.3266 1.0458 2.3266 2.3343Z" /><path fill-rule="evenodd" clip-rule="evenodd" d="M8 0C3.5817 0 0 3.5817 0 8s3.5817 8 8 8 8-3.5817 8-8-3.5817-8-8-8ZM1.994 8c0-3.317 2.689-6.006 6.006-6.006 3.3171 0 6.0061 2.689 6.0061 6.006a5.981 5.981 0 0 1-1.3046 3.7379C11.5417 10.8025 9.303 10.3343 8 10.3343c-1.3036 0-3.5419.4682-4.7016 1.4035A5.9807 5.9807 0 0 1 1.994 8Z" /></svg>