<svg viewBox="0 0 16 16" xmlns="http://www.w3.org/2000/svg"><path d="M3.273 2.003C4.041 1.32 5.037 1 6 1c.963 0 1.959.32 2.727 1.003C9.513 2.702 10 3.729 10 5v5c0 1.3-1.233 2-2.5 2S5 11.3 5 10V5a1 1 0 012 0v4.904c.062.035.212.096.5.096.288 0 .438-.061.5-.096V5c0-.729-.263-1.202-.602-1.503C7.041 3.18 6.537 3 6 3c-.537 0-1.041.18-1.398.497C4.263 3.798 4 4.271 4 5v5c0 1.176.469 1.874 1.081 2.311.66.47 1.562.689 2.419.689.822 0 1.728-.251 2.404-.753C10.546 11.77 11 11.058 11 10V5a1 1 0 112 0v5c0 1.742-.796 3.03-1.904 3.853C10.021 14.65 8.678 15 7.5 15c-1.143 0-2.49-.282-3.581-1.061C2.78 13.126 2 11.824 2 10V5c0-1.271.487-2.298 1.273-2.997z"/></svg>