<svg viewBox="0 0 16 16" xmlns="http://www.w3.org/2000/svg"><path d="M3.2 2C2.05 2 1 2.894 1 4.125v6.75C1 12.105 2.05 13 3.2 13h9.6c1.15 0 2.2-.894 2.2-2.125v-6.75C15 2.895 13.95 2 12.8 2H3.2zM3 4.125c0-.01.003-.033.036-.065A.238.238 0 013.2 4h9.6c.072 0 .129.027.164.06.033.032.036.056.036.065v6.75c0 .01-.003.033-.036.065a.239.239 0 01-.164.06H3.2a.238.238 0 01-.164-.06c-.033-.032-.036-.056-.036-.065v-6.75zM5 5a1 1 0 000 2h1a1 1 0 000-2H5zM4 9a1 1 0 011-1h1a1 1 0 010 2H5a1 1 0 01-1-1zm6-4a1 1 0 000 2h1a1 1 0 100-2h-1z"/></svg>