<svg viewBox="0 0 16 16" xmlns="http://www.w3.org/2000/svg"><path fill-rule="evenodd" d="M3.2 3h9.6c.66 0 1.2.563 1.2 1.25v7.5c0 .688-.54 1.25-1.2 1.25H3.2c-.66 0-1.2-.563-1.2-1.25v-7.5C2 3.562 2.54 3 3.2 3zm1.402 2A.602.602 0 004 5.602v.796c0 .332.27.602.602.602h1.796C6.73 7 7 6.73 7 6.398v-.796A.602.602 0 006.398 5H4.602zM4 9.602C4 9.27 4.27 9 4.602 9h1.796C6.73 9 7 9.27 7 9.602v.796c0 .332-.27.602-.602.602H4.602A.602.602 0 014 10.398v-.796zM9.602 5A.602.602 0 009 5.602v.796c0 .332.27.602.602.602h1.796c.332 0 .602-.27.602-.602v-.796A.602.602 0 0011.398 5H9.602z"/></svg>