<svg xmlns="http://www.w3.org/2000/svg" viewBox="0 0 16 16"><path d="M13.2222 1.7778a.7778.7778 0 0 1 0 1.5555H2.7778a.7778.7778 0 1 1 0-1.5555H5L5.857 1h4.2857L11 1.7778h2.2222Zm-6.508 5.4445a.4286.4286 0 0 0-.4286.4286v3.8095a.4286.4286 0 1 0 .8572 0V7.6509a.4286.4286 0 0 0-.4286-.4286Zm3 .4286a.4286.4286 0 1 0-.8571 0v3.8095a.4286.4286 0 1 0 .8571 0V7.6509Z" /><path fill-rule="evenodd" clip-rule="evenodd" d="M2.8571 13.4445C2.8571 14.3 3.6285 15 4.5714 15h6.8571c.9429 0 1.7143-.7 1.7143-1.5555V4.1111H2.8571v9.3334Zm1.7142-7.7779h6.8572v7.7778H4.5714V5.6666Z" /></svg>