<svg viewBox="0 0 16 16" xmlns="http://www.w3.org/2000/svg"><path d="M8 4.5a1.5 1.5 0 100-3 1.5 1.5 0 000 3zm-1.748 9.752a.792.792 0 01-1.502-.503l.75-2.25 1-2.5V6.5c0 .001-1.349-.768-2-1.499-.444-.498-.747-1.478-.895-2.052a.573.573 0 01.307-.654.605.605 0 01.832.316L5.5 4.5l1 .5 3.043.017.957-.517.762-1.906a.589.589 0 01.81-.308c.25.125.377.407.294.673-.168.537-.48 1.43-.866 2.041-.585.925-2 1.5-2 1.5V9l1 2.5.75 2.249a.792.792 0 01-1.502.503L9 12.029l-1-1.53-1 1.53-.748 2.223zM1.662 4.044l1.484 1.483-.619.62-1.483-1.484.619-.619zm12.66 2.964l-1.276-1.369.64-.596 1.276 1.368-.64.597zM3.062 10v2h.875v-2h-.875zM13 11.063h2v.874h-2v-.874zM4.062 7.066v.866h.875v-.866h-.875zm8 1.866v-.866h.876v.866h-.876z"/></svg>