<svg xmlns="http://www.w3.org/2000/svg" viewBox="0 0 16 16"><path fill-rule="evenodd" clip-rule="evenodd" d="m9.47842 11.7439.00118-.0005c.41761-.2032.7551-.4379 1.0021-.7088.1209-.1325.2186-.2608.287-.3846.0677-.1226.1139-.2536.1139-.3873 0-.0743-.0151-.1537-.0584-.2269-.0436-.07368-.1067-.12599-.1777-.15946-.1402-.06879-.2866-.054-.414.00969l-.0089.00443-.0084.00517c-.25079.15357-.55422.30187-.91216.44407-.3329.127-.7619.1951-1.29493.1951-.54467 0-.97497-.071-1.30058-.2022-.35446-.1429-.66049-.2897-.91934-.43979L5.782 9.88923l-.00639-.0032c-.13169-.06584-.2784-.07603-.4188-.01123-.07235.03339-.13677.08618-.181.161-.04326.0732-.05844.1526-.05844.2269 0 .2543.1651.5164.39098.7698l.00357.0039c.25114.2691.58716.5032.99925.7064l.0034.0017c.43641.2064.93622.306 1.49354.306.5472 0 1.03924-.0999 1.47031-.3066ZM5.72111 5.02005c.31315 0 .58169.12851.79465.36688.22374.23865.32812.54372.32812.89376 0 .34724-.10585.65125-.32826.89389-.21677.23648-.48446.36676-.79451.36676-.30624 0-.57084-.1316-.78641-.36676l-.00238-.00261c-.21587-.24285-.31777-.54597-.31777-.89128 0-.34873.10086-.65337.31885-.89245.21197-.2379.47775-.36819.78771-.36819ZM10.2789 5.02005c.3131 0 .5817.12851.7946.36688.2238.23865.3282.54372.3282.89376 0 .34724-.1059.65125-.3283.89389-.2168.23648-.4845.36676-.7945.36676-.30625 0-.57085-.1316-.78641-.36676l-.00239-.00261c-.21587-.24285-.31776-.54597-.31776-.89128 0-.34873.10085-.65337.31884-.89245.21197-.2379.47776-.36819.78772-.36819Z" /><path fill-rule="evenodd" clip-rule="evenodd" d="M11.0924 15.3727c.9616-.4169 1.8103-.9927 2.5447-1.727.7398-.7344 1.3186-1.5832 1.7356-2.5452C15.7911 10.1298 16 9.09523 16 8c0-1.09012-.2115-2.11909-.6355-3.08454-.4169-.96697-.9955-1.81842-1.7353-2.55278-.7343-.73973-1.5831-1.31844-2.5449-1.735401C10.1187.208665 9.08712 0 7.99189 0 6.9019 0 5.87302.20873 4.90757.627279c-.96191.417011-1.81335.995741-2.553 1.735401-.73458.73457-1.31053 1.58618-1.727399 2.55325C.208694 5.88131 0 6.9101 0 8c0 1.09523.208665 2.1294.627081 3.1001l.000645.0015c.422284.9612 1.000764 1.8097 1.734954 2.5438.7344.7344 1.58319 1.3104 2.54489 1.7273C5.87317 15.7913 6.90477 16 8 16c1.09523 0 2.1268-.2087 3.0924-.6273Zm1.4077-2.8645c.5845-.5845 1.041-1.2599 1.3701-2.0278.3277-.7697.4896-1.59523.4844-2.47904V8c0-.87868-.1646-1.69914-.4923-2.46376-.3291-.77325-.7857-1.44883-1.3696-2.0275l-.0015-.00145c-.5789-.58415-1.2515-1.04051-2.0193-1.3696-.76431-.32755-1.59013-.49227-2.48001-.49227-.88428 0-1.70742.16465-2.47187.49227-.76788.32909-1.44046.78545-2.01939 1.36959l-.00073.00073c-.57872.57873-1.03265 1.25402-1.36199 2.02771-.32769.76462-.49249 1.5856-.49249 2.46428 0 .88415.1646 1.7101.49236 2.4802.32929.7683.7833 1.4439 1.36251 2.0284.57878.5787 1.2513 1.0324 2.01924 1.3616.77017.3278 1.59621.4925 2.48047.4925.88428 0 1.70742-.1647 2.4719-.4923.7737-.3293 1.4495-.7835 2.0282-1.3622Z" /></svg>