<svg xmlns="http://www.w3.org/2000/svg" viewBox="0 0 16 16"><path d="M12.8029.0124c-.3985-.1568-2.5899 1.195-4.8312 3.0955-.0249.0195-.0499.0392-.0499.0783l-.772 3.1542-.5977-1.6065c-.0498-.098-.224-.1373-.2988-.0393-.6973.6858-1.3447 1.3911-1.8926 2.0964-.0248.0196-.0248.0588-.0248.098l.5479 3.2326-1.4196-1.4302c-.0747-.0783-.2491-.0587-.2988.0393-.6973 1.4693-.6973 2.782.6226 3.644l-1.7432 2.253c-.1246.1763.0248.3723.274.3723H3.763c.1494 0 .274-.0783.2988-.196.0995-.3526.3735-1.1559.797-1.9396 2.291.6859 4.1338-.8227 5.4538-3.0366.0499-.098-.0498-.2156-.1744-.196l-2.291.2547 3.5113-2.1942c.0249-.0196.0499-.0392.0499-.0588.3486-.862.6474-1.7632.8965-2.6057.0248-.098-.0747-.1763-.1992-.1567l-2.4655.3722 3.0382-2.0374c.0248-.0196.0498-.0588.0498-.0784.3487-1.724.3485-2.9976.0746-3.1151Z" /></svg>