<svg viewBox="0 0 16 16" xmlns="http://www.w3.org/2000/svg"><path d="M10.952 9.724a5.28 5.28 0 01.106-.403l1.211-4.835h-1.577l-.307 1.012c-.218-.487-.545-.828-.981-1.021a3.117 3.117 0 00-1.27-.29c-.628 0-1.201.137-1.72.411-.52.275-.962.638-1.327 1.087-.366.45-.648.962-.847 1.537a5.301 5.301 0 00-.298 1.743c0 .438.08.85.24 1.237.16.387.379.728.655 1.022.275.293.596.524.961.693.365.169.753.253 1.164.253.41 0 .8-.087 1.173-.262a2.1 2.1 0 00.903-.825h.039c.026.312.163.569.413.768.25.2.58.3.99.3.309 0 .715-.103 1.222-.309.506-.206 1.006-.528 1.5-.965.493-.438.917-1 1.27-1.687.352-.687.528-1.512.528-2.474 0-.862-.186-1.646-.558-2.352a5.663 5.663 0 00-1.48-1.8 6.962 6.962 0 00-2.135-1.152A7.765 7.765 0 008.307 1c-1 0-1.942.181-2.826.544a7.556 7.556 0 00-2.327 1.48 6.866 6.866 0 00-1.577 2.221A6.666 6.666 0 001 8.009c0 1 .192 1.928.577 2.784a6.796 6.796 0 001.586 2.22 7.346 7.346 0 002.356 1.462A7.87 7.87 0 008.404 15a7.31 7.31 0 003.346-.778 6.552 6.552 0 002.52-2.24h-1.616c-.5.488-1.112.866-1.837 1.135a6.556 6.556 0 01-2.298.402c-.82 0-1.58-.13-2.279-.393a5.188 5.188 0 01-1.798-1.115 5.128 5.128 0 01-1.173-1.724c-.282-.669-.423-1.416-.423-2.24 0-.787.128-1.521.385-2.202a5.104 5.104 0 011.096-1.762 5.057 5.057 0 011.721-1.162c.673-.281 1.42-.422 2.24-.422.731 0 1.414.1 2.048.3.635.2 1.186.497 1.654.89.468.394.837.875 1.106 1.444.27.568.404 1.227.404 1.977 0 .5-.067.962-.202 1.387-.134.424-.308.79-.52 1.096a2.448 2.448 0 01-.73.712 1.559 1.559 0 01-.817.253c-.116 0-.199-.04-.25-.122a.57.57 0 01-.077-.309c0-.125.016-.26.048-.403zm-4.635.206c-.275-.306-.413-.709-.413-1.208 0-.313.057-.631.173-.956.115-.325.279-.622.49-.89.212-.27.465-.488.76-.656.295-.17.615-.253.961-.253.41 0 .76.15 1.048.45.289.3.433.68.433 1.143 0 .324-.058.656-.173.993-.115.337-.279.64-.49.909-.212.269-.462.49-.75.665a1.8 1.8 0 01-.952.263c-.449 0-.811-.153-1.087-.46z"/></svg>