<svg viewBox="0 0 16 16" xmlns="http://www.w3.org/2000/svg"><path d="M8 15A7 7 0 118 1a7 7 0 010 14zm0-2A5 5 0 108 3a5 5 0 000 10zm.902-5.065a2.014 2.014 0 01-.625.087h-.974V5.508h.974c.242 0 .452.029.63.087.178.055.325.136.44.242s.204.236.262.388c.059.152.088.321.088.509 0 .197-.03.376-.088.537a1.05 1.05 0 01-.266.407c-.116.11-.263.196-.44.257zm.591-3.27A3.998 3.998 0 008.277 4.5H6v7.006h1.303V9.04h.974c.456 0 .853-.057 1.192-.17.342-.113.627-.271.853-.475s.395-.445.508-.726c.113-.285.17-.596.17-.935 0-.327-.055-.627-.165-.902-.106-.274-.271-.51-.494-.707s-.505-.35-.848-.46z"/></svg>