<svg viewBox="0 0 16 16" xmlns="http://www.w3.org/2000/svg"><path d="M15 8A7 7 0 111 8a7 7 0 0114 0zM9.605 6.265c.1.16.164.337.193.53h1.625a3.085 3.085 0 00-.363-1.178 2.865 2.865 0 00-.733-.862 3.227 3.227 0 00-1.005-.53 3.842 3.842 0 00-1.192-.183c-.585 0-1.11.104-1.577.311-.467.207-.861.493-1.182.857-.32.364-.567.79-.738 1.28a4.785 4.785 0 00-.257 1.59c0 .557.086 1.076.257 1.558s.417.902.738 1.258c.32.357.715.638 1.182.841a3.91 3.91 0 001.577.305c.47 0 .902-.071 1.294-.214a3 3 0 001.026-.62c.293-.272.528-.6.706-.986.178-.386.289-.818.332-1.296H9.862c-.064.514-.24.928-.53 1.242-.288.314-.689.472-1.202.472-.378 0-.699-.074-.963-.22a1.837 1.837 0 01-.641-.584 2.534 2.534 0 01-.358-.819 3.898 3.898 0 01-.113-.937c0-.336.038-.66.113-.975.074-.314.194-.594.358-.84.164-.247.378-.443.641-.59.264-.146.585-.219.963-.219a1.743 1.743 0 011.475.809z" fill="#E53935"/></svg>