<svg xmlns="http://www.w3.org/2000/svg" viewBox="0 0 16 16"><path d="M13.6666 1a.7777.7777 0 0 0-.7777.7778v12.4444a.7777.7777 0 1 0 1.5555 0V1.7778A.7778.7778 0 0 0 13.6666 1Z" /><path fill-rule="evenodd" clip-rule="evenodd" d="m9.7305 12.1542-.6549-1.3631H4.2388l-.6548 1.3631c-.0992.2087-.2733.3675-.4844.4417a.8056.8056 0 0 1-.6408-.0459c-.1977-.1055-.3477-.2886-.4168-.5094a.916.916 0 0 1 .0474-.669l4.0472-8.4777c.1001-.2075.3031-.3385.5249-.3385.2219 0 .4249.131.5248.3385l4.0474 8.4777a.9171.9171 0 0 1 .06.6827c-.069.2265-.2227.4144-.4263.5204a.8052.8052 0 0 1-.6533.0416c-.2143-.0791-.3887-.246-.4836-.4621Zm-3.073-6.188a.1918.1918 0 0 0-.168.1023L5.0789 9.0321h3.157L6.8255 6.0685a.1918.1918 0 0 0-.168-.1023Z" /></svg>