<svg xmlns="http://www.w3.org/2000/svg" viewBox="0 0 16 16"><path d="M11.5014 3.51392c.1321 0 .2588-.05888.3523-.16365.0935-.10477.1459-.24678.1459-.39482v-.37381c.0056-.15222-.0444-.30025-.1385-.40996-.094-.10971-.2241-.17184-.3597-.17168H4.49971c-.13279 0-.26021.05949-.35382.16519-.0935.10586-.14562.24895-.14452.39793v.37381c0 .1482.05254.29021.14603.39498.09349.10462.22022.16349.35232.16349 0 2.12772 1.06663 3.91843 2.52044 4.48607-1.45384.56776-2.52044 2.35843-2.52044 4.48603v.0002c-.27524 0-.49834.25-.49834.5585V13.4c-.01021.1536.03668.305.12934.4186.09281.1136.22339.1792.36075.1814h7.00163c.1328 0 .2602-.0595.3538-.1652.0935-.1058.1457-.2489.1446-.3979v-.3738c0-.1482-.0526-.2902-.1461-.395-.0935-.1046-.2202-.1635-.3523-.1635 0-2.1277-1.0666-3.91843-2.52043-4.48607 1.46193-.58627 2.52873-2.37698 2.52873-4.50466v.00005ZM7.99646 6.87835c-1.20673 0-2.17046-1.55533-2.17046-3.36459l4.341.00015c0 1.82299-.97202 3.36444-2.17047 3.36444h-.00007Z" /></svg>