<svg viewBox="0 0 24 24" xmlns="http://www.w3.org/2000/svg"><path fill-rule="evenodd" d="M10.78 2a1 1 0 00-.97.757l-.419 1.678a7.991 7.991 0 00-2.636 1.524L5.09 5.483a1 1 0 00-1.14.461L2.73 8.056a1 1 0 00.171 1.219l1.244 1.202a8.042 8.042 0 000 3.046L2.9 14.725a1 1 0 00-.17 1.22l1.219 2.11a1 1 0 001.14.462l1.665-.476a7.992 7.992 0 002.637 1.524l.419 1.677a1 1 0 00.97.758h2.438a1 1 0 00.97-.758l.42-1.677a7.993 7.993 0 002.636-1.524l1.665.476a1 1 0 001.14-.461l1.22-2.112a1 1 0 00-.17-1.219l-1.245-1.202a8.04 8.04 0 000-3.046L21.1 9.275a1 1 0 00.17-1.22l-1.218-2.11a1 1 0 00-1.141-.462l-1.665.476a7.991 7.991 0 00-2.636-1.524l-.42-1.678A1 1 0 0013.22 2h-2.438zm6.367 6.914A5.997 5.997 0 0012 6a5.997 5.997 0 00-5.142 2.906l-.114.198A5.973 5.973 0 006 12c0 1.05.27 2.036.743 2.895l.116.2c.144.24.305.467.48.683A6.973 6.973 0 0112 14c1.79 0 3.424.672 4.662 1.778.177-.22.34-.45.486-.694l.102-.178c.478-.86.75-1.852.75-2.906a5.973 5.973 0 00-.748-2.904l-.105-.182zM12 13a2 2 0 100-4 2 2 0 000 4z"/></svg>