<svg xmlns="http://www.w3.org/2000/svg" viewBox="0 0 24 24"><path fill-rule="evenodd" clip-rule="evenodd" d="M17.38 17.48c.4.6.62 1.29.62 2.08v1.5a1 1 0 0 0 1 1h2a1 1 0 0 0 1-1v-1.5c0-2.33-4.96-2.6-4.62-2.08ZM9 16.06c-2.33 0-7 1.17-7 3.5v1.5a1 1 0 0 0 1 1h12a1 1 0 0 0 1-1v-1.5c0-2.33-4.67-3.5-7-3.5Zm0-2a3 3 0 0 0 2.99-3 3 3 0 1 0-5.99 0 3 3 0 0 0 3 3Zm8 2a2 2 0 1 0 0-4 2 2 0 0 0 0 4ZM13.17 2.65c-1.63-.33-3.17.7-3.17 2.4a1 1 0 1 1-2 0C8 1.84 10.96.16 13.58.7a5.22 5.22 0 0 1 3.46 2.57c.83 1.43 1.22 3.4.95 5.9a1 1 0 1 1-1.98-.21c.23-2.2-.13-3.71-.7-4.68a3.22 3.22 0 0 0-2.14-1.62Z" /></svg>