<svg viewBox="0 0 26 25" xmlns="http://www.w3.org/2000/svg"><path d="M15.931 1.961c1.2-.195 2.556.112 3.776 1.332 1.22 1.22 1.527 2.576 1.332 3.776-.186 1.138-.806 2.062-1.332 2.588l-7.071 7.071a3.233 3.233 0 01-1.713.88c-.82.134-1.733-.084-2.53-.88-.796-.796-1.014-1.71-.88-2.53a3.233 3.233 0 01.88-1.713l4.95-4.95a1 1 0 111.414 1.415l-4.95 4.95a1.232 1.232 0 00-.32.62c-.032.193-.015.459.32.794.336.335.6.352.794.32.256-.04.498-.198.62-.32l7.072-7.071c.3-.3.668-.86.772-1.496.093-.573-.013-1.28-.772-2.04-.76-.76-1.467-.865-2.04-.772-.636.104-1.196.473-1.496.772L6.31 13.155c-.435.545-.956 1.493-1.107 2.54-.147 1.025.053 2.137 1.07 3.154 1.017 1.017 2.13 1.218 3.154 1.07 1.047-.151 1.995-.672 2.54-1.107l6.327-6.327a1 1 0 011.414 1.415l-6.4 6.399-.038.031c-.757.62-2.053 1.352-3.557 1.569-1.55.223-3.325-.107-4.854-1.636C3.33 18.735 3 16.96 3.224 15.41c.217-1.504.948-2.8 1.568-3.558l.032-.039 8.52-8.52c.526-.526 1.45-1.147 2.588-1.332z"/></svg>