<svg xmlns="http://www.w3.org/2000/svg" viewBox="0 0 24 24"><path d="M11.5309 5.9574c0 2.1856-1.7719 3.9575-3.9575 3.9575S3.616 8.143 3.616 5.9574 5.388 2 7.5734 2C9.759 2 11.531 3.7718 11.531 5.9574Zm1.2073 6.1261c-.4696-.4696-1.0286-.8049-1.6546-1.0286-.9838.6931-2.2134 1.0956-3.5103 1.0956-1.2968 0-2.504-.4024-3.5103-1.0956C2.2743 11.6809 1 13.3578 1 15.3477l.0002 2.2805c0 .4472.38.8273.8272.8273h9.5245c-.313-.9838-.3577-2.3029.246-4.0245.3132-.8047.6932-1.5651 1.1403-2.3475Zm4.9859-3.5326c2.0123-2.1688 3.9797-3.7115 4.3375-3.5326.2459.134.246 1.5875-.067 3.555 0 .0223-.0224.067-.0447.0894l-2.7277 2.3252 2.2135-.4249c.1118-.0223.2012.0671.1788.1789-.2236.9615-.4918 1.9898-.8048 2.9736 0 .0223-.0225.0448-.0448.0671l-3.1525 2.5041 2.0569-.2907c.1118-.0223.2013.1118.1566.2236-1.1851 2.5265-2.8397 4.2481-4.8964 3.4654-.3803.8944-.6262 1.8111-.7156 2.2135-.0223.1343-.1341.2237-.2682.2237h-1.2968c-.2237 0-.3578-.2237-.246-.4249l1.5651-2.5711c-1.185-.9838-1.185-2.4818-.559-4.1586.0446-.1118.2012-.1341.2683-.0448l1.2745 1.6321-.4919-3.689c0-.0447 0-.0895.0223-.1118.4919-.8049 1.0731-1.6098 1.6992-2.3924.067-.1118.2235-.0671.2682.0447l.5367 1.8335.693-3.5997c0-.0446.0225-.067.0448-.0893Z" /></svg>