<svg viewBox="0 0 24 24" xmlns="http://www.w3.org/2000/svg"><path fill-rule="evenodd" d="M4 4h16c1.1 0 2 .9 2 2v12c0 1.1-.9 2-2 2H4c-1.1 0-2-.9-2-2V6c0-1.1.9-2 2-2zm2 3a1 1 0 00-1 1v2a1 1 0 001 1h4a1 1 0 001-1V8a1 1 0 00-1-1H6zm8.315 8.913L16 14.99l1.685.923a.7.7 0 00.461.076c.395-.07.66-.462.593-.873l-.322-1.955 1.364-1.385a.768.768 0 00.211-.433c.058-.413-.217-.797-.614-.857l-1.884-.286-.843-1.778a.713.713 0 00-1.302 0l-.843 1.779-1.884.285a.716.716 0 00-.416.22.78.78 0 00.013 1.07l1.364 1.385-.322 1.955a.784.784 0 00.073.48c.187.37.626.511.98.317zM5 14a1 1 0 011-1h4a1 1 0 011 1v2a1 1 0 01-1 1H6a1 1 0 01-1-1v-2z"/></svg>