<svg xmlns="http://www.w3.org/2000/svg" viewBox="0 0 24 24"><path fill-rule="evenodd" clip-rule="evenodd" d="M19 4h-1V2h-2v2H8V2H6v2H5c-1.11 0-1.99.9-1.99 2L3 20c0 1.1.89 2 2 2h14c1.1 0 2-.9 2-2V6c0-1.1-.9-2-2-2Zm0 16H5V9h14v11Z" /><path d="M6.6392 12.795c.0534-.3633.155-.68.305-.95.1533-.27.3417-.495.565-.675.2267-.18.485-.3133.775-.4.29-.09.6017-.135.935-.135.36 0 .68.0517.96.155.28.1.5167.2367.71.41.1934.1733.34.375.44.605.1.2267.15.4667.15.72 0 .23-.0233.4333-.07.61-.0466.1733-.1166.325-.21.455-.09.1267-.2033.235-.34.325-.1333.0867-.2866.16-.46.22.8067.2833 1.21.8333 1.21 1.65 0 .3867-.07.7233-.21 1.01-.14.2867-.3283.525-.565.715-.2333.19-.505.3333-.815.43-.31.0933-.6333.14-.97.14-.3467 0-.655-.0367-.925-.11-.27-.0767-.51-.1933-.72-.35-.21-.16-.395-.3633-.555-.61-.1566-.2467-.2933-.54-.41-.88l.69-.28c.18-.07.3467-.0883.5-.055s.2633.11.33.23c.15.2767.3083.4783.475.605.17.1233.3683.185.595.185.1734 0 .3234-.0283.45-.085.13-.06.2367-.135.32-.225a.9397.9397 0 0 0 .195-.315 1.011 1.011 0 0 0 .065-.355c0-.1567-.0116-.2967-.035-.42-.02-.1267-.08-.235-.18-.325-.1-.09-.2517-.1583-.455-.205-.2-.05-.48-.075-.84-.075v-1.07c.3034 0 .5483-.0233.735-.07.1867-.0467.33-.11.43-.19.1034-.0833.1717-.1833.205-.3.0334-.1167.05-.245.05-.385 0-.2867-.07-.5067-.21-.66-.1366-.1567-.3467-.235-.63-.235-.23 0-.425.0617-.585.185-.1567.12-.265.27-.325.45-.07.1833-.1616.305-.275.365-.1133.06-.275.0733-.485.04l-.82-.145ZM17.6 14.355c0 .6367-.0683 1.1883-.205 1.655-.1367.4667-.3267.8533-.57 1.16-.24.3067-.5267.535-.86.685-.33.15-.6883.225-1.075.225-.3867 0-.745-.075-1.075-.225-.3267-.15-.61-.3783-.85-.685-.24-.3067-.4283-.6933-.565-1.16-.1333-.4667-.2-1.0183-.2-1.655s.0667-1.1883.2-1.655c.1367-.4667.325-.8533.565-1.16.24-.3067.5233-.5333.85-.68.33-.15.6883-.225 1.075-.225.3867 0 .745.075 1.075.225.3333.1467.62.3733.86.68.2433.3067.4333.6933.57 1.16.1367.4667.205 1.0183.205 1.655Zm-1.6 0c0-.5033-.0317-.915-.095-1.235-.0633-.3233-.1483-.5767-.255-.76-.1033-.1833-.2217-.3083-.355-.375-.1333-.07-.2683-.105-.405-.105-.1367 0-.2717.035-.405.105-.13.0667-.2467.1917-.35.375-.1.1833-.1817.4367-.245.76-.06.32-.09.7317-.09 1.235 0 .5067.03.92.09 1.24.0633.32.145.5733.245.76.1033.1833.22.31.35.38.1333.0667.2683.1.405.1.1367 0 .2717-.0333.405-.1.1333-.07.2517-.1967.355-.38.1067-.1867.1917-.44.255-.76s.095-.7333.095-1.24Z" /></svg>