<svg  xmlns="http://www.w3.org/2000/svg" viewBox="0 0 24 24"><path d="M14.6146 11.365v-.65h-5.12v1.02c0 .0434.01.0867.03.13.02.04.045.0767.075.11.0334.03.07.055.11.075a.3722.3722 0 0 0 .135.025h3.205a2.8193 2.8193 0 0 0-.265.33 4.8001 4.8001 0 0 0-.23.38L9.9546 18h1.13c.2134 0 .3834-.05.51-.15.13-.1.23-.22.3-.36l2.53-5.36c.04-.08.0817-.1783.125-.295.0434-.12.065-.2766.065-.47Z" /><path fill-rule="evenodd" clip-rule="evenodd" d="M18 4h1c1.1 0 2 .9 2 2v14c0 1.1-.9 2-2 2H5c-1.11 0-2-.9-2-2l.01-14c0-1.1.88-2 1.99-2h1V2h2v2h8V2h2v2ZM5 20h14V9H5v11Z" /></svg>