<svg xmlns="http://www.w3.org/2000/svg" viewBox="0 0 24 24"><path d="M19.56 11.07a2.56 2.56 0 1 1-5.13 0 2.57 2.57 0 0 1 5.13 0ZM11 17.86c0-2 4-3 6-3s6 1 6 3V19a1 1 0 0 1-1 1H12a1 1 0 0 1-1-1v-1.14Z"/><path d="M15.5 5h-12C2.67 5 2 5.67 2 6.5v9c0 .82.67 1.5 1.5 1.5h5.57c.2-.9.82-1.65 1.63-2.25H5a.75.75 0 0 1 0-1.5h7.75c.16 0 .3.05.43.13a4.49 4.49 0 0 1-.07-4.63H5a.75.75 0 0 1 0-1.5h9c.14 0 .26.04.37.1A4.49 4.49 0 0 1 17 6.5c0-.83-.68-1.5-1.5-1.5ZM5 10.25a.75.75 0 0 0 0 1.5h4.5a.75.75 0 0 0 0-1.5H5Z" clip-rule="evenodd" fill-rule="evenodd"/></svg>