<svg viewBox="0 0 24 24" xmlns="http://www.w3.org/2000/svg"><path d="M5.93 11.187A6.264 6.264 0 019 6.804c1.93-1.115 4.175-1.102 5.965-.186l-.674.676L12.594 9h6.392V2.578l-1.709 1.716-.848.853C13.96 3.625 10.719 3.502 8 5.072a8.264 8.264 0 00-4.042 5.784 1 1 0 101.973.33zM6.015 15H5.02l-.005.995-.014 3-.011 2.43 1.718-1.718.858-.858c2.47 1.526 5.714 1.65 8.435.08a8.265 8.265 0 004.041-5.785 1 1 0 10-1.972-.33A6.265 6.265 0 0115 17.195c-1.931 1.115-4.177 1.102-5.967.185l.674-.674L11.414 15h-5.4zM12 14a2 2 0 100-4 2 2 0 000 4z"/></svg>