<svg width="24" height="24" xmlns="http://www.w3.org/2000/svg"><path d="M15.846 8.273a1 1 0 1 0-1.48-1.346l-3.106 3.417a1 1 0 0 0 1.48 1.345l3.106-3.416ZM7.116 13.806a1 1 0 0 0-1.414 1.414l2.485 2.485A1 1 0 0 0 9.6 16.29l-2.485-2.485Z" /><path d="M18.545 9.057a1 1 0 0 1 .074 1.412l-5.59 6.212a1 1 0 0 1-1.451.038l-2.485-2.485a1 1 0 0 1 1.414-1.414l1.74 1.74 4.885-5.429a1 1 0 0 1 1.413-.074Z" /><path fill-rule="evenodd" clip-rule="evenodd" d="M23 12c0 6.075-4.925 11-11 11S1 18.075 1 12 5.925 1 12 1s11 4.925 11 11Zm-2 0a9 9 0 1 1-18 0 9 9 0 0 1 18 0Z"/></svg>