<svg width="24" height="24" xmlns="http://www.w3.org/2000/svg"><path fill-rule="evenodd" clip-rule="evenodd" d="M12 22c5.5228 0 10-4.4772 10-10 0-5.5229-4.4772-10-10-10C6.4771 2 2 6.4771 2 12c0 5.5228 4.4771 10 10 10Zm-.5276-6.4487a1.0017 1.0017 0 0 1-.7157.3016 1.0002 1.0002 0 0 1-.7158-.3016l-3.0743-3.1515a1.006 1.006 0 0 1 .7322-1.7089c.2668.0032.5214.1123.7079.3032l2.35 2.41 4.8357-4.9571a1.006 1.006 0 0 1 1.7261.6907 1.0063 1.0063 0 0 1-.2861.715l-5.5586 5.7-.0014-.0014ZM20 12.0002c0 4.4182-3.5817 8-8 8s-8-3.5818-8-8c0-4.4183 3.5817-8 8-8s8 3.5817 8 8Z" /></svg>