<svg xmlns="http://www.w3.org/2000/svg" viewBox="0 0 24 24"><path fill-rule="evenodd" clip-rule="evenodd" d="M4 9V6h6v3H4ZM2 5.5C2 4.6717 2.6716 4 3.5 4h7c.8284 0 1.5.6716 1.5 1.5v4c0 .8285-.6716 1.5001-1.5 1.5001h-7c-.8284 0-1.5-.6716-1.5-1.5v-4Zm13.3036 10.4561c.094.84 1.1232 1.1917 1.7116.5849l1.3852-1.4283 2.1834 3.7818c.2754.4769.8852.6403 1.3622.3649.4768-.2754.6402-.8852.3649-1.362l-2.1835-3.7819 1.9183-.4827c.8216-.2067 1.03-1.2775.3459-1.7773L16.009 7.1927c-.7028-.5134-1.6805.0538-1.5837.9187l.8783 7.8447ZM2 14.5001c0-.8285.6716-1.5 1.5-1.5h7c.8284 0 1.5.6715 1.5 1.5v4c0 .8284-.6716 1.5-1.5 1.5h-7c-.8284 0-1.5-.6716-1.5-1.5v-4Z" /></svg>