<svg fill="none" xmlns="http://www.w3.org/2000/svg" viewBox="0 0 24 24">
<path fill-rule="evenodd" clip-rule="evenodd" d="M4.009 3.9988c0-1.1037.8838-2.0012 1.9925-2.0012h7.9975l6.0013 6V20c0 1.1037-.8988 1.9975-2.0025 1.9975H5.9915c-1.1037 0-1.9925-.8938-1.9925-1.9975l.01-16.0013Zm14.4925 5L12.9978 3.496v5.503h5.5037Zm-2.9013 8.5726c0-.452-.1376-.846-.3715-1.1878-.2047-.2991 2.7715-.1448 2.7715 1.1878v.4285c0 .5523-.4477 1-1 1h-.4c-.5523 0-1-.4477-1-1v-.4285Zm-9.6 0c0-1.3326 2.7996-2 4.2-2 1.3998 0 4.2.6674 4.2 2V18c0 .5523-.4477 1-1 1h-6.4c-.5522 0-1-.4477-1-1v-.4286Zm5.9939-4.8571c0 .9463-.7997 1.7143-1.7939 1.7143-.9943 0-1.8-.768-1.8-1.7143 0-.9463.8057-1.7143 1.8-1.7143.9942 0 1.7939.768 1.7939 1.7143Zm4.2064 1.7153c0 .6308-.5341 1.1429-1.198 1.1429-.6639 0-1.202-.5121-1.202-1.1429 0-.6309.5381-1.1429 1.202-1.1429.6639 0 1.198.512 1.198 1.1429Z" fill="#000"/>
</svg>