<svg viewBox="0 0 24 24" xmlns="http://www.w3.org/2000/svg"><path d="M11.968 6.516c1.188 0 2.032-1.01 2.032-2.258C14 3.011 13.155 2 11.968 2S10 3.011 10 4.258s.781 2.258 1.968 2.258zM9.46 21.207a1.14 1.14 0 01-2.172-.692l1.099-3.462L9.82 13.29V9.527S7.886 8.369 6.953 7.268c-.649-.764-1.088-2.282-1.295-3.138a.825.825 0 01.429-.923.867.867 0 011.214.46l1.085 2.849 1.433.752 4.36.027 1.372-.78 1.094-2.871a.846.846 0 011.183-.448.814.814 0 01.412.95c-.236.801-.69 2.184-1.256 3.122-.838 1.393-2.866 2.259-2.866 2.259v3.763l1.433 3.763 1.098 3.462a1.14 1.14 0 01-2.172.692l-1.075-3.358-1.434-2.301-1.433 2.301-1.076 3.358zM2.443 6.295a.606.606 0 01.887 0l1.239 1.301a.682.682 0 010 .931.606.606 0 01-.887 0l-1.239-1.3a.682.682 0 010-.932zm19.043 3.547a.605.605 0 01-.884-.03l-.976-1.1a.68.68 0 01.032-.93.605.605 0 01.885.032l.976 1.1a.68.68 0 01-.033.928zM3.892 17.18a.627.627 0 101.254 0v-1.757a.627.627 0 00-1.254 0v1.757zm14.242-.127c0-.363.294-.658.658-.658h1.55a.658.658 0 010 1.317h-1.55a.658.658 0 01-.658-.659zM6.325 12.058a.627.627 0 101.254 0v-.05a.627.627 0 10-1.254 0v.05zm12.092 1.132a.627.627 0 01-.627-.627v-.05a.627.627 0 011.254 0v.05c0 .346-.28.627-.627.627z"/></svg>