<svg width="24" height="24" xmlns="http://www.w3.org/2000/svg"><path fill-rule="evenodd" clip-rule="evenodd" d="m13.6632 16.2119.0013-.0006c.4699-.2286.8495-.4926 1.1274-.7974.136-.149.2459-.2934.3229-.4327.0761-.1379.1281-.2852.1281-.4357 0-.0835-.017-.1729-.0657-.2552a.4525.4525 0 0 0-.1999-.1794c-.1577-.0774-.3224-.0608-.4657.0109l-.01.005-.0095.0058c-.2821.1727-.6235.3396-1.0262.4996-.3745.1428-.8571.2194-1.4568.2194-.6127 0-1.0968-.0798-1.4631-.2274-.3988-.1608-.743-.3259-1.0343-.4948l-.007-.004-.0071-.0036c-.1482-.0741-.3132-.0856-.4712-.0127a.4538.4538 0 0 0-.2036.1812c-.0487.0823-.0658.1717-.0658.2552 0 .2861.1858.581.4399.8661l.004.0043c.2825.3028.6606.5661 1.1242.7947l.0038.002c.491.2322 1.0532.3442 1.6802.3442.6156 0 1.1692-.1124 1.6541-.3449Zm-4.227-7.5643c.3523 0 .6544.1445.894.4127.2517.2685.3692.6117.3692 1.0055 0 .3906-.1191.7326-.3693 1.0056-.2439.266-.545.4126-.8939.4126-.3445 0-.6421-.148-.8847-.4126l-.0026-.0029c-.2429-.2732-.3575-.6142-.3575-1.0027 0-.3923.1134-.735.3587-1.004.2384-.2677.5374-.4142.8861-.4142Zm5.1276 0c.3522 0 .6544.1445.8939.4127.2518.2685.3692.6117.3692 1.0055 0 .3906-.1191.7326-.3693 1.0056-.2439.266-.5451.4126-.8938.4126-.3446 0-.6422-.148-.8847-.4126l-.0027-.0029c-.2429-.2732-.3575-.6142-.3575-1.0027 0-.3923.1134-.735.3587-1.004.2384-.2677.5375-.4142.8862-.4142Z" /><path fill-rule="evenodd" clip-rule="evenodd" d="M15.4789 20.2943c1.0818-.469 2.0366-1.1168 2.8628-1.9429.8323-.8262 1.4835-1.7811 1.9526-2.8633C20.765 14.396 21 13.2321 21 12c0-1.2264-.2379-2.384-.7149-3.4701-.469-1.0878-1.12-2.0457-1.9523-2.8719-.826-.8322-1.7809-1.4832-2.863-1.9523C14.3835 3.2347 13.223 3 11.9909 3c-1.2263 0-2.3837.2348-3.4699.7057-1.0821.4691-2.04 1.1202-2.8721 1.9523-.8264.8264-1.4744 1.7845-1.9433 2.8724C3.2348 9.6164 3 10.774 3 12c0 1.2321.2348 2.3956.7055 3.4876l.0007.0017c.475 1.0813 1.1258 2.0359 1.9518 2.8618.8262.8262 1.7811 1.4742 2.863 1.9432C9.6073 20.7652 10.768 21 12 21s2.3926-.2348 3.4789-.7057Zm1.5837-3.2226c.6576-.6575 1.1711-1.4174 1.5414-2.2812.3686-.866.5508-1.7947.5449-2.789V12c0-.9885-.1852-1.9115-.5538-2.7717-.3703-.87-.8839-1.63-1.5408-2.281l-.0017-.0016c-.6513-.6572-1.4079-1.1706-2.2717-1.5408-.8599-.3685-1.7889-.5538-2.79-.5538-.9948 0-1.9209.1852-2.7809.5538-.8638.3702-1.6205.8836-2.2718 1.5408l-.0008.0008c-.651.651-1.1617 1.4108-1.5323 2.2812-.3686.8602-.554 1.7838-.554 2.7723 0 .9947.1852 1.9239.5539 2.7902.3704.8644.8812 1.6244 1.5328 2.282.6511.651 1.4077 1.1614 2.2717 1.5318.8664.3688 1.7957.554 2.7905.554.9948 0 1.9208-.1852 2.7809-.5538.8704-.3705 1.6307-.8814 2.2817-1.5325Z" /></svg>