<svg xmlns="http://www.w3.org/2000/svg" viewBox="0 0 24 24"><path fill-rule="evenodd" clip-rule="evenodd" d="M20 6h-8l-2-2H4c-1.105 0-1.9902.896-1.9902 2L2 18c0 1.104.895 2 2 2h16c1.1035 0 2-.896 2-2V8c0-1.104-.8965-2-2-2ZM8.3864 13.9957a.25.25 0 0 0 .1182.2125c.0906.0562.2474.1132.4954.1132s.4048-.057.4954-.1132a.25.25 0 0 0 .1182-.2125v-3.8528c0-.634-.2147-1.073-.5145-1.361-.3101-.2977-.7406-.4605-1.19-.4605-.4495 0-.88.1628-1.19.4605-.2999.288-.5146.727-.5146 1.361v3.9285c0 .9974.3732 1.6201.8836 2.0139.5339.412 1.2488.5933 1.9119.5933.6468 0 1.3634-.2122 1.9046-.6465.5248-.4212.8908-1.0517.8908-1.9607v-3.9285c0-.3144.2316-.5357.4773-.5357.2458 0 .4773.2212.4773.5357v3.9285c0 1.2908-.5429 2.2318-1.291 2.8322-.7314.587-1.6512.8464-2.459.8464-.7917 0-1.713-.2117-2.4518-.7818-.7624-.5883-1.2982-1.537-1.2982-2.8968v-3.9285c0-.9376.3309-1.6772.849-2.1748.508-.4878 1.1683-.7181 1.81-.7181.6418 0 1.3022.2303 1.81.718.5183.4977.8492 1.2373.8492 2.1749v3.9285c0 .4289-.1848.7509-.4676.9718-.2886.2255-.6865.3497-1.1006.3497-.4142 0-.812-.1242-1.1007-.3497-.2827-.2209-.4675-.5429-.4675-.9718v-3.9285c0-.3144.2315-.5357.4773-.5357.2457 0 .4773.2212.4773.5357v3.8528Z" /></svg>