<svg xmlns="http://www.w3.org/2000/svg" viewBox="0 0 24 24"><path d="M3.3636 20.0038h3.1818v-7.7272L2 8.8676v9.7726c0 .7546.6114 1.3636 1.3636 1.3636Z" fill="#4285F4"/><path d="M17.4546 20.0038h3.1818c.7546 0 1.3637-.6113 1.3637-1.3636V8.8675l-4.5455 3.4091" fill="#34A853"/><path d="M17.4546 6.3675v5.9091l4.5455-3.409V7.0492c0-1.6863-1.925-2.6477-3.2728-1.6363" fill="#FBBC04"/><path d="M6.5454 12.2766V6.3675L12 10.4584l5.4546-4.0909v5.9091L12 16.3675" fill="#EA4335"/><path d="M2.0001 7.0493 2 8.8675l4.5454 3.4091V6.3675L5.2728 5.413c-1.35-1.0114-3.2727-.05-3.2727 1.6363Z" fill="#C5221F"/></svg>