<svg fill="none" xmlns="http://www.w3.org/2000/svg" viewBox="0 0 24 24">
<path d="m14.1875 7 2.6392.5182L19 7l-4.8125-5-.6639 2.3704L14.1875 7Z" fill="#56368A"/><path d="M14.1875 7V2h-7.875C5.5873 2 5 2.6102 5 3.3636v17.2728C5 21.3898 5.5873 22 6.3125 22h11.375C18.4126 22 19 21.3898 19 20.6364V7h-4.8125Z" fill="#7248B9"/><path d="M8.7188 16.4318c-.362 0-.6563-.3057-.6563-.6818 0-.3761.2942-.6818.6563-.6818.362 0 .6562.3057.6562.6818 0 .3761-.2942.6818-.6563.6818Zm0-2.7273c-.362 0-.6563-.3056-.6563-.6818 0-.3761.2942-.6818.6563-.6818.362 0 .6562.3057.6562.6818 0 .3762-.2942.6818-.6563.6818Zm0-2.7272c-.362 0-.6563-.3057-.6563-.6819 0-.376.2942-.6818.6563-.6818.362 0 .6562.3057.6562.6818 0 .3762-.2942.6819-.6563.6819Zm7.2187 5.3409h-5.4688v-1.1364h5.4688v1.1364Zm0-2.7273h-5.4688v-1.1364h5.4688v1.1364Zm0-2.7273h-5.4688V9.7273h5.4688v1.1363Z" fill="#fff"/>
</svg>