<svg fill="none" xmlns="http://www.w3.org/2000/svg" viewBox="0 0 24 24">
<path d="M7.8437 12.2272h8.3125v1.5909H7.8437v-1.5909Zm0 2.7273h6.125v1.5909h-6.125v-1.5909Z" fill="#fff"/><path d="m14.1875 7 2.6392.5182L18.9999 7l-4.8124-5-.6639 2.3704L14.1875 7Z" fill="#1967D2"/><path d="M7.8437 9.5h8.3125v1.5909H7.8437v-1.591Z" fill="#fff"/><path d="M14.1875 7V2h-7.875C5.5873 2 5 2.6102 5 3.3636v17.2727c0 .7534.5873 1.3636 1.3125 1.3636h11.3749c.7252 0 1.3125-.6102 1.3125-1.3636V7h-4.8124Zm-.4375 9.318H8.0625v-1.1363H13.75v1.1363Zm2.1874-2.7272h-7.875v-1.1364h7.875v1.1364Zm0-2.7273h-7.875V9.7272h7.875v1.1364Z" fill="#4285F4"/>
</svg>