<svg fill="none" xmlns="http://www.w3.org/2000/svg" viewBox="0 0 24 24">
<path d="M15.2812 9.7272H7.625v6.1363h8.75V9.7272h-1.0938Zm0 5H8.7187v-3.8637h6.5625v3.8637Z" fill="#fff"/><path d="M17.6875 22H6.3125C5.5873 22 5 21.3898 5 20.6364V3.3636C5 2.6102 5.5873 2 6.3125 2h7.875L19 7v13.6364C19 21.3898 18.4127 22 17.6875 22Z" fill="#00AC47"/><path d="M14.1875 2 19 7h-4.8125V2Z" fill="#00832D"/><path d="M15.2812 9.7272H7.625v6.5909h8.75V9.7272h-1.0938Zm-6.5625 1.1363h2.7344v1.591H8.7188v-1.591Zm0 4.3182v-1.5909h2.7344v1.5909H8.7188Zm6.5625 0h-2.7343v-1.5909h2.7343v1.5909Zm0-2.7272h-2.7343v-1.591h2.7343v1.591Z" fill="#fff"/>
</svg>