<svg viewBox="0 0 24 24" xmlns="http://www.w3.org/2000/svg"><g fill-rule="evenodd"><path d="M5.773 12.267c0-.708.12-1.386.335-2.022L2.356 7.44a10.698 10.698 0 00-1.143 4.826c0 1.734.412 3.37 1.142 4.822l3.75-2.81a6.32 6.32 0 01-.332-2.012z" fill="#fbbc05"/><path d="M12.36 5.83c1.57 0 2.99.544 4.104 1.436l3.243-3.17c-1.977-1.683-4.51-2.723-7.347-2.723-4.405 0-8.191 2.466-10.004 6.068l3.752 2.803C6.972 7.677 9.436 5.83 12.36 5.83z" fill="#eb4335"/><path d="M12.36 18.704c-2.924 0-5.388-1.847-6.252-4.415l-3.752 2.803C4.17 20.695 7.955 23.16 12.36 23.16c2.719 0 5.314-.945 7.262-2.715l-3.56-2.694c-1.005.62-2.27.953-3.702.953z" fill="#34a853"/><path d="M23 12.267c0-.644-.101-1.337-.253-1.98H12.36v4.208h5.979c-.3 1.435-1.113 2.538-2.277 3.256l3.56 2.694C21.67 18.586 23 15.817 23 12.267z" fill="#4285f4"/></g></svg>