<svg  xmlns="http://www.w3.org/2000/svg" viewBox="0 0 24 24"><path d="M10.16 11.2h-.4V8.74A1.79 1.79 0 0 0 8 7v10c.97 0 1.75-.79 1.75-1.75V12.6h.56c.2 0 .36.03.47.08.1.05.2.14.28.26l2.67 3.7a.8.8 0 0 0 .26.27c.1.06.26.09.46.09H16l-3.27-4.68c-.1-.16-.22-.3-.34-.39-.1-.1-.24-.18-.38-.23.2-.11.4-.29.58-.54L15.77 7h-1.52a1 1 0 0 0-.45.09.94.94 0 0 0-.34.3l-2.6 3.5a.73.73 0 0 1-.28.23c-.11.05-.25.07-.42.07Z" /><path fill-rule="evenodd" clip-rule="evenodd" d="M2 6a4 4 0 0 1 4-4h12a4 4 0 0 1 4 4v12a4 4 0 0 1-4 4H6a4 4 0 0 1-4-4V6Zm4-2h12a2 2 0 0 1 2 2v12a2 2 0 0 1-2 2H6a2 2 0 0 1-2-2V6c0-1.1.9-2 2-2Z" /></svg>