<svg xmlns="http://www.w3.org/2000/svg" viewBox="0 0 24 24"><path d="M17.8536 9.3331c.6355.0005 1.2386.2917 1.6467.7956.4099.5073.5799 1.1771.4642 1.8269l-1.0964 6.2222c-.0904.5109-.3511.9728-.7368 1.3057-.3857.3329-.8718.5156-1.3743.5165h-6.3075c-.5701 0-1.117-.2341-1.5201-.6509-.4032-.4166-.6297-.982-.6297-1.5713V10.68c-.0059-.2092.1302-.3944.3268-.4445 3.113-.9022 3.4009-3.191 3.4009-4.5733 0-.7022 0-1.6622 1.0019-1.6622.7098.0093 1.3696.38 1.7629.991.7267 1.04.9158 2.6977.5288 4.3421h2.5326ZM4.5037 9.854c.3226-.3333.76-.5207 1.2162-.5207.456 0 .8936.1874 1.216.5207.3226.3335.5039.7856.5039 1.2571v7.1109c0 .6351-.3278 1.222-.86 1.5395a1.6707 1.6707 0 0 1-1.7198 0C4.3278 19.444 4 18.8571 4 18.222v-7.1109c0-.4715.1813-.9236.5037-1.257Z"/></svg>