<svg xmlns="http://www.w3.org/2000/svg" viewBox="0 0 24 24"><path d="M13.58 13.65a2.24 2.24 0 01-3.16-3.15 2.23 2.23 0 013.16 3.15zM16.63 17.02c-.27 0-.54-.1-.75-.3a1.06 1.06 0 010-1.5 4.4 4.4 0 000-6.29 1.06 1.06 0 011.5-1.5 6.51 6.51 0 010 9.28c-.2.21-.48.31-.75.31z"/><path d="M19.03 20.15a1.06 1.06 0 01-.75-1.81 8.79 8.79 0 002.6-6.27c0-2.36-.92-4.59-2.6-6.26a1.06 1.06 0 011.5-1.5A10.9 10.9 0 0123 12.07a10.9 10.9 0 01-3.22 7.77c-.2.2-.48.3-.75.3zM7.37 17.02c-.27 0-.54-.1-.75-.3a6.51 6.51 0 010-9.29 1.06 1.06 0 111.5 1.5 4.4 4.4 0 000 6.28 1.06 1.06 0 01-.75 1.81z"/><path d="M4.97 20.15c-.27 0-.54-.1-.75-.31A10.9 10.9 0 011 12.07a10.9 10.9 0 013.22-7.76 1.06 1.06 0 111.5 1.5 8.79 8.79 0 00-2.6 6.26c0 2.37.92 4.6 2.6 6.27a1.06 1.06 0 01-.75 1.8z"/></svg>
