<svg viewBox="0 0 24 24" xmlns="http://www.w3.org/2000/svg"><path fill-rule="evenodd" d="M22 12c0-5.523-4.477-10-10-10S2 6.477 2 12s4.477 10 10 10 10-4.477 10-10zm-8.138 3.756c-.306.323-.76.524-1.36.604l.29-3.46c.22.08.424.164.611.255.187.09.349.198.485.323.141.125.249.27.323.434.079.158.119.345.119.56 0 .527-.156.955-.468 1.284zm-2.711-8.177c.22-.096.49-.164.807-.204l-.263 3.153a5.853 5.853 0 01-.595-.271 2.551 2.551 0 01-.476-.34 1.664 1.664 0 01-.315-.434 1.381 1.381 0 01-.11-.57c0-.187.03-.365.093-.535.068-.17.173-.323.315-.459.141-.136.323-.25.544-.34zm3.017 3.774a19.234 19.234 0 00-1.215-.416l.297-3.52c.221.051.422.117.604.196.187.08.354.159.501.238.147.074.28.139.4.195a.803.803 0 00.306.077c.113 0 .21-.028.289-.085a.93.93 0 00.23-.255l.51-.774a5.431 5.431 0 00-1.131-.824c-.437-.25-.955-.422-1.556-.519L13.54 4h-.773a.525.525 0 00-.4.162.593.593 0 00-.17.365l-.093 1.071c-.624.029-1.176.148-1.658.357a4.07 4.07 0 00-1.224.8 3.291 3.291 0 00-.748 1.104c-.17.408-.255.828-.255 1.258 0 .578.096 1.06.29 1.445.192.386.444.706.756.961.317.25.671.45 1.062.604.397.152.796.286 1.199.399l-.315 3.8a2.94 2.94 0 01-.824-.264 8.427 8.427 0 01-.62-.349 14.398 14.398 0 00-.485-.305.749.749 0 00-.4-.136.594.594 0 00-.306.085.637.637 0 00-.22.204l-.647.96c.408.402.904.74 1.488 1.011a6.478 6.478 0 001.87.544l-.153 1.82h.773a.503.503 0 00.391-.17.53.53 0 00.17-.357l.102-1.25c.635-.04 1.199-.17 1.692-.391a4.1 4.1 0 001.25-.867c.34-.357.597-.765.773-1.224a4.17 4.17 0 00.263-1.488c0-.532-.099-.974-.297-1.325a2.758 2.758 0 00-.782-.893 4.181 4.181 0 00-1.08-.578z"/></svg>