<svg xmlns="http://www.w3.org/2000/svg" viewBox="0 0 24 24"><path d="M17.58 14.05c-.12.05-.27.08-.45.08h-.95v-1.76h.95c.17 0 .3.02.43.06.12.04.21.1.29.17.07.07.13.16.16.26.04.1.06.22.06.35 0 .13-.02.24-.05.35a.73.73 0 0 1-.44.5Zm-1.4-2.45V9.86h.8c.32 0 .56.07.7.2.16.13.23.36.23.67 0 .3-.08.52-.25.66-.16.14-.4.2-.73.2h-.75Z" /><path fill-rule="evenodd" clip-rule="evenodd" d="M4 7a2 2 0 0 0-2 2v6c0 1.1.9 2 2 2h16a2 2 0 0 0 2-2V9a2 2 0 0 0-2-2H4Zm1.95 4.51h.22c.09 0 .16 0 .22-.04a.4.4 0 0 0 .15-.14l1.4-2.1a.53.53 0 0 1 .18-.18.5.5 0 0 1 .25-.05h.82l-1.72 2.5c-.1.15-.2.25-.3.32.07.03.14.08.2.14.06.06.12.13.18.23L9.3 15h-.83a.48.48 0 0 1-.25-.05.46.46 0 0 1-.14-.17l-1.44-2.22a.4.4 0 0 0-.15-.15.56.56 0 0 0-.26-.05h-.3V15H5V9h.95v2.51ZM14.1 9v6h-.48a.4.4 0 0 1-.2-.04.5.5 0 0 1-.14-.15l-2.65-4 .02.5V15h-.83V9h.6l.07.03a.2.2 0 0 1 .07.06l.07.09 2.66 4.02a12.3 12.3 0 0 1-.02-.55V9h.83Zm3.74.11a2.86 2.86 0 0 0-.86-.11h-1.75v6h1.92c.3 0 .56-.04.79-.13a1.58 1.58 0 0 0 .94-.93c.08-.21.12-.45.12-.7 0-.7-.35-1.15-1.05-1.34.16-.06.3-.14.4-.23a1.3 1.3 0 0 0 .5-1.07 2 2 0 0 0-.1-.67c-.07-.2-.18-.36-.33-.5a1.51 1.51 0 0 0-.58-.32Z" /></svg>