<svg viewBox="0 0 24 24" xmlns="http://www.w3.org/2000/svg"><path fill-rule="evenodd" d="M12 20C7.58172 20 4 16.4183 4 12C4 7.58172 7.58172 4 12 4C16.4183 4 20 7.58172 20 12C20 16.4183 16.4183 20 12 20ZM2 12C2 6.47715 6.47715 2 12 2C17.5228 2 22 6.47715 22 12C22 17.5228 17.5228 22 12 22C6.47715 22 2 17.5228 2 12ZM13.193 11.963C12.9363 12.047 12.6353 12.089 12.29 12.089H10.883V8.456H12.29C12.64 8.456 12.9433 8.498 13.2 8.582C13.4567 8.66133 13.669 8.778 13.837 8.932C14.005 9.086 14.131 9.27267 14.215 9.492C14.299 9.71133 14.341 9.95633 14.341 10.227C14.341 10.5117 14.299 10.7707 14.215 11.004C14.131 11.2327 14.0027 11.4287 13.83 11.592C13.662 11.7507 13.4497 11.8743 13.193 11.963ZM14.047 7.238C13.5523 7.07933 12.9667 7 12.29 7H9V17.122H10.883V13.559H12.29C12.948 13.559 13.522 13.4773 14.012 13.314C14.5067 13.1507 14.9173 12.922 15.244 12.628C15.5707 12.334 15.8157 11.984 15.979 11.578C16.1423 11.1673 16.224 10.717 16.224 10.227C16.224 9.75567 16.1447 9.32167 15.986 8.925C15.832 8.52833 15.594 8.18767 15.272 7.903C14.95 7.61833 14.5417 7.39667 14.047 7.238Z"/></svg>
