<svg fill="none" viewBox="0 0 24 24" xmlns="http://www.w3.org/2000/svg"><rect height="18" rx="9" stroke="#262d38" stroke-linecap="round" stroke-linejoin="round" stroke-width="2" width="18" x="3" y="3"/><path d="M12.29 12.089c.345 0 .646-.042.903-.126a1.74 1.74 0 00.637-.371c.173-.163.301-.36.385-.588a2.28 2.28 0 00.126-.777c0-.27-.042-.516-.126-.735s-.21-.406-.378-.56-.38-.27-.637-.35a2.936 2.936 0 00-.91-.126h-1.407v3.633zm0-5.089c.677 0 1.262.08 1.757.238s.903.38 1.225.665.56.625.714 1.022c.159.397.238.83.238 1.302 0 .49-.082.94-.245 1.351-.163.406-.408.756-.735 1.05s-.737.523-1.232.686c-.49.163-1.064.245-1.722.245h-1.407v3.563H9V7z" fill="#262d38"/></svg>