<svg viewBox="0 0 24 24" xmlns="http://www.w3.org/2000/svg"><path d="M12 21a9 9 0 100-18 9 9 0 000 18z" fill="#fff"/><path d="M22 12c0 5.523-4.477 10-10 10S2 17.523 2 12 6.477 2 12 2s10 4.477 10 10zm-8.154-2.095c.13.21.215.441.252.693h2.128a4.028 4.028 0 00-.476-1.54 3.745 3.745 0 00-.959-1.127 4.226 4.226 0 00-1.316-.693A5.036 5.036 0 0011.914 7c-.765 0-1.454.135-2.065.406a4.417 4.417 0 00-1.547 1.12 4.994 4.994 0 00-.966 1.673A6.246 6.246 0 007 12.278c0 .728.112 1.407.336 2.037.224.63.546 1.178.966 1.645.42.467.936.833 1.547 1.099.611.266 1.3.399 2.065.399.616 0 1.18-.093 1.694-.28a3.928 3.928 0 001.344-.812c.383-.355.69-.784.924-1.288a5.083 5.083 0 00.434-1.694h-2.128c-.084.672-.315 1.213-.693 1.624-.378.41-.903.616-1.575.616-.495 0-.915-.096-1.26-.287a2.404 2.404 0 01-.84-.763 3.31 3.31 0 01-.469-1.071 5.089 5.089 0 01-.147-1.225c0-.439.049-.863.147-1.274.098-.41.254-.777.469-1.099a2.38 2.38 0 01.84-.77c.345-.191.765-.287 1.26-.287a2.285 2.285 0 011.442.504c.196.159.36.343.49.553z" fill="#EE7A77"/></svg>