<svg viewBox="0 0 24 24" xmlns="http://www.w3.org/2000/svg"><g fill-rule="evenodd"><path d="M12 21a9 9 0 100-18 9 9 0 000 18z" fill="#fff"/><path d="M22 12c0 5.523-4.477 10-10 10S2 17.523 2 12 6.477 2 12 2s10 4.477 10 10zm-8.154-2.095c.13.21.215.441.252.693h2.128c-.065-.579-.224-1.092-.476-1.54s-.572-.824-.959-1.127-.826-.534-1.316-.693S12.465 7 11.914 7c-.765 0-1.454.135-2.065.406-.611.27-1.127.644-1.547 1.12s-.742 1.034-.966 1.673A6.246 6.246 0 007 12.278c0 .728.112 1.407.336 2.037s.546 1.178.966 1.645.936.833 1.547 1.099c.611.266 1.3.399 2.065.399.616 0 1.18-.093 1.694-.28s.961-.457 1.344-.812.69-.784.924-1.288.378-1.069.434-1.694h-2.128c-.084.672-.315 1.213-.693 1.624s-.903.616-1.575.616c-.495 0-.915-.096-1.26-.287s-.625-.446-.84-.763c-.215-.317-.371-.674-.469-1.071s-.147-.805-.147-1.225c0-.439.049-.863.147-1.274s.254-.777.469-1.099c.215-.322.495-.579.84-.77s.765-.287 1.26-.287a2.285 2.285 0 011.442.504c.196.159.36.343.49.553z" fill="#e53935"/></g></svg>