<svg width="24" height="24" xmlns="http://www.w3.org/2000/svg"><path d="M24 12c0 6.6274-5.3726 12-12 12S0 18.6274 0 12 5.3726 0 12 0s12 5.3726 12 12ZM2.4 12c0 5.3019 4.298 9.6 9.6 9.6 5.3019 0 9.6-4.2981 9.6-9.6 0-5.302-4.2981-9.6-9.6-9.6-5.302 0-9.6 4.298-9.6 9.6Z" /><path d="m11.2213 15.6152 5.6479-5.7337c.4608-.4677.4671-1.2167.0144-1.6922-.4728-.4966-1.2623-.5044-1.7449-.0174l-4.9911 5.0375-1.2812-1.3456c-.4787-.5027-1.2807-.5027-1.7594 0-.4467.4691-.4467 1.2062 0 1.6753l1.9594 2.0579c.5842.6136 1.5604.6218 2.1549.0182Z" /></svg>