<svg xmlns="http://www.w3.org/2000/svg" viewBox="0 0 24 24"><path d="M23 12c0 6.0751-4.9249 11-11 11S1 18.0751 1 12 5.9249 1 12 1s11 4.9249 11 11ZM3.2 12c0 4.8601 3.9399 8.8 8.8 8.8 4.8601 0 8.8-3.9399 8.8-8.8 0-4.8601-3.9399-8.8-8.8-8.8-4.8601 0-8.8 3.9399-8.8 8.8Z" /><path d="m11.2862 15.314 5.1773-5.2559c.4223-.4288.4281-1.1154.0131-1.5513-.4334-.4551-1.1571-.4623-1.5995-.0159l-4.5751 4.6178-1.1745-1.2335c-.4388-.4609-1.174-.4609-1.6128 0a1.1134 1.1134 0 0 0 0 1.5356l1.7961 1.8864c.5356.5625 1.4304.5701 1.9754.0168Z" /></svg>