<svg xmlns="http://www.w3.org/2000/svg" viewBox="0 0 24 24"><path d="m20.064 10.7719.0004 1.6285h.8065-1.6137c-.7772 0-1.5658-.5407-1.8541-1.2681l-.3178-.8023-1.7129 8.359c-.2642 1.2897-1.6116 1.3181-1.9342.0475l-2.954-11.63169-.76175 3.84559c-.16174.8169-.92495 1.4503-1.75241 1.4503H2.32258h1.61253-.80682c-.44498 0-.80571-.3615-.80571-.8144 0-.4497.35751-.8142.80571-.8142h4.84182c.05779 0 .15972-.0845.17092-.1409l1.21725-6.14565c.29823-1.50547 1.72932-1.56175 2.10982-.06352l2.8673 11.29077 1.5502-7.56488c.2523-1.2316 1.54-1.34366 2.0015-.17885l1.0137 2.55873c.0435.11.2397.2444.3564.2444h1.6146c.4449 0 .8056.3614.8056.8142 0 .4497-.3631.814-.8065.814h-.8065c-.4448 0-.8064-.3611-.8064-.814 0-.4497.3626-.8145.806-.8145Z" /><path fill-rule="evenodd" clip-rule="evenodd" d="M20.0492 10.4453c.0049-.0002.0098-.0003.0148-.0003.005 0 .0104.0001.0154.0003h.7924c.6213 0 1.1282.506 1.1282 1.1411 0 .6315-.5078 1.1413-1.1282 1.1413h-.8082c-.0094 0-.0187-.0001-.0281-.0004h-.7783c-.8417 0-1.6821-.5333-2.0696-1.2886l-1.4993 7.3168c-.1543.7533-.6561 1.2304-1.2537 1.2442-.5971.0138-1.1202-.439-1.3088-1.1817L10.5231 8.56953l-.4844 2.44517c-.19209.9703-1.08819 1.7129-2.06866 1.7129H2.32258c-.17816 0-.32258-.1464-.32258-.3269v-.8144c0-.6303.50198-1.1411 1.12829-1.1411h4.72056l1.19316-6.02399c.16633-.83966.68309-1.39867 1.32959-1.42055.6491-.02196 1.1968.50467 1.4089 1.33989l2.5213 9.92835 1.2679-6.18746c.1485-.7248.6271-1.19572 1.2101-1.24728.5826-.05152 1.135.32757 1.4066 1.0131l1.0067 2.54074c.0082.0087.0217.0205.0392.0325.0174.0119.0333.0203.0443.0248h.7726Zm-.792.3269c-.1167 0-.3129-.1344-.3564-.2444l-1.0137-2.55873c-.4615-1.16481-1.7492-1.05275-2.0015.17885l-1.5502 7.56488-2.8673-11.29077c-.3805-1.49823-1.81159-1.44195-2.10982.06352L8.14103 10.6312c-.0112.0564-.11313.1409-.17092.1409H3.12829c-.33481 0-.61902.2034-.74139.4938-.04144.0983-.06432.2066-.06432.3204 0 .1835.0592.3519.15922.4874.04631.0628.10137.1184.16336.1653.13461.1017.30188.1617.48313.1617h4.84175c.82746 0 1.59067-.6334 1.75241-1.4503l.76175-3.84559 2.954 11.63169c.3226 1.2706 1.67 1.2422 1.9342-.0475l1.7129-8.359.3178.8023c.2883.7274 1.0769 1.2681 1.8541 1.2681h.7826c.0079.0003.0166 0 .0246 0h.8065c.1118 0 .2193-.0228.3163-.0647.2876-.1242.4902-.4129.4902-.7493 0-.4528-.3607-.8142-.8056-.8142l-.8078-.0003-.8068.0003Zm.8064 1.9555h.8082Z"/></svg>