<svg xmlns="http://www.w3.org/2000/svg" viewBox="0 0 24 24"><path d="M17 4c0-.55228.4477-1 1-1s1 .44772 1 1v16c0 .5523-.4477 1-1 1s-1-.4477-1-1V4ZM12.0973 15.5887l.8419 1.7526c.122.2779.3463.4924.6217.5941.2755.102.5786.0825.8401-.0535.2617-.1363.4593-.3778.548-.669.0887-.2916.061-.6083-.0771-.8779L9.66807 5.43512C9.53963 5.16835 9.27864 5 8.99329 5c-.28508 0-.54607.16835-.67478.43512L3.11496 16.335c-.12821.2671-.15014.5762-.06097.8602.08892.2839.28171.5194.53594.6549.2564.1333.55257.1545.82389.0591.27135-.0954.49522-.2996.62272-.5679l.84196-1.7526h6.2188ZM8.77221 9.51673c.0441-.08127.12651-.1315.21592-.1315.0894 0 .17182.05023.21592.1315l1.81365 3.81057H6.95854l1.81367-3.81057Z" /></svg>