<svg viewBox="0 0 24 24" xmlns="http://www.w3.org/2000/svg"><path d="M10.01 3.757l-.97-.242zm-.358 1.434l.326.946.513-.177.131-.526zM7.28 6.563l-.275.961.521.15.41-.356zm-1.424-.407l-.275.961zm-1.14.461l-.867-.5zm-1.02 1.766l-.866-.5zm.171 1.219l-.695.718zM4.93 10.63l.982.189.103-.532-.39-.376zm0 2.74l.695.72.39-.377-.103-.532zm-1.063 1.028l-.695-.718zm-.17 1.22l-.867.5zm1.019 1.765l.866-.5zm1.14.461l-.274-.961zm1.424-.407l.656-.755-.41-.356-.521.15zm2.372 1.372l.97-.243-.131-.526-.513-.177zm.359 1.434l.97-.243zm3.979 0L13.02 20zm.358-1.435l-.326-.945-.513.177-.131.526zm2.372-1.371l.275-.961-.521-.15-.41.356zm1.424.407l-.275.961zm1.14-.461l.867.5zm1.02-1.766l.866.5zm-.171-1.219l.695-.718zM19.07 13.37l-.982-.189-.103.532.39.376zm0-2.74l-.695-.72-.39.377.103.532zm1.063-1.028l-.695-.72zm.17-1.22l.867-.5zm-1.018-1.765l-.866.5zm-1.141-.461l.275.961zm-1.424.407l-.656.755.41.356.521-.15zm-2.372-1.372l-.97.243.131.526.513.177zm-.359-1.434l.97-.242zM10.981 4V2a2 2 0 00-1.94 1.515zm-.359 1.434L10.981 4l-1.94-.485-.36 1.434zM7.936 7.318a6.192 6.192 0 012.042-1.181l-.652-1.89a8.192 8.192 0 00-2.702 1.561zm-2.355-.2l1.424.407.55-1.923-1.423-.407zm0 0l.55-1.923a2 2 0 00-2.282.922zM4.562 8.882l1.02-1.766-1.733-1L2.83 7.883zm0 0l-1.732-1a2 2 0 00.342 2.438zM5.625 9.91L4.562 8.883l-1.39 1.438 1.063 1.028zM5.8 12c0-.405.039-.8.112-1.181l-1.964-.379A8.239 8.239 0 003.8 12zm.112 1.181A6.238 6.238 0 015.8 12h-2c0 .533.05 1.054.148 1.56zm-1.35 1.936l1.063-1.027-1.39-1.438-1.063 1.028zm0 0l-1.39-1.437a2 2 0 00-.342 2.437zm1.02 1.766l-1.02-1.766-1.732 1 1.02 1.766zm0 0l-1.732 1a2 2 0 002.282.923zm1.423-.407l-1.423.407.55 1.923 1.423-.407zm2.973 1.387a6.194 6.194 0 01-2.042-1.18l-1.312 1.509a8.192 8.192 0 002.702 1.562zM10.981 20l-.358-1.434-1.94.485.358 1.434zm0 0l-1.94.485A2 2 0 0010.98 22zm2.038 0h-2.038v2h2.038zm0 0v2a2 2 0 001.94-1.515zm.359-1.434L13.019 20l1.94.485.36-1.434zm2.686-1.884a6.192 6.192 0 01-2.042 1.181l.652 1.89a8.192 8.192 0 002.702-1.561zm2.355.2l-1.424-.406-.55 1.922 1.424.408zm0 0l-.55 1.924a2 2 0 002.282-.923zm1.019-1.765l-1.02 1.766 1.733 1 1.019-1.766zm0 0l1.732 1a2 2 0 00-.342-2.437zm-1.063-1.028l1.063 1.028 1.39-1.437-1.063-1.029zM18.2 12c0 .405-.039.8-.112 1.181l1.964.379A8.24 8.24 0 0020.2 12zm-.112-1.181c.073.381.112.776.112 1.181h2c0-.532-.05-1.054-.148-1.56zm1.35-1.936L18.375 9.91l1.39 1.437 1.063-1.028zm0 0l1.39 1.437a2 2 0 00.342-2.437zm-1.02-1.766l1.02 1.766 1.732-1-1.02-1.766zm0 0l1.733-1a2 2 0 00-2.283-.923zm-1.423.407l1.424-.407-.55-1.923-1.424.408zm-2.973-1.387a6.192 6.192 0 012.042 1.18l1.312-1.509a8.193 8.193 0 00-2.702-1.562zM13.019 4l.359 1.434 1.94-.485-.359-1.434zm0 0l1.94-.485A2 2 0 0013.02 2zm-2.038 0h2.038V2h-2.038zM12 16a4 4 0 004-4h-2a2 2 0 01-2 2zm-4-4a4 4 0 004 4v-2a2 2 0 01-2-2zm4-4a4 4 0 00-4 4h2a2 2 0 012-2zm4 4a4 4 0 00-4-4v2a2 2 0 012 2z"/></svg>