<svg viewBox="0 0 24 24" xmlns="http://www.w3.org/2000/svg"><path d="M9.04 3.515A2 2 0 0110.98 2h2.04a2 2 0 011.94 1.515l.232.93a8.191 8.191 0 011.753 1.014l.924-.265a2 2 0 012.282.923l1.019 1.766a2 2 0 01-.342 2.437l-.69.668a8.28 8.28 0 010 2.024l.69.668a2 2 0 01.342 2.437l-1.02 1.766a2 2 0 01-2.281.922l-.924-.264a8.192 8.192 0 01-1.753 1.014l-.232.93A2 2 0 0113.02 22h-2.04a2 2 0 01-1.94-1.515l-.233-.93a8.193 8.193 0 01-1.753-1.014l-.923.265a2 2 0 01-2.282-.923l-1.02-1.766a2 2 0 01.342-2.437l.69-.667a8.272 8.272 0 010-2.025l-.69-.668a2 2 0 01-.342-2.437l1.02-1.766a2 2 0 012.282-.922l.923.264a8.192 8.192 0 011.753-1.014l.232-.93zM13.02 4h-2.04l-.49 1.96-.512.177a6.192 6.192 0 00-2.042 1.18l-.41.357-1.945-.557-1.019 1.766 1.453 1.404-.103.532a6.237 6.237 0 000 2.362l.103.532-1.453 1.404 1.02 1.766 1.944-.557.41.356c.593.516 1.285.92 2.042 1.181l.513.177.49 1.96h2.038l.49-1.96.513-.177a6.192 6.192 0 002.042-1.18l.41-.357 1.945.557 1.019-1.766-1.453-1.404.103-.532a6.24 6.24 0 000-2.362l-.103-.532 1.453-1.404-1.02-1.766-1.944.557-.41-.356a6.192 6.192 0 00-2.042-1.181l-.513-.177L13.02 4zM8 12a4 4 0 118 0 4 4 0 01-8 0zm4-2a2 2 0 100 4 2 2 0 000-4z"/></svg>