<svg xmlns="http://www.w3.org/2000/svg" width="24" height="24" fill="none"><path d="M10 7c0-.55228.4477-1 1-1h3c.5523 0 1 .44772 1 1s-.4477 1-1 1h-3c-.5523 0-1-.44772-1-1Zm6 0c0-.55228.4477-1 1-1h3c.5523 0 1 .44772 1 1s-.4477 1-1 1h-3c-.5523 0-1-.44772-1-1ZM4 7c0-.55228.44772-1 1-1h3c.55229 0 1 .44772 1 1s-.44771 1-1 1H5c-.55228 0-1-.44772-1-1Zm6 5c0-.5523.4477-1 1-1h3c.5523 0 1 .4477 1 1s-.4477 1-1 1h-3c-.5523 0-1-.4477-1-1Zm6 0c0-.5523.4477-1 1-1h3c.5523 0 1 .4477 1 1s-.4477 1-1 1h-3c-.5523 0-1-.4477-1-1ZM4 12c0-.5523.44772-1 1-1h3c.55229 0 1 .4477 1 1s-.44771 1-1 1H5c-.55228 0-1-.4477-1-1Zm6 5c0-.5523.4477-1 1-1h3c.5523 0 1 .4477 1 1s-.4477 1-1 1h-3c-.5523 0-1-.4477-1-1Zm6 0c0-.5523.4477-1 1-1h3c.5523 0 1 .4477 1 1s-.4477 1-1 1h-3c-.5523 0-1-.4477-1-1ZM4 17c0-.5523.44772-1 1-1h3c.55229 0 1 .4477 1 1s-.44771 1-1 1H5c-.55228 0-1-.4477-1-1Z"/></svg>