<svg viewBox="0 0 24 24" xmlns="http://www.w3.org/2000/svg"><path d="M21.508 6.776c-.7.3-1.451.504-2.24.596a3.821 3.821 0 001.715-2.095 7.955 7.955 0 01-2.477.919A3.952 3.952 0 0015.658 5c-2.155 0-3.902 1.695-3.902 3.787 0 .296.035.585.101.863a11.19 11.19 0 01-8.041-3.957 3.684 3.684 0 00-.529 1.904c0 1.314.69 2.473 1.736 3.152a3.978 3.978 0 01-1.767-.474v.048c0 1.835 1.344 3.365 3.13 3.713a4.015 4.015 0 01-1.763.065c.497 1.504 1.938 2.599 3.645 2.63a7.979 7.979 0 01-4.846 1.62c-.315 0-.625-.017-.93-.052A11.288 11.288 0 008.472 20c7.177 0 11.1-5.77 11.1-10.774 0-.164-.003-.328-.01-.49a7.802 7.802 0 001.946-1.96z"/></svg>