<svg width="24" height="24" xmlns="http://www.w3.org/2000/svg"><path fill-rule="evenodd" clip-rule="evenodd" d="M6.68 10.777C6.2456 9.9467 6 9.002 6 8c0-3.3137 2.6863-6 6-6s6 2.6863 6 6c0 1.002-.2456 1.9467-.68 2.777 1.6053.9606 2.68 2.7163 2.68 4.723 0 3.0376-2.4625 5.5-5.5 5.5h-5C6.4625 21 4 18.5376 4 15.5c0-2.0067 1.0747-3.7624 2.68-4.723Zm1.9005-.7005A5.5392 5.5392 0 0 1 9.5 10h5c.3133 0 .6205.0262.9195.0765A3.9818 3.9818 0 0 0 16 8c0-2.2091-1.7909-4-4-4-2.2091 0-4 1.7909-4 4 0 .7604.2122 1.4712.5805 2.0765Z" /></svg>