<svg viewBox="0 0 25 24" xmlns="http://www.w3.org/2000/svg"><path d="M10.662 14.263V8.856l5.132 2.713-5.132 2.694zm11.27-6.344s-.186-1.325-.756-1.91c-.722-.766-1.532-.77-1.903-.814C16.615 5 12.627 5 12.627 5h-.008s-3.987 0-6.646.195c-.371.044-1.18.048-1.904.815-.569.584-.754 1.91-.754 1.91s-.19 1.557-.19 3.114v1.46c0 1.557.19 3.114.19 3.114s.185 1.326.754 1.91c.724.766 1.673.742 2.095.822 1.52.148 6.46.194 6.46.194s3.99-.006 6.65-.2c.37-.046 1.18-.05 1.902-.816.57-.584.756-1.91.756-1.91s.19-1.557.19-3.114v-1.46c0-1.557-.19-3.115-.19-3.115z"/></svg>