<svg  xmlns="http://www.w3.org/2000/svg" viewBox="0 0 25 24"><path fill-rule="evenodd" clip-rule="evenodd" d="M10.33 14.58v-5.6L16 11.8l-5.67 2.78ZM22.8 8.02s-.2-1.37-.83-1.98c-.8-.79-1.7-.8-2.1-.84C16.9 5 12.5 5 12.5 5s-4.41 0-7.35.2c-.41.05-1.3.05-2.1.84-.64.6-.84 1.98-.84 1.98S2 9.63 2 11.24v1.51c0 1.61.21 3.22.21 3.22s.2 1.37.83 1.98c.8.8 1.85.77 2.32.85 1.68.15 7.14.2 7.14.2s4.41 0 7.35-.2c.41-.05 1.3-.06 2.1-.85.63-.6.84-1.98.84-1.98s.21-1.6.21-3.22v-1.5c0-1.62-.21-3.23-.21-3.23Z" /></svg>